<?xml version="1.0" standalone="no"?>
<!DOCTYPE svg PUBLIC "-//W3C//DTD SVG 20010904//EN"
 "http://www.w3.org/TR/2001/REC-SVG-20010904/DTD/svg10.dtd">
<svg version="1.0" xmlns="http://www.w3.org/2000/svg"
 width="40px" height="40px" viewBox="0 0 6000.000000 6000.000000"
 preserveAspectRatio="xMidYMid meet">

<g transform="translate(0.000000,6000.000000) scale(0.100000,-0.100000)"
fill="#2A2B2A" stroke="none">
<path d="M16415 46123 c-1149 -229 -2092 -418 -2094 -419 -11 -9 -89 -686
-116 -999 -33 -385 -29 -863 11 -1380 113 -1460 517 -2762 1197 -3855 812
-1306 1905 -2273 3250 -2874 1158 -518 2775 -816 4977 -916 578 -26 1049 -30
3538 -31 1448 0 2632 -4 2630 -8 -2 -4 -3516 -3642 -7810 -8084 l-7808 -8077
1 -3093 0 -3092 232 238 c128 130 3868 3976 8312 8546 4444 4570 8083 8309
8086 8308 4 -2 11050 -10063 14666 -13360 l393 -358 0 2828 0 2828 -7261 6660
-7261 6660 7261 3 7261 2 0 2265 0 2265 -10642 3 c-8099 2 -10704 6 -10898 15
-936 44 -1472 86 -2000 158 -796 107 -1325 249 -1739 465 -546 286 -995 662
-1304 1093 -326 455 -531 1021 -652 1801 -86 558 -115 1113 -115 2218 0 479
-3 607 -12 606 -7 0 -953 -188 -2103 -416z"/>
</g>
</svg>
