<?xml version="1.0" standalone="no"?>
<!DOCTYPE svg PUBLIC "-//W3C//DTD SVG 20010904//EN"
 "http://www.w3.org/TR/2001/REC-SVG-20010904/DTD/svg10.dtd">
<svg version="1.0" xmlns="http://www.w3.org/2000/svg"
 width="20px" height="20px" viewBox="0 0 512.000000 512.000000"
 preserveAspectRatio="xMidYMid meet">

<g transform="translate(0.000000,512.000000) scale(0.100000,-0.100000)"
fill="#2A2B2A" stroke="none">
<path d="M540 4494 c-80 -17 -209 -80 -272 -132 -107 -89 -221 -262 -233 -353
l-5 -34 936 -615 c514 -338 1083 -712 1263 -831 l328 -216 1264 828 1264 829
-1 34 c-3 82 -121 266 -232 358 -65 54 -193 115 -277 133 -102 21 -3935 21
-4035 -1z"/>
<path d="M3 2417 c2 -1141 4 -1226 21 -1282 10 -33 21 -64 26 -69 5 -4 398
306 875 690 685 552 863 700 853 709 -7 7 -256 172 -553 367 -297 196 -694
457 -883 582 l-343 226 4 -1223z"/>
<path d="M4235 3054 c-484 -317 -886 -582 -893 -588 -10 -10 158 -150 853
-710 477 -384 871 -694 875 -690 5 5 16 36 26 69 17 56 18 135 21 1095 2 569
2 1117 1 1218 l-3 183 -880 -577z"/>
<path d="M1137 1543 c-504 -406 -916 -740 -916 -743 0 -14 104 -86 174 -121
148 -73 2 -69 2165 -69 2161 0 2014 -4 2165 69 74 35 177 113 165 124 -3 2
-331 267 -730 588 -399 321 -803 647 -898 724 -95 77 -181 146 -190 152 -15
11 -42 -3 -187 -98 -92 -61 -186 -120 -208 -131 -50 -25 -138 -34 -193 -19
-23 6 -127 67 -232 136 -105 69 -192 125 -195 125 -2 0 -416 -332 -920 -737z"/>
</g>
</svg>
