<?xml version="1.0" standalone="no"?>
<!DOCTYPE svg PUBLIC "-//W3C//DTD SVG 1.1//EN" "http://www.w3.org/Graphics/SVG/1.1/DTD/svg11.dtd" >
<svg xmlns="http://www.w3.org/2000/svg" xmlns:xlink="http://www.w3.org/1999/xlink" version="1.1">
<metadata>
Created by FontForge 20170731 at Thu Oct 15 11:10:34 2020
 By Aleksey,,,
Copyright 2011 The Bitter Project Authors (https://github.com/solmatas/BitterPro)
</metadata>
<defs>
<font id="Bitter-SemiBoldItalic" horiz-adv-x="0" >
  <font-face 
    font-family="Bitter SemiBold"
    font-weight="600"
    font-style="italic"
    font-stretch="normal"
    units-per-em="1000"
    panose-1="0 0 0 0 0 0 0 0 0 0"
    ascent="800"
    descent="-200"
    x-height="532"
    cap-height="702"
    bbox="-177 -307 1289 1136"
    underline-thickness="50"
    underline-position="-175"
    slope="-9"
    unicode-range="U+000D-FB02"
  />
<missing-glyph horiz-adv-x="414" 
d="M-26 -230l294 97l174 913l-294 -97zM58 -161l21 32l69 45h-72l12 35h150l-6 -27h-43l-70 -45h98l-12 -37zM80 -23l32 104l148 11l-33 -104zM117 10l88 5l15 42l-88 -5zM108 152l32 102l30 11l-21 -73l87 -5l9 42l-29 3v-20l-31 -5v51l89 7l-19 -102zM129 289l21 31l117 9
l6 60l30 -6l-27 -91zM139 346l14 30l58 7l11 33l-56 3l-11 30l145 -3l2 -30l-60 -4l-16 -63zM196 512l30 3l8 33l-30 -3zM159 476l31 95l87 5l-16 -64l60 6l-15 -31zM180 608l20 30l58 3l-1 33l-56 4l11 32l146 3l-20 -32l-60 -3v-33l60 -4l-12 -30z" />
    <glyph glyph-name="fi" unicode="fi" horiz-adv-x="622" 
d="M-52 -241q-20 0 -37 2t-29 4l18 84q7 0 16 -1.5t19 -1.5q27 0 46.5 8t32 22.5t20.5 34.5t12 45l80 505l9 -15h-90l10 65l96 19l-17 -21l11 74q17 104 77.5 152t143.5 48q24 0 46.5 -3.5t43.5 -9.5l-23 -83q-12 4 -26.5 6t-29.5 2q-42 0 -73.5 -24.5t-39.5 -80.5l-13 -80
l-12 18l335 8l-80 -509l-42 76l122 -37l-11 -65l-192 -5l81 510l31 -59l-253 -1l13 15l-75 -477q-9 -58 -29 -100.5t-48.5 -70.5t-64.5 -41t-78 -13zM528 623q-26 0 -42 16t-16 47q0 37 21 61t58 24q27 0 43 -15.5t16 -48.5q0 -40 -23.5 -62t-56.5 -22z" />
    <glyph glyph-name="fl" unicode="fl" horiz-adv-x="630" 
d="M-53 -242q-19 0 -36 2.5t-30 4.5l19 84q9 -1 17.5 -2t16.5 -1q33 0 55 11t36 35t20 64l82 513l19 -24h-102l11 66l96 19l-19 -26l14 85q6 40 22 75.5t42.5 62t65.5 41.5t92 15q37 0 78 -7t85 -21l-71 8l158 9l-117 -744l-44 75l124 -37l-10 -65l-193 -5l112 709l25 -27
q-32 8 -64 13.5t-61 5.5q-33 0 -56 -8.5t-37 -23t-22 -32t-11 -35.5l-14 -95l-17 24h138l-13 -82h-138l24 24l-77 -485q-10 -66 -31.5 -109.5t-51.5 -69.5t-65 -36.5t-72 -10.5z" />
    <glyph glyph-name="f_f" unicode="ff" horiz-adv-x="672" 
d="M-53 -241q-19 0 -36 2t-29 4l18 84q9 -1 17.5 -2t17.5 -1q47 0 74 25t37 85l81 513l19 -23h-101l10 66l96 18l-17 -21l11 73q11 66 44.5 109.5t84.5 64.5t113 21q50 0 105.5 -13.5t110.5 -40.5l-73 -68q-35 19 -70 29t-66 10q-50 0 -85.5 -26t-44.5 -82l-14 -82l-16 24
h301l-12 -82h-303l24 23l-76 -484q-11 -67 -32.5 -110.5t-51.5 -69t-65 -36t-72 -10.5zM271 -241q-20 0 -37 2t-30 4l19 84q7 0 16 -1.5t19 -1.5q27 0 46.5 8t32 22.5t20 34.5t11.5 45l100 627q16 104 77 152t144 48q27 0 53 -4.5t52 -13.5l-29 -82q-15 6 -31.5 9t-33.5 3
q-42 0 -73.5 -24.5t-40.5 -80.5l-12 -80l-12 18h153l-14 -82h-149l14 15l-76 -477q-9 -58 -28.5 -100.5t-48.5 -70.5t-65 -41t-77 -13z" />
    <glyph glyph-name="f_f_i" unicode="ffi" horiz-adv-x="944" 
d="M-53 -242q-19 0 -36 2.5t-30 4.5l19 84q6 -1 14.5 -2t15.5 -1q38 0 61 12.5t36 37t18 60.5l82 513l19 -21h-102l11 66l96 18l-19 -27l13 78q12 67 46 110t85 64t111 21q50 0 105 -14t110 -41l-73 -68q-34 17 -69.5 27t-67.5 10q-48 0 -84 -25t-45 -80l-13 -83l-17 25h301
l-13 -82l-301 1l24 21l-77 -485q-9 -58 -29 -100.5t-48.5 -70.5t-64.5 -41.5t-78 -13.5zM270 -241q-20 0 -37 2t-30 4l19 84q7 0 16 -1.5t19 -1.5q27 0 46.5 8t32 22.5t20 34.5t11.5 45l100 627q16 104 77 152t144 48q23 0 45.5 -3.5t44.5 -9.5l-24 -83q-11 4 -25.5 6
t-30.5 2q-41 0 -72.5 -24.5t-40.5 -80.5l-12 -80l-32 19l355 7l-81 -509l-41 76l122 -37l-11 -65l-192 -5l81 510l31 -59h-254l14 17l-76 -480q-9 -58 -28.5 -100.5t-48.5 -70.5t-65 -41t-77 -13zM849 623q-25 0 -41.5 16t-16.5 47q0 37 21.5 61t58.5 24q26 0 42 -15.5
t16 -48.5q0 -40 -23.5 -62t-56.5 -22z" />
    <glyph glyph-name="f_f_l" unicode="ffl" horiz-adv-x="952" 
d="M-54 -242q-18 0 -35 2.5t-30 4.5l19 84q9 -1 17.5 -2t16.5 -1q47 0 74.5 25t36.5 85l82 513l19 -24h-102l11 66l95 19l-17 -21l12 73q10 66 44 109.5t85 64.5t112 21q51 0 106 -13.5t110 -40.5l-73 -68q-34 19 -69.5 29t-66.5 10q-49 0 -85 -26t-45 -82l-13 -82l-17 23
h268l-12 -82h-269l24 24l-77 -485q-10 -66 -31.5 -110t-51.5 -69.5t-65 -36t-73 -10.5zM269 -242q-19 0 -36 2.5t-30 4.5l19 84q9 -1 17.5 -2t17.5 -1q32 0 54 11t36 35t21 64l100 633q6 40 22 75.5t42.5 62t65.5 41.5t93 15q36 0 77 -7t86 -21l-71 8l158 9l-118 -744
l-43 75l124 -37l-11 -65l-193 -5l113 709l24 -27q-32 8 -64 13.5t-61 5.5q-33 0 -55.5 -8.5t-37 -23t-22.5 -32t-10 -35.5l-15 -95l-16 24h137l-13 -82h-138l24 24l-76 -485q-11 -66 -32.5 -109.5t-51.5 -69.5t-64.5 -36.5t-72.5 -10.5z" />
    <glyph glyph-name=".notdef" horiz-adv-x="414" 
d="M-26 -230l294 97l174 913l-294 -97zM58 -161l21 32l69 45h-72l12 35h150l-6 -27h-43l-70 -45h98l-12 -37zM80 -23l32 104l148 11l-33 -104zM117 10l88 5l15 42l-88 -5zM108 152l32 102l30 11l-21 -73l87 -5l9 42l-29 3v-20l-31 -5v51l89 7l-19 -102zM129 289l21 31l117 9
l6 60l30 -6l-27 -91zM139 346l14 30l58 7l11 33l-56 3l-11 30l145 -3l2 -30l-60 -4l-16 -63zM196 512l30 3l8 33l-30 -3zM159 476l31 95l87 5l-16 -64l60 6l-15 -31zM180 608l20 30l58 3l-1 33l-56 4l11 32l146 3l-20 -32l-60 -3v-33l60 -4l-12 -30z" />
    <glyph glyph-name=".null" 
 />
    <glyph glyph-name="nonmarkingreturn" horiz-adv-x="333" 
 />
    <glyph glyph-name="NULL" 
 />
    <glyph glyph-name="NULL" 
 />
    <glyph glyph-name="CR" unicode="&#xd;" horiz-adv-x="182" 
 />
    <glyph glyph-name="space" unicode=" " horiz-adv-x="182" 
 />
    <glyph glyph-name="exclam" unicode="!" horiz-adv-x="315" 
d="M109 237l54 465h125l-92 -459zM118 -8q-31 0 -47.5 17.5t-16.5 45.5q0 34 22.5 55.5t55.5 21.5q29 0 47 -17t18 -47q0 -35 -23 -55.5t-56 -20.5z" />
    <glyph glyph-name="quotedbl" unicode="&#x22;" horiz-adv-x="405" 
d="M119 510l23 262h107l-59 -262h-71zM293 510l23 262h107l-59 -262h-71z" />
    <glyph glyph-name="numbersign" unicode="#" horiz-adv-x="641" 
d="M103 527h531l-12 -75h-531zM24 258h530l-11 -75h-531zM257 702h96l-206 -702h-96zM497 702h96l-207 -702h-96z" />
    <glyph glyph-name="dollar" unicode="$" horiz-adv-x="604" 
d="M240 0q-50 0 -102.5 11t-101.5 32l31 180h71l1 -123l-11 21q30 -14 62.5 -21t64.5 -7q42 0 77.5 13t57 38.5t21.5 62.5q0 31 -16.5 49.5t-43 30t-58 21t-63.5 20.5t-58.5 29.5t-42.5 49t-16 78.5q0 71 36 119.5t96.5 73t134.5 24.5q49 0 100 -11t100 -32l-34 -168h-70
l-1 111l14 -13q-26 11 -55.5 16.5t-57.5 5.5q-39 0 -72 -11.5t-52.5 -34.5t-19.5 -56q0 -30 16 -47t43 -27.5t58.5 -19.5t63.5 -20.5t59 -31t43 -50.5t16 -81q0 -77 -40.5 -128.5t-106.5 -77.5t-144 -26zM198 -133l25 157h82l-24 -157h-83zM326 676l24 153h82l-24 -152z" />
    <glyph glyph-name="percent" unicode="%" horiz-adv-x="830" 
d="M93 -12l569 725h99l-568 -725h-100zM224 349q-67 0 -102.5 38.5t-35.5 109.5q0 61 24.5 110t69 77.5t106.5 28.5q67 0 102.5 -37.5t35.5 -107.5q0 -60 -24.5 -110t-69 -79.5t-106.5 -29.5zM232 416q36 0 59.5 22t35.5 57.5t12 73.5q0 39 -13.5 58t-46.5 19
q-36 0 -60.5 -22t-36 -56t-11.5 -72q0 -40 14.5 -60t46.5 -20zM572 -11q-68 0 -103.5 38.5t-35.5 109.5q0 61 24.5 110t69.5 78t106 29q67 0 102.5 -37.5t35.5 -108.5q0 -59 -24.5 -109t-69 -80t-105.5 -30zM580 57q35 0 59 21.5t35.5 57t11.5 74.5t-13.5 57.5t-45.5 18.5
q-37 0 -61 -22t-36 -56t-12 -72q0 -40 14.5 -59.5t47.5 -19.5z" />
    <glyph glyph-name="ampersand" unicode="&#x26;" horiz-adv-x="679" 
d="M270 -11q-98 0 -154.5 46t-56.5 131q0 60 27 106t76 74t113 33l2 -14q-74 10 -110.5 50t-36.5 99q0 61 35 105.5t96 69t141 24.5q49 0 98 -9.5t95 -28.5l-32 -154h-75l-2 97l20 -17q-58 20 -111 20q-67 0 -105 -29.5t-38 -83.5q0 -47 31 -70.5t88 -23.5h289l-11 -66
l-85 -22l17 22l-21 -132q-12 -75 -53.5 -125.5t-103 -76t-133.5 -25.5zM298 86q55 0 94 31t50 98l20 127l19 -17h-140q-46 0 -81 -17.5t-54 -49t-19 -71.5q0 -50 30.5 -75.5t80.5 -25.5z" />
    <glyph glyph-name="quotesingle" unicode="'" horiz-adv-x="231" 
d="M119 510l23 262h107l-59 -262h-71z" />
    <glyph glyph-name="parenleft" unicode="(" horiz-adv-x="305" 
d="M370 832q-69 -82 -120.5 -179t-79.5 -201.5t-28 -209.5q0 -85 19.5 -170t60.5 -162l-79 -41q-56 87 -83.5 186t-27.5 201q0 118 33.5 230t93.5 213.5t141 185.5z" />
    <glyph glyph-name="parenright" unicode=")" horiz-adv-x="305" 
d="M-31 -85q70 83 121.5 180t79.5 201.5t28 209.5q0 85 -19 170t-61 162l79 41q57 -87 84 -186t27 -201q0 -117 -33.5 -229.5t-93.5 -214t-141 -185.5z" />
    <glyph glyph-name="asterisk" unicode="*" horiz-adv-x="431" 
d="M300 437l-52 112l13 37l34 -5l66 -100zM167 436l-55 44l97 103l36 3l3 -37zM211 583l-120 25l34 72l108 -44l10 -35zM259 612l-23 24l8 123l71 2l-25 -125zM297 581l-26 22l17 33l119 46l12 -72z" />
    <glyph glyph-name="plus" unicode="+" horiz-adv-x="543" 
d="M268 394l-23 -21l34 218h89l-33 -218l-17 21h201l-14 -88h-203l23 21l-33 -219h-90l34 219l16 -21h-201l13 88h204z" />
    <glyph glyph-name="comma" unicode="," horiz-adv-x="241" 
d="M20 53q0 26 11.5 44t28.5 26.5t35 8.5q25 0 43.5 -16t18.5 -49q0 -35 -19.5 -73t-53.5 -79t-80 -83l-41 34q30 37 45.5 59.5t21.5 37t6 23.5q0 11 -4 19.5t-8 20t-4 27.5z" />
    <glyph glyph-name="hyphen" unicode="-" horiz-adv-x="408" 
d="M362 340l-14 -93h-293l14 93h293z" />
    <glyph glyph-name="period" unicode="." horiz-adv-x="244" 
d="M82 -8q-30 0 -47 17.5t-17 45.5q0 34 22.5 55.5t55.5 21.5q29 0 47 -17t18 -47q0 -35 -23 -55.5t-56 -20.5z" />
    <glyph glyph-name="slash" unicode="/" horiz-adv-x="316" 
d="M407 806l-384 -889h-84l383 889h85z" />
    <glyph glyph-name="zero" unicode="0" horiz-adv-x="627" 
d="M265 -11q-66 0 -112 25.5t-69.5 83t-23.5 151.5q0 54 9 117t31 124.5t59.5 111.5t95 80.5t137.5 30.5q99 0 150.5 -57.5t51.5 -195.5q0 -56 -9 -120t-31 -126t-60 -113t-94 -81.5t-135 -30.5zM280 84q45 0 78 28.5t55 74.5t35.5 99t19 103.5t5.5 86.5q0 54 -11.5 85
t-33 44t-51.5 13q-47 0 -80.5 -27t-56 -71t-35.5 -95t-18.5 -100t-5.5 -86q0 -86 26.5 -120.5t72.5 -34.5z" />
    <glyph glyph-name="one" unicode="1" horiz-adv-x="418" 
d="M269 58l-18 32l121 -26l-10 -64h-349l10 64l155 30l-29 -36l87 541l33 -2l-177 -95l-28 76l208 128h100z" />
    <glyph glyph-name="two" unicode="2" horiz-adv-x="548" 
d="M1 0l16 108q52 40 107 82t105 85t89.5 86t63 85.5t23.5 83.5q0 47 -29 68t-76 21q-26 0 -57 -6.5t-63 -16.5l18 22l-33 -115h-73l15 174q58 17 113 26.5t105 9.5q60 0 107 -16t74 -51t27 -93q0 -53 -22 -103t-60 -98.5t-87 -94.5t-103.5 -90t-107.5 -85l3 17h325l-17 -99
h-463z" />
    <glyph glyph-name="three" unicode="3" horiz-adv-x="558" 
d="M208 -11q-58 0 -110.5 15t-97.5 43l42 86q77 -45 162 -45q49 0 87.5 17t61 48.5t22.5 73.5q0 35 -15.5 55t-44.5 29.5t-66 9.5h-82l14 89h80q74 0 112 37t38 91q0 48 -28.5 66t-71.5 18q-31 0 -65 -6.5t-64 -16.5l17 18l-29 -108h-71l15 165q59 19 117 29t107 10
q57 0 101.5 -14.5t70 -48t25.5 -90.5q0 -83 -53 -134t-140 -61l-9 10q85 -6 124 -43t39 -105q0 -70 -37.5 -124t-102 -84t-148.5 -30z" />
    <glyph glyph-name="four" unicode="4" horiz-adv-x="573" 
d="M321 187l26 -26h-337l-1 87l383 467l131 -13l-74 -468l-26 23h133l-15 -96h-134l35 26l-30 -187h-120zM366 257l-37 -23l65 409l38 -7l-343 -423l-14 44h291z" />
    <glyph glyph-name="five" unicode="5" horiz-adv-x="535" 
d="M211 -11q-50 0 -102 13t-105 41l42 85q37 -19 75 -29t72 -10q49 0 87 19.5t60 54.5t22 77q0 38 -15.5 58t-42 28.5t-59 9.5t-66.5 1h-90l72 365h370l-17 -96h-285l37 22l-45 -227l-27 27h54q24 0 55.5 -1.5t64.5 -9.5t61 -27t45 -52.5t17 -87.5q0 -74 -35.5 -133.5
t-98.5 -93.5t-146 -34z" />
    <glyph glyph-name="six" unicode="6" horiz-adv-x="584" 
d="M169 286l2 85q49 30 97.5 44t92.5 14q51 0 93 -18.5t66.5 -58.5t24.5 -103q0 -76 -36 -135t-97 -92t-137 -33q-47 0 -88 14.5t-72 45t-48 80t-17 119.5q0 71 18.5 138.5t54 126.5t85.5 104.5t113.5 71t139.5 25.5q51 0 102 -13l-17 -94q-22 5 -42 7t-39 2q-57 0 -103 -20
t-81 -55.5t-58.5 -82.5t-35.5 -102t-12 -113q0 -60 13 -94.5t36 -49t53 -14.5q42 0 74 21.5t50 57.5t18 79q0 55 -28 77t-71 22q-37 0 -77.5 -14.5t-73.5 -41.5z" />
    <glyph glyph-name="seven" unicode="7" horiz-adv-x="515" 
d="M552 614l-349 -614h-135l359 622l15 -19h-297l30 19l-41 -120h-73l31 200h473z" />
    <glyph glyph-name="eight" unicode="8" horiz-adv-x="589" 
d="M245 -11q-56 0 -104 18.5t-77.5 56t-29.5 93.5q0 51 25 94t70.5 75t108.5 46l70 -37q-43 -12 -78.5 -34.5t-56.5 -53.5t-21 -71q0 -48 30.5 -72.5t77.5 -24.5q41 0 75.5 16.5t55.5 45.5t21 64q0 37 -22 59.5t-57 37.5t-74 29.5t-73.5 34.5t-56.5 52.5t-22 83.5t22 90
t59 66.5t84 41t96 13.5q53 0 98.5 -17t73.5 -51.5t28 -89.5q0 -52 -25.5 -90.5t-68.5 -63t-95 -37.5l-87 37q41 7 77.5 25.5t60 47.5t23.5 68q0 29 -13.5 47.5t-35.5 26.5t-48 8q-35 0 -65.5 -14t-49.5 -38.5t-19 -57.5q0 -36 22.5 -58t57.5 -36.5t74 -28.5t74 -34.5t57 -53
t22 -84.5t-23.5 -94.5t-64 -73t-91 -46.5t-105.5 -16z" />
    <glyph glyph-name="nine" unicode="9" horiz-adv-x="585" 
d="M443 419l-3 -84q-48 -30 -96.5 -45t-93.5 -15q-51 0 -93 19t-66 58.5t-24 100.5q0 56 21 104t58.5 83t87 54t106.5 19q44 0 84.5 -14t71.5 -44t48.5 -79t17.5 -120q0 -74 -20 -143t-56.5 -127.5t-87 -102.5t-113 -68.5t-133.5 -24.5q-25 0 -51 3t-53 10l18 96
q21 -5 40.5 -7t36.5 -2q59 0 106 20.5t82 57t58.5 84t35 102t11.5 110.5q0 59 -12 92t-35 47t-54 14q-46 0 -78 -23t-48.5 -59t-16.5 -75q0 -55 29.5 -76.5t70.5 -21.5q37 0 77.5 14.5t73.5 42.5z" />
    <glyph glyph-name="colon" unicode=":" horiz-adv-x="244" 
d="M137 335q-30 0 -47 17.5t-17 45.5q0 34 22.5 55.5t55.5 21.5q29 0 47 -17t18 -47q0 -35 -23 -55.5t-56 -20.5zM82 -8q-30 0 -47 17.5t-17 45.5q0 34 22.5 55.5t55.5 21.5q29 0 47 -17t18 -47q0 -35 -23 -55.5t-56 -20.5z" />
    <glyph glyph-name="semicolon" unicode=";" horiz-adv-x="244" 
d="M21 53q0 26 11.5 44t28.5 26.5t35 8.5q25 0 43.5 -16t18.5 -49q0 -35 -19.5 -73t-53.5 -79t-80 -83l-41 34q30 37 45.5 59.5t21.5 37t6 23.5q0 11 -4 19.5t-8 20t-4 27.5zM137 335q-30 0 -47 17.5t-17 45.5q0 34 22.5 55.5t55.5 21.5q29 0 47 -17t18 -47q0 -35 -23 -55.5
t-56 -20.5z" />
    <glyph glyph-name="less" unicode="&#x3c;" horiz-adv-x="519" 
d="M434 138l-381 170l13 91l420 177l30 -89l-369 -150l2 24l323 -137z" />
    <glyph glyph-name="equal" unicode="=" horiz-adv-x="659" 
d="M585 489l-14 -88h-439l14 88h439zM553 292l-14 -88h-439l14 88h439z" />
    <glyph glyph-name="greater" unicode="&#x3e;" horiz-adv-x="519" 
d="M114 576l381 -170l-14 -91l-420 -177l-29 89l368 150l-2 -24l-323 137z" />
    <glyph glyph-name="question" unicode="?" horiz-adv-x="422" 
d="M108 243q1 8 0.5 17.5t-0.5 22.5q4 46 26 78t52.5 56t60.5 45t50 44.5t20 56.5t-21.5 46.5t-53.5 13.5q-29 0 -64 -8.5t-65 -19.5l-21 82q45 18 92.5 28t90.5 10q46 0 83.5 -12.5t59.5 -40.5t22 -76q0 -42 -16 -72.5t-42.5 -54.5t-56.5 -46t-57 -43t-45.5 -46t-21.5 -57
q0 -6 -1 -12l-2 -12h-90zM130 -8q-30 0 -47 17.5t-17 45.5q0 34 22.5 55.5t56.5 21.5q29 0 46.5 -17t17.5 -47q0 -35 -23 -55.5t-56 -20.5z" />
    <glyph glyph-name="at" unicode="@" horiz-adv-x="870" 
d="M340 -111q-85 0 -148 34.5t-98 103t-35 168.5q0 95 32 178.5t91 147.5t140 100t181 36q94 0 165.5 -35t112 -102.5t40.5 -167.5q0 -59 -14.5 -111t-41.5 -92t-65 -63t-86 -23q-57 0 -85 32.5t-28 89.5l33 69q-14 -60 -43 -101.5t-64.5 -61.5t-69.5 -20q-42 0 -74 34.5
t-32 112.5q0 72 29.5 131.5t80 95t113.5 35.5q30 0 62 -10t64 -33l-41 7l19 27l45 -3l-44 -267q-3 -27 4 -47t34 -20q25 0 45.5 18t35 49t22 69t7.5 78q0 48 -12.5 90t-39.5 73t-70.5 48.5t-105.5 17.5q-84 0 -148.5 -32t-108.5 -86t-66.5 -122.5t-22.5 -141.5
q0 -111 51.5 -169t148.5 -58q36 0 74 8t77 22l20 -73q-47 -18 -94 -27t-90 -9zM394 144q20 0 38.5 14t34 37t27 53.5t16.5 63.5l16 103l21 -30q-20 14 -38.5 20.5t-36.5 6.5q-37 0 -66.5 -26t-46.5 -68t-17 -91q0 -41 14 -62t38 -21z" />
    <glyph glyph-name="A" unicode="A" horiz-adv-x="683" 
d="M594 60l-26 29l76 -26l-10 -63h-258l11 63l86 24l-7 -19l-21 140l9 -17h-265l19 16l-67 -138l-2 16l80 -22l-10 -63h-245l10 63l85 25l-34 -25l328 638l124 3zM232 260l-6 19h223l-10 -22l-55 377l29 -1z" />
    <glyph glyph-name="B" unicode="B" horiz-adv-x="635" 
d="M374 348l5 17q98 0 146.5 -35t48.5 -111q0 -67 -35 -116.5t-99 -76t-151 -26.5h-286l10 63l91 24l-18 -18l89 562l14 -20l-86 23l10 63l189 5h101q26 0 53.5 -3.5t53.5 -12.5t46.5 -25.5t32 -43.5t11.5 -64q0 -61 -28.5 -105t-80 -69.5t-117.5 -30.5zM371 614h-99l24 20
l-40 -255l-15 22h73q30 0 59 6.5t52.5 21t38 39t14.5 59.5q0 34 -13 52.5t-36.5 26.5t-57.5 8zM287 89q78 0 119.5 36.5t41.5 96.5q0 35 -13.5 54.5t-37 28.5t-52.5 9h-119l24 27l-44 -275l-23 23h104z" />
    <glyph glyph-name="C" unicode="C" horiz-adv-x="617" 
d="M307 -11q-68 0 -124.5 31.5t-90.5 97t-34 164.5q0 83 25.5 160.5t72.5 138.5t114 96.5t150 35.5q49 0 101 -13t106 -39l-33 -170h-72l-3 117l21 -19q-32 14 -64 21t-59 7q-56 0 -99 -29.5t-73 -78t-45 -107t-15 -115.5q0 -70 20 -113t54.5 -63.5t76.5 -20.5
q41 0 86.5 18.5t88.5 54.5l40 -76q-58 -49 -121.5 -73.5t-122.5 -24.5z" />
    <glyph glyph-name="D" unicode="D" horiz-adv-x="705" 
d="M404 702q88 0 148.5 -29t91 -89t30.5 -154q0 -86 -25.5 -163.5t-75.5 -137.5t-122 -94.5t-166 -34.5h-282l10 63l91 24l-18 -18l90 562l13 -20l-86 23l10 63l207 5h84zM306 90q50 0 89.5 22.5t68 60t47 83.5t27.5 93.5t9 88.5q0 57 -17 95.5t-53 58.5t-92 20h-112l23 22
l-90 -568l-14 24h114z" />
    <glyph glyph-name="E" unicode="E" horiz-adv-x="599" 
d="M455 181h72l-29 -181h-495l10 63l91 24l-18 -18l89 562l14 -20l-86 23l10 63l192 5h293l-27 -173h-71l-4 101l20 -18h-243l23 19l-40 -250l-14 21h235l-14 -88h-237l23 24l-43 -272l-14 24h255l-28 -20z" />
    <glyph glyph-name="F" unicode="F" horiz-adv-x="550" 
d="M3 0l10 63l91 24l-18 -18l89 562l14 -20l-86 23l10 63l192 5h287l-27 -175h-71l-3 99l19 -14h-237l23 19l-41 -259l-15 25h229l-13 -91h-232l23 22l-41 -259l-10 18l102 -24l-9 -63h-286z" />
    <glyph glyph-name="G" unicode="G" horiz-adv-x="706" 
d="M319 -11q-79 0 -137.5 30.5t-91 94t-32.5 164.5q0 89 26.5 168t76 139t119 94t155.5 34q55 0 110.5 -13.5t113.5 -39.5l-33 -171h-71l-4 118l19 -18q-34 15 -66 21.5t-60 6.5q-59 0 -107 -26.5t-82 -73t-52 -108t-18 -132.5q0 -69 18 -110.5t52 -60.5t82 -19q33 0 69.5 8
t76.5 22l-16 -29l28 196l17 -21l-90 17l10 65l259 5l-10 -66l-89 -22l15 22l-34 -235q-70 -31 -134.5 -45.5t-119.5 -14.5z" />
    <glyph glyph-name="H" unicode="H" horiz-adv-x="766" 
d="M3 0l10 63l91 24l-18 -18l90 562l13 -20l-86 23l10 63l270 5l-10 -63l-93 -28l16 20l-39 -246l-14 18h326l-23 -18l39 246l13 -20l-86 23l10 63l270 5l-10 -63l-93 -28l16 20l-89 -562l-9 18l83 -24l-10 -63h-268l9 63l91 24l-17 -18l42 263l15 -19h-325l22 18l-42 -262
l-8 18l82 -24l-10 -63h-268z" />
    <glyph glyph-name="I" unicode="I" horiz-adv-x="356" 
d="M373 639l-93 -28l16 19l-89 -561l-8 18l82 -24l-10 -63h-268l10 63l91 24l-18 -18l89 560l14 -18l-86 23l10 63l270 5z" />
    <glyph glyph-name="J" unicode="J" horiz-adv-x="338" 
d="M102 697l273 5l-10 -63l-92 -28l16 20l-90 -566q-8 -48 -23.5 -89t-42 -71.5t-65.5 -47t-93 -16.5q-32 0 -66 6l20 89q8 -1 16.5 -2t17.5 -1q35 0 56 11t32 27.5t16 35t7 32.5l94 592l14 -20l-90 23z" />
    <glyph glyph-name="K" unicode="K" horiz-adv-x="695" 
d="M589 62l-29 25l86 -24l-10 -63h-154l-160 338l28 -24h-122l22 26l-43 -271l-10 19l82 -25l-10 -63h-266l10 63l92 24l-19 -18l90 562l13 -20l-86 23l10 63l267 5l-10 -62l-92 -28l20 28l-41 -257l-14 21h129l-37 -20l189 251l11 -19l-80 18l9 63l252 5l-9 -63l-92 -26
l31 21l-220 -286l-1 34z" />
    <glyph glyph-name="L" unicode="L" horiz-adv-x="541" 
d="M433 202h72l-32 -202h-470l10 63l91 24l-18 -18l90 561l13 -19l-86 23l10 63l276 5l-10 -63l-99 -28l16 20l-90 -568l-13 27h221l-22 -20z" />
    <glyph glyph-name="M" unicode="M" horiz-adv-x="853" 
d="M870 639l-94 -28l17 23l-89 -565l-8 18l82 -24l-9 -63h-259l9 63l98 26l-25 -26l81 506l19 -2l-249 -384l-76 -5l-125 391l22 1l-80 -501l-8 18l83 -24l-10 -63h-246l10 63l95 25l-22 -19l90 562l14 -20l-87 23l10 63l213 5l119 -400h-19l244 395l210 5z" />
    <glyph glyph-name="N" unicode="N" horiz-adv-x="752" 
d="M542 697l245 5l-10 -63l-89 -28l16 20l-101 -631h-129l-223 570l14 1l-80 -502l-8 18l81 -24l-10 -63h-245l10 63l91 24l-18 -18l90 562l13 -20l-86 23l10 63l212 5l217 -559l-15 -1l78 489l13 -20l-86 23z" />
    <glyph glyph-name="O" unicode="O" horiz-adv-x="720" 
d="M316 -11q-82 0 -139.5 32t-88 95t-30.5 155q0 62 14 125t43.5 120t74 101.5t105 70t136.5 25.5q83 0 141 -32t88 -94.5t30 -154.5q0 -60 -14 -123t-43 -120t-73.5 -102.5t-105 -71.5t-138.5 -26zM327 85q49 0 87 22.5t66 60t47 83.5t28 94t9 90q0 64 -18.5 104t-50.5 59
t-75 19q-48 0 -86 -22t-66 -59.5t-46.5 -83t-27.5 -93t-9 -90.5q0 -64 18 -104.5t50.5 -60t73.5 -19.5z" />
    <glyph glyph-name="P" unicode="P" horiz-adv-x="592" 
d="M296 254h-85l29 23l-33 -208l-8 18l101 -24l-10 -63h-287l10 63l91 24l-18 -18l90 562l13 -20l-86 23l10 63l197 5h89q106 0 153 -46.5t47 -130.5q0 -79 -37 -140t-105 -96t-161 -35zM365 612h-87l19 22l-50 -311l-16 22h69q57 0 95.5 22.5t58.5 61t20 84.5
q0 48 -25 73.5t-84 25.5z" />
    <glyph glyph-name="Q" unicode="Q" horiz-adv-x="722" 
d="M578 -188q-41 0 -82.5 22t-93 64.5t-125.5 103.5l24 -13q-76 4 -130.5 36.5t-83.5 94.5t-29 151q0 62 14 125t43.5 119.5t74 101t104.5 70.5t137 26q82 0 140 -32t88.5 -94.5t30.5 -154.5q0 -69 -18.5 -140t-56 -133t-94.5 -105t-134 -57l-2 18q48 -34 82 -57t60.5 -34.5
t52.5 -11.5q24 0 50 9.5t60 28.5l41 -78q-47 -30 -84 -45t-69 -15zM327 84q49 0 87.5 22.5t67 60.5t47 84t27.5 93.5t9 89.5q0 65 -18.5 105t-51 59t-75.5 19q-49 0 -87.5 -22.5t-66.5 -59.5t-46.5 -83t-27.5 -93.5t-9 -89.5q0 -65 18 -106t51 -60t75 -19z" />
    <glyph glyph-name="R" unicode="R" horiz-adv-x="645" 
d="M3 0l10 63l91 24l-18 -18l90 562l13 -20l-86 23l10 63l200 5h91q204 0 204 -163q0 -65 -29.5 -114.5t-82 -79.5t-121.5 -36l-2 20q53 -1 79 -30.5t41 -73.5l53 -157l-30 23l78 -28l-10 -63h-142l-57 199q-13 45 -25.5 64.5t-31 25t-49.5 4.5l-56 -1l24 20l-40 -243l-8 18
l93 -24l-10 -63h-279zM253 352l-14 28h72q54 0 92 20t58.5 53.5t20.5 73.5q0 32 -11.5 49.5t-28.5 25t-34.5 9t-29.5 1.5h-100l19 23z" />
    <glyph glyph-name="S" unicode="S" horiz-adv-x="585" 
d="M231 -11q-50 0 -102.5 10.5t-101.5 31.5l31 181h71l2 -123l-12 21q30 -14 62.5 -21t64.5 -7q42 0 77 12.5t57 38t22 61.5q0 37 -21.5 58t-55.5 36t-72 29t-72.5 35t-55.5 55t-21 89q0 72 36.5 119.5t97.5 72.5t133 25q49 0 100 -11t100 -33l-34 -167h-70l-1 111l15 -14
q-27 11 -56.5 17t-57.5 6q-38 0 -71 -11.5t-53 -34t-20 -55.5q0 -34 21.5 -54t55.5 -34t72.5 -28.5t72.5 -35.5t55.5 -56.5t21.5 -92.5q0 -77 -40 -128t-106 -77t-145 -26z" />
    <glyph glyph-name="T" unicode="T" horiz-adv-x="589" 
d="M108 0l9 63l104 24l-18 -18l90 563l20 -20h-165l30 24l-42 -126h-72l31 192h538l-31 -192h-71l-4 122l23 -20h-167l30 20l-89 -563l-8 18l94 -24l-10 -63h-292z" />
    <glyph glyph-name="U" unicode="U" horiz-adv-x="724" 
d="M498 697l270 5l-10 -63l-93 -28l16 20l-57 -363q-15 -96 -52 -157.5t-99.5 -91.5t-153.5 -30q-115 0 -171 49t-56 148q0 18 1.5 37t5.5 40l59 368l11 -19l-84 22l10 63l266 5l-10 -63l-89 -28l16 20l-60 -376q-3 -18 -4.5 -35t-1.5 -31q0 -54 26 -79t88 -25q59 0 94 21.5
t55 64.5t29 104l57 356l13 -20l-85 23z" />
    <glyph glyph-name="V" unicode="V" horiz-adv-x="692" 
d="M235 -1l-106 634l26 -22l-90 23l10 63l278 5l-8 -63l-100 -26l19 31l70 -535h-17l256 528l6 -25l-89 22l10 63l254 5l-9 -63l-94 -25l33 22l-321 -637h-128z" />
    <glyph glyph-name="W" unicode="W" horiz-adv-x="989" 
d="M802 697l249 5l-10 -63l-93 -25l34 33l-276 -648h-114l-68 552l24 -1l-243 -551h-113l-63 638l9 -21l-72 18l9 63l261 5l-10 -63l-93 -26l19 24l35 -525l-24 1l250 585l110 4l64 -587l-25 -1l209 523l10 -23l-89 20z" />
    <glyph glyph-name="X" unicode="X" horiz-adv-x="688" 
d="M590 61l-33 26l78 -24l-9 -63h-269l10 63l86 24l-2 -21l-126 241h31l-207 -246l-2 28l84 -26l-10 -63h-241l10 63l86 25l-40 -28l268 310l-2 -24l-159 290l23 -19l-75 17l10 63l266 5l-9 -63l-84 -25l7 19l114 -219l-24 4l179 215l5 -21l-81 22l9 63l239 5l-10 -63
l-85 -28l37 25l-250 -289l3 31z" />
    <glyph glyph-name="Y" unicode="Y" horiz-adv-x="632" 
d="M140 0l9 63l94 24l-17 -18l33 206l7 -44l-144 401l18 -18l-76 20l10 63l262 5l-10 -63l-95 -23l10 22l105 -322h-25l204 317l8 -22l-88 23l10 63l240 5l-9 -63l-79 -21l25 17l-270 -404l16 44l-32 -206l-8 18l85 -24l-10 -63h-273z" />
    <glyph glyph-name="Z" unicode="Z" horiz-adv-x="600" 
d="M0 0l9 83l461 538l11 -11h-306l31 15l-38 -107h-72l29 184h486l-10 -87l-459 -543l-3 20h322l-30 -18l37 111h73l-31 -185h-510z" />
    <glyph glyph-name="bracketleft" unicode="[" horiz-adv-x="332" 
d="M13 -108l154 965l232 -5l-12 -75l-133 -6l-126 -792l132 -7l-12 -75z" />
    <glyph glyph-name="backslash" unicode="\" horiz-adv-x="318" 
d="M79 806h84l106 -889h-83z" />
    <glyph glyph-name="bracketright" unicode="]" horiz-adv-x="332" 
d="M353 857l-154 -965l-232 5l12 75l133 7l126 792l-132 6l12 75z" />
    <glyph glyph-name="asciicircum" unicode="^" horiz-adv-x="502" 
d="M35 532l237 344h85l129 -344h-106l-100 297h56l-194 -297h-107z" />
    <glyph glyph-name="underscore" unicode="_" horiz-adv-x="473" 
d="M422 -64l-13 -79h-474l12 79h475z" />
    <glyph glyph-name="grave" unicode="`" horiz-adv-x="385" 
d="M190 829l194 -160l-43 -60l-212 132z" />
    <glyph glyph-name="a" unicode="a" horiz-adv-x="589" 
d="M175 -11q-39 0 -72 21t-52.5 64.5t-19.5 113.5q0 74 22.5 138t63.5 113t96 77t119 28q41 0 84.5 -13.5t87.5 -44.5l-53 10l25 36h64l-80 -505l-41 76l122 -37l-10 -65l-180 -6l31 183l34 61q-18 -83 -58.5 -138.5t-89 -83.5t-93.5 -28zM222 85q23 0 48.5 14.5t48.5 44
t41.5 72.5t27.5 101l23 139l19 -39q-26 19 -51 27.5t-50 8.5q-39 0 -71.5 -20.5t-56.5 -56t-37 -80.5t-13 -94q0 -61 20 -89t51 -28z" />
    <glyph glyph-name="b" unicode="b" horiz-adv-x="575" 
d="M36 14l115 729l42 -73l-122 36l10 64l193 6l-70 -410l-43 -72q20 84 58.5 139.5t86.5 83t94 27.5q39 0 71 -20t52 -65.5t20 -120.5q0 -107 -43 -185.5t-120.5 -121t-181.5 -42.5q-76 0 -162 25zM161 65l-24 34q24 -10 47.5 -14t43.5 -4q60 0 103.5 31t67 86.5t23.5 127.5
q0 66 -19.5 94t-50.5 28q-23 0 -48.5 -14.5t-49 -44t-42 -72.5t-27.5 -101z" />
    <glyph glyph-name="c" unicode="c" horiz-adv-x="484" 
d="M230 -11q-56 0 -101 24t-71 73.5t-26 126.5q0 71 23 131.5t63.5 105t94 69t114.5 24.5q37 0 76.5 -10t78.5 -31l-22 -139h-78l-2 86l11 -14q-40 21 -76 21q-37 0 -67.5 -19.5t-51.5 -53.5t-32.5 -76t-11.5 -87q0 -75 29 -108t75 -33q29 0 61.5 11t67.5 31l33 -73
q-47 -29 -95.5 -44t-92.5 -15z" />
    <glyph glyph-name="d" unicode="d" horiz-adv-x="590" 
d="M175 -11q-39 0 -72 21t-52.5 64.5t-19.5 113.5q0 74 22.5 138t63.5 113t96 77t119 28q41 0 84.5 -13.5t87.5 -44.5l-85 23l37 233l42 -72l-123 37l10 63l194 6l-119 -749l-41 76l122 -37l-10 -65l-180 -6l31 183l35 61q-19 -83 -59 -138.5t-89 -83.5t-94 -28zM222 85
q23 0 48 14.5t48.5 44t42 72.5t27.5 101l22 135l20 -35q-26 19 -51 27.5t-50 8.5q-39 0 -71.5 -20.5t-56.5 -56t-37 -80.5t-13 -94q0 -61 20 -89t51 -28z" />
    <glyph glyph-name="e" unicode="e" horiz-adv-x="513" 
d="M233 -11q-56 0 -101.5 22.5t-72 70.5t-26.5 125q0 64 20 124t58 108t92.5 76t123.5 28q81 0 126.5 -37t45.5 -97q0 -46 -27.5 -81.5t-74.5 -60t-105 -36.5t-120 -12h-19t-17 1l7 79q11 -1 22.5 -2t23.5 -1q35 0 69.5 6.5t62.5 19t45 31.5t17 44q0 27 -19 44t-53 17
q-38 0 -68.5 -22.5t-51 -59.5t-31.5 -80.5t-11 -86.5q0 -70 29.5 -102t80.5 -32q34 0 72.5 12t78.5 34l30 -69q-51 -31 -104 -47t-103 -16z" />
    <glyph glyph-name="f" unicode="f" horiz-adv-x="349" 
d="M-52 -241q-20 0 -37 2t-29 4l18 84q7 0 16 -1.5t19 -1.5q27 0 46.5 8t32 22.5t20.5 34.5t12 45l80 505l9 -15h-90l10 65l96 19l-17 -21l11 74q17 104 77.5 152t143.5 48q25 0 52 -4t54 -14l-29 -82q-16 6 -33 9t-33 3q-42 0 -73.5 -24.5t-39.5 -80.5l-13 -80l-12 18h147
l-14 -82h-142l13 15l-75 -477q-9 -58 -29 -100.5t-48.5 -70.5t-64.5 -41t-78 -13z" />
    <glyph glyph-name="g" unicode="g" horiz-adv-x="574" 
d="M185 -241q-47 0 -94.5 9.5t-90.5 23.5l24 85q42 -15 83 -22.5t74 -7.5q46 0 76.5 13.5t49.5 35.5t29 49.5t15 54.5l27 178l39 61q-19 -83 -59 -138.5t-89 -83.5t-94 -28q-39 0 -72 21t-52.5 64.5t-19.5 113.5q0 73 22.5 137.5t63.5 113.5t96 76.5t119 27.5
q41 0 84.5 -13.5t87.5 -43.5l-51 12l23 34h64l-83 -530q-11 -68 -36.5 -115t-62 -75t-81 -40.5t-92.5 -12.5zM222 85q23 0 48.5 14.5t48.5 44t41.5 72.5t27.5 101l23 139l19 -39q-26 19 -51 27.5t-50 8.5q-39 0 -71.5 -20.5t-56.5 -56t-37 -80.5t-13 -94q0 -61 20 -89
t51 -28z" />
    <glyph glyph-name="h" unicode="h" horiz-adv-x="597" 
d="M350 -4l56 339q6 35 1.5 60.5t-17.5 39.5t-37 14q-23 0 -48.5 -14t-49 -42t-41.5 -71t-27 -102l-35 -220h-118l112 705l15 -22l-88 21l10 65l191 7l-73 -419l-45 -63q23 89 64 143.5t90 80t94 25.5t75.5 -22t43.5 -62.5t4 -97.5l-47 -295l-50 37l124 -37l-11 -65z" />
    <glyph glyph-name="i" unicode="i" horiz-adv-x="300" 
d="M49 -4l80 507l43 -74l-122 37l10 63l192 7l-81 -509l-40 75l120 -38l-10 -63zM209 623q-30 0 -47 18t-17 48q0 36 22.5 59t57.5 23q29 0 46.5 -17.5t17.5 -48.5q0 -35 -22 -58.5t-58 -23.5z" />
    <glyph glyph-name="j" unicode="j" horiz-adv-x="286" 
d="M-121 -235l19 84q9 -1 17.5 -2t16.5 -1q53 0 77.5 27.5t33.5 83.5l79 503l10 -16l-81 22l10 63l191 7l-87 -552q-13 -84 -44.5 -133.5t-77 -70.5t-101.5 -21q-18 0 -32.5 2t-30.5 4zM204 623q-30 0 -47 18t-17 48q0 36 22.5 59t57.5 23q29 0 46.5 -17.5t17.5 -48.5
q0 -35 -22 -58.5t-58 -23.5z" />
    <glyph glyph-name="k" unicode="k" horiz-adv-x="560" 
d="M34 0l117 743l42 -73l-121 36l10 64l192 6l-73 -461l-17 18h126l-32 -14l114 147l7 -13l-68 12l10 63l228 8l-10 -63l-85 -18l35 19l-147 -187l6 33l91 -254l-16 17l76 -20l-10 -63h-148l-87 260l16 -9h-120l22 7l-41 -258h-117z" />
    <glyph glyph-name="l" unicode="l" horiz-adv-x="285" 
d="M33 -4l119 747l41 -73l-121 34l10 65l193 7l-119 -748l-43 75l124 -37l-11 -65z" />
    <glyph glyph-name="m" unicode="m" horiz-adv-x="905" 
d="M658 -4l54 339q6 36 2.5 61.5t-15.5 39t-34 13.5q-21 0 -45 -14t-46.5 -42.5t-40.5 -71.5t-27 -101l-34 -220h-118l54 335q6 36 2.5 61.5t-16 39t-33.5 13.5t-45 -14t-46.5 -42.5t-40.5 -71.5t-27 -101l-35 -220h-118l74 465l48 -36l-121 37l10 63l186 7l-37 -179
l-36 -63q23 89 63.5 143.5t88 80t89.5 25.5q40 0 68.5 -20.5t41 -59t4.5 -92.5l-6 -36l-44 -41q23 89 63.5 143.5t87.5 80t89 25.5q41 0 70 -22t42 -62.5t3 -97.5l-47 -297l-50 39l125 -37l-10 -65z" />
    <glyph glyph-name="n" unicode="n" horiz-adv-x="613" 
d="M366 -4l55 339q6 35 2 60.5t-17.5 39.5t-37.5 14q-23 0 -48.5 -14t-49 -42t-41.5 -71t-27 -102l-35 -220h-118l80 503l42 -74l-121 37l10 63l186 7l-37 -179l-38 -63q23 88 64.5 143t90 80.5t92.5 25.5q46 0 77 -22t44 -62.5t3 -97.5l-47 -297l-51 39l125 -37l-10 -65z
" />
    <glyph glyph-name="o" unicode="o" horiz-adv-x="559" 
d="M327 543q59 0 104 -22t70 -69.5t25 -126.5q0 -62 -18 -122t-54 -108.5t-91 -77t-130 -28.5q-59 0 -104 22t-70 70t-25 125q0 63 18 122.5t54 108t91 77.5t130 29zM311 456q-42 0 -72 -25t-48.5 -63t-27.5 -81.5t-9 -80.5q0 -61 23 -95.5t72 -34.5q41 0 71 25t49 63.5
t28 82t9 80.5q0 61 -23 95t-72 34z" />
    <glyph glyph-name="p" unicode="p" horiz-adv-x="591" 
d="M-60 -230l10 63l131 37l-62 -66l105 661l16 -22l-90 23l9 63l187 7l-36 -183l-32 -59q19 83 58 138.5t87 83t93 27.5q39 0 71.5 -20t52 -64.5t19.5 -117.5q0 -96 -33.5 -169t-94 -118t-144.5 -57.5t-184 11.5l67 10l-34 -217l-42 71l129 -39l-10 -63h-273zM178 65l-24 34
q65 -24 117.5 -16.5t90 39.5t57.5 85.5t20 121.5q0 63 -20 91t-51 28q-23 0 -48 -14.5t-49 -43.5t-42 -72.5t-27 -101.5z" />
    <glyph glyph-name="q" unicode="q" horiz-adv-x="574" 
d="M219 -230l10 63l137 37l-60 -71l33 201l36 178l42 61q-19 -83 -59 -138.5t-89 -83.5t-94 -28q-39 0 -72 21t-52.5 64.5t-19.5 113.5q0 73 22.5 137.5t63.5 113.5t96 76.5t119 27.5q41 0 84.5 -13.5t87.5 -43.5l-51 11l23 35h64l-116 -736l-41 76l120 -39l-10 -63h-274z
M222 85q23 0 48 14.5t48.5 44t42 72.5t27.5 101l23 139l19 -39q-26 19 -51 27.5t-50 8.5q-39 0 -71.5 -20.5t-56.5 -56t-37 -80.5t-13 -94q0 -61 20 -89t51 -28z" />
    <glyph glyph-name="r" unicode="r" horiz-adv-x="426" 
d="M49 0l80 503l42 -74l-121 37l10 63l186 7l-37 -179l-37 -64q19 82 58.5 137.5t89 84t96.5 28.5q26 0 44 -7l-29 -168h-72v94l14 -12q-26 3 -53 -12.5t-50.5 -45.5t-41 -73.5t-26.5 -98.5l-35 -220h-118z" />
    <glyph glyph-name="s" unicode="s" horiz-adv-x="482" 
d="M174 -11q-40 0 -84 6.5t-85 17.5l25 155h74l-2 -101l-16 24q21 -8 44.5 -13t50.5 -5q35 0 62.5 8.5t44 25t16.5 40.5q1 25 -16.5 40.5t-44.5 26.5t-57.5 23t-57.5 29t-44 43.5t-16 68.5q1 52 30.5 89t80 56.5t114.5 19.5q39 0 82 -7.5t87 -21.5l-24 -135h-73l-4 83
l20 -18q-21 9 -43.5 13t-42.5 4q-31 0 -55 -8.5t-38 -23.5t-15 -36q0 -23 17 -38t44.5 -26.5t58 -24t58 -30t44.5 -44.5t16 -68q-1 -53 -33.5 -92t-89 -60t-128.5 -21z" />
    <glyph glyph-name="t" unicode="t" horiz-adv-x="381" 
d="M334 24q-39 -17 -75.5 -26t-67.5 -9q-54 0 -87.5 29t-33.5 91q0 10 0.5 19t2.5 20l50 319l12 -17h-94l10 66l102 21l-22 -22l22 135l120 20l-24 -155l-10 17h148l-13 -82h-150l17 17l-50 -313q-1 -4 -1.5 -10.5t-0.5 -13.5q0 -27 12 -38.5t33 -11.5q15 0 34 5.5t41 15.5z
" />
    <glyph glyph-name="u" unicode="u" horiz-adv-x="612" 
d="M193 -11q-44 -1 -75 21.5t-43.5 63t-4.5 96.5l47 297l10 -23l-82 22l10 63l191 7l-54 -339q-5 -35 -1.5 -60.5t17 -39.5t36.5 -14q24 0 49 13.5t48.5 42t42 71.5t27.5 102l34 220h118l-73 -466l-15 22l89 -25l-10 -62l-181 -5l32 181l36 62q-21 -88 -62.5 -143t-90 -81
t-95.5 -26z" />
    <glyph glyph-name="v" unicode="v" horiz-adv-x="531" 
d="M172 -2l-99 465l10 -11l-55 13l9 63l148 8l73 -473l-29 6l184 395l4 -12l-61 13l9 63l209 8l-8 -63l-63 -20l23 13l-235 -468h-119z" />
    <glyph glyph-name="w" unicode="w" horiz-adv-x="805" 
d="M132 -2l-53 465l12 -11l-61 13l10 63l147 8l31 -467h-16l188 460l123 7l36 -468h-13l163 396l7 -16l-67 17l10 63l196 8l-8 -63l-55 -17l17 14l-209 -472h-128l-46 445l33 -3l-190 -442h-127z" />
    <glyph glyph-name="x" unicode="x" horiz-adv-x="546" 
d="M-29 0l10 63l85 17l-30 -17l173 224l36 3l183 238l132 8l-9 -63l-82 -17l33 17l-173 -210l-34 -2l-191 -261h-133zM349 0l-129 246l-120 226l21 -22l-65 15l9 63l128 11l118 -228l132 -247l-19 18l78 -19l-10 -63h-143z" />
    <glyph glyph-name="y" unicode="y" horiz-adv-x="530" 
d="M-55 -235l15 87q13 -1 24 -2t21 -1q45 0 76.5 19t58.5 58t56 99l-6 -42l-116 480l10 -11l-57 13l10 63l147 8l85 -459l-31 6l176 381l5 -12l-62 13l9 63l209 8l-9 -63l-61 -18l19 11l-229 -465q-13 -28 -30.5 -60.5t-41 -64.5t-54 -58.5t-71 -42.5t-91.5 -16q-30 0 -62 6
z" />
    <glyph glyph-name="z" unicode="z" horiz-adv-x="486" 
d="M430 166l-25 -166h-408l10 72l347 402l14 -26h-243l37 28l-27 -99h-73l24 155h393l-11 -72l-351 -410v34l237 1l-37 -36l41 117h72z" />
    <glyph glyph-name="braceleft" unicode="{" horiz-adv-x="340" 
d="M188 -108q-52 0 -84 19t-43 58.5t-1 100.5l26 162q8 48 -5.5 75t-65.5 27l12 82q36 0 57 15t32.5 40t15.5 55l25 161q9 56 30 94t58 57t94 19h57l-11 -75q-45 0 -70 -9.5t-37.5 -34t-18.5 -66.5l-26 -166q-8 -54 -31.5 -84t-57.5 -42t-76 -12l-4 14q40 0 71.5 -13.5
t47.5 -45t7 -87.5l-26 -166q-7 -42 -2.5 -64t26 -30.5t67.5 -8.5l-12 -75h-55z" />
    <glyph glyph-name="bar" unicode="|" horiz-adv-x="311" 
d="M197 809h90l-145 -914h-90z" />
    <glyph glyph-name="braceright" unicode="}" horiz-adv-x="340" 
d="M186 857q53 0 84.5 -18.5t43 -58t0.5 -100.5l-25 -162q-8 -48 5.5 -75t65.5 -27l-13 -82q-35 0 -56.5 -15t-32.5 -40t-16 -55l-25 -162q-9 -55 -29.5 -93t-57.5 -57.5t-95 -19.5h-57l12 75q44 0 69 10.5t37.5 34.5t19.5 66l25 166q9 54 32.5 84t57.5 42t75 12l5 -14
q-41 0 -73 13.5t-47 45t-7 86.5l27 166q7 43 2.5 65t-26.5 30t-68 8l12 75h55z" />
    <glyph glyph-name="asciitilde" unicode="~" horiz-adv-x="629" 
d="M423 277q-30 0 -55.5 10.5t-48.5 24t-45 24t-46 10.5q-23 0 -47 -13t-51 -44l-47 39q41 60 77.5 83.5t73.5 23.5q30 0 55.5 -10.5t48.5 -24t45.5 -24t46.5 -10.5q23 0 46.5 13.5t50.5 43.5l45 -41q-40 -59 -76.5 -82t-72.5 -23z" />
    <glyph glyph-name="uni00A0" unicode="&#xa0;" horiz-adv-x="182" 
 />
    <glyph glyph-name="exclamdown" unicode="&#xa1;" horiz-adv-x="315" 
d="M197 235l-54 -465h-125l92 459zM188 481q31 0 47.5 -17.5t16.5 -46.5q0 -33 -22.5 -55t-55.5 -22q-29 0 -47 17.5t-18 47.5q0 35 23.5 55.5t55.5 20.5z" />
    <glyph glyph-name="cent" unicode="&#xa2;" horiz-adv-x="540" 
d="M203 -21l23 148l34 -24q-86 -1 -137.5 52.5t-51.5 149.5q0 62 18 116t51.5 95.5t82 66.5t109.5 29l-32 -25l23 150h78l-23 -146l-27 22q48 0 90 -12t68 -27l-21 -128h-68l2 73q-16 8 -35.5 10.5t-33.5 2.5q-40 0 -72 -19t-54 -51.5t-33 -73.5t-11 -84q0 -56 27 -86.5
t76 -30.5q33 0 71.5 14t79.5 41l32 -63q-53 -38 -102 -55.5t-96 -20.5l33 26l-23 -150h-78z" />
    <glyph glyph-name="sterling" unicode="&#xa3;" horiz-adv-x="643" 
d="M21 0l10 63l104 31l-43 -26q37 29 52 73.5t18.5 99t4.5 113.5l14 -24h-108l10 66l101 10l-12 -16q-2 109 22.5 181t79 107t143.5 35q43 0 93 -8t107 -23l-33 -163h-70l-2 108l12 -18q-54 13 -94 13q-59 0 -89 -27.5t-40.5 -79.5t-9.5 -129l-18 20h182l-12 -76h-178l23 23
q0 -63 -6.5 -114.5t-25 -92t-56.5 -70.5l-13 16l273 -2l-22 -21l40 123h71l-31 -192h-497z" />
    <glyph glyph-name="currency" unicode="&#xa4;" horiz-adv-x="644" 
d="M546 121l-65 -63l-86 96l45 -1q-29 -23 -64 -36t-75 -13q-46 0 -78.5 15.5t-51.5 40.5l48 1l-119 -103l-46 58l117 99l-7 -47q-14 19 -21.5 44.5t-7.5 53.5q0 47 18.5 89.5t49.5 74.5l-11 -45l-85 95l67 64l87 -99l-42 -2q29 22 63.5 34t74.5 12q44 0 75 -13.5t49 -33.5
l-39 4l112 96l45 -57l-112 -96l2 45q32 -40 32 -103q0 -46 -18 -89.5t-49 -74.5l3 53zM307 178q39 0 65.5 22.5t40 57.5t13.5 71q0 42 -18.5 64t-56.5 22q-41 0 -68 -23t-40 -57t-13 -69q0 -42 19.5 -65t57.5 -23z" />
    <glyph glyph-name="yen" unicode="&#xa5;" horiz-adv-x="686" 
d="M129 286l9 60h133l-11 -21l-106 307l18 -17l-75 19l9 63l263 5l-10 -63l-95 -23l10 22l99 -322h-25l199 317l7 -22l-87 23l9 63l241 5l-10 -63l-80 -21l27 17l-205 -313l-6 24h132l-10 -60h-436zM167 0l9 63l94 24l-17 -18l19 119l15 -19h-176l9 60h436l-10 -60h-182
l27 21l-18 -122l-8 19l85 -24l-10 -63h-273z" />
    <glyph glyph-name="brokenbar" unicode="&#xa6;" horiz-adv-x="311" 
d="M137 437l59 372h91l-60 -372h-90zM52 -105l59 372h90l-59 -372h-90z" />
    <glyph glyph-name="section" unicode="&#xa7;" horiz-adv-x="544" 
d="M176 -181q-38 0 -77 7t-78 18l25 138h72l-3 -89l-11 16q36 -12 72 -12q52 0 86.5 27.5t34.5 71.5q0 27 -16 47t-41.5 37t-53.5 34.5t-54 38t-41.5 49t-15.5 66.5q0 50 25.5 85.5t69 57.5t94.5 30l19 -39q-26 -7 -50 -23.5t-39.5 -40t-15.5 -51.5q0 -29 16.5 -50.5
t42.5 -40t55 -37t55.5 -40.5t42.5 -51t16 -69q0 -56 -30 -96.5t-82 -62t-118 -21.5zM273 97l-8 39q23 8 47 26.5t40.5 44.5t16.5 54q0 27 -16.5 48t-42.5 38.5t-54.5 36t-54 41t-42 51.5t-16.5 69q0 55 27 92t75.5 56.5t109.5 19.5q35 0 76 -7.5t82 -21.5l-21 -121h-72
l-3 79l16 -19q-17 6 -35.5 9t-34.5 3q-49 0 -81 -23t-32 -66q0 -26 16 -46.5t42 -38t54.5 -35.5t54.5 -39t42 -49.5t16 -66.5q0 -50 -28.5 -86t-74.5 -58t-99 -30z" />
    <glyph glyph-name="dieresis" unicode="&#xa8;" horiz-adv-x="446" 
d="M184 630q-26 0 -40.5 17t-14.5 45q0 32 18.5 52.5t47.5 20.5q26 0 41 -16.5t15 -45.5q0 -32 -19 -52.5t-48 -20.5zM388 630q-26 0 -41 17t-15 45q0 32 18.5 52.5t48.5 20.5q26 0 41 -16.5t15 -45.5q0 -32 -19 -52.5t-48 -20.5z" />
    <glyph glyph-name="copyright" unicode="&#xa9;" horiz-adv-x="867" 
d="M443 153q-76 0 -125.5 51t-49.5 144q0 65 25.5 110t68 68.5t96.5 23.5q63 0 129 -31l-3 -101h-58l-10 61l7 -6q-12 5 -28.5 7.5t-29.5 2.5q-51 0 -75.5 -35.5t-24.5 -93.5q0 -67 27 -100t71 -33q24 0 52 9.5t56 29.5l31 -48q-39 -31 -80 -45t-79 -14zM436 -11
q-78 0 -144 26t-114 73.5t-74.5 112.5t-26.5 143q0 80 28 147.5t78.5 117.5t119 77t148.5 27q79 0 145.5 -26t116.5 -73.5t77.5 -112t27.5 -142.5q0 -79 -29 -147t-81.5 -118t-122 -77.5t-149.5 -27.5zM442 57q64 0 118 22t93 61.5t60.5 94t21.5 119.5q0 85 -37 151
t-102.5 103.5t-150.5 37.5q-86 0 -150 -38.5t-99.5 -104.5t-35.5 -153q0 -85 35 -151t98.5 -104t148.5 -38z" />
    <glyph glyph-name="ordfeminine" unicode="&#xaa;" horiz-adv-x="488" 
d="M40 159l14 84h399l-14 -84h-399zM183 313q-52 0 -85.5 34t-33.5 109q0 71 30 129.5t83.5 93t122.5 34.5q30 0 62.5 -10t64.5 -32l-38 8l17 25l67 1l-60 -364l-24 57l86 -24l-9 -53l-151 -3l22 131l25 44q-14 -60 -43.5 -100t-65.5 -60t-70 -20zM218 385q23 0 48 18.5
t45.5 55.5t30.5 91l17 99l14 -30q-20 14 -38.5 20t-37.5 6q-37 0 -65.5 -25t-45.5 -66t-17 -88q0 -42 14 -61.5t35 -19.5z" />
    <glyph glyph-name="guillemotleft" unicode="&#xab;" horiz-adv-x="495" 
d="M165 52l-125 186l8 63l184 187l50 -44l-159 -198l6 48l97 -196zM367 52l-125 186l8 63l184 187l50 -44l-159 -198l6 48l97 -196z" />
    <glyph glyph-name="logicalnot" unicode="&#xac;" horiz-adv-x="634" 
d="M446 306l-12 16l-34 -209h96l44 281h-464l-14 -88h384z" />
    <glyph glyph-name="uni00AD" unicode="&#xad;" horiz-adv-x="404" 
d="M360 340l-14 -93h-293l14 93h293z" />
    <glyph glyph-name="registered" unicode="&#xae;" horiz-adv-x="718" 
d="M246 299v34l47 14l-11 -14v252l14 -15l-50 11v34l109 3h45q57 0 87.5 -22.5t30.5 -63.5q0 -34 -25 -57.5t-80 -30.5l5 11q29 -2 44 -13.5t27 -34.5l37 -74l-21 13l42 -13v-34h-77l-42 94q-8 19 -17.5 27.5t-20.5 10.5t-26 2h-28l12 12v-112l-10 14l53 -14v-34h-145z
M348 466l-12 11h38q37 0 56 13t19 37q0 21 -15.5 32.5t-46.5 11.5h-51l12 13v-118zM380 161q-85 0 -150.5 36.5t-103 101.5t-37.5 150q0 87 39.5 154.5t108 106.5t155.5 39q86 0 153 -36.5t106 -101.5t39 -150q0 -64 -23.5 -118.5t-66 -95.5t-99 -63.5t-121.5 -22.5z
M382 214q70 0 126 31.5t88 87.5t32 127q0 70 -30.5 123t-84.5 82.5t-122 29.5q-70 0 -124 -31t-85 -86.5t-31 -127.5q0 -70 29.5 -123.5t81.5 -83t120 -29.5z" />
    <glyph glyph-name="macron" unicode="&#xaf;" horiz-adv-x="399" 
d="M416 750l-14 -86h-278l13 86h279z" />
    <glyph glyph-name="degree" unicode="&#xb0;" horiz-adv-x="417" 
d="M222 426q-61 0 -98 35t-37 100q0 51 23.5 91.5t63.5 63.5t90 23q61 0 98 -35.5t37 -98.5q0 -49 -22.5 -89.5t-62 -65t-92.5 -24.5zM228 494q31 0 51.5 16.5t31 41.5t10.5 51q0 35 -17 51.5t-46 16.5q-30 0 -50.5 -15.5t-31 -40t-10.5 -51.5q0 -35 16 -52.5t46 -17.5z" />
    <glyph glyph-name="plusminus" unicode="&#xb1;" horiz-adv-x="565" 
d="M289 461l-25 -20l31 200h91l-31 -200l-16 20h193l-14 -88h-195l24 21l-32 -200h-90l32 200l17 -21h-194l13 88h196zM479 125l-14 -88h-438l14 88h438z" />
    <glyph glyph-name="uni00B2" unicode="&#xb2;" horiz-adv-x="355" 
d="M42 345l11 75q63 48 114 90t80.5 80t29.5 72q0 24 -15 34t-38 10q-14 0 -30.5 -4t-33.5 -10l15 18l-20 -71h-60l12 119q36 10 73 16.5t68 6.5q59 0 96 -24t37 -76q0 -39 -19.5 -74.5t-52 -68t-72 -64.5t-80.5 -62v12h190l-13 -79h-292z" />
    <glyph glyph-name="uni00B3" unicode="&#xb3;" horiz-adv-x="363" 
d="M173 336q-36 0 -71 8.5t-65 25.5l35 65q24 -12 49.5 -18.5t49.5 -6.5q41 0 65.5 20t24.5 52q0 26 -17 37t-49 11h-57l10 65h51q20 0 39.5 6.5t32.5 22t13 39.5q0 27 -16 37.5t-42 10.5q-16 0 -33 -3t-36 -8l17 14l-17 -64h-60l12 105q37 13 74 19t70 6q57 0 95 -22.5
t38 -75.5q0 -49 -33 -80t-86 -36l-5 5q52 -5 75 -29t23 -64q0 -45 -25.5 -76.5t-68 -48.5t-93.5 -17z" />
    <glyph glyph-name="acute" unicode="&#xb4;" horiz-adv-x="374" 
d="M136 610l-44 61l204 155l59 -87z" />
    <glyph glyph-name="uni00B5" unicode="&#xb5;" horiz-adv-x="682" 
d="M163 -234l-117 4l110 692l11 -18l-82 22l10 63l191 7l-54 -339q-6 -35 -2 -60.5t17.5 -39.5t36.5 -14t48.5 13.5t49 42t41.5 71.5t27 102l35 220h118l-74 -467l-15 23l90 -25l-10 -63l-181 -5l31 182l37 62q-21 -88 -59.5 -143t-83 -81t-85.5 -26q-44 -1 -72.5 26.5
t-35.5 82.5l21 -37q2 -34 5.5 -76.5t3 -96.5t-11.5 -122z" />
    <glyph glyph-name="paragraph" unicode="&#xb6;" horiz-adv-x="611" 
d="M69 -170l10 63l96 25l-21 -25l68 439l21 -20q-75 0 -120.5 43t-45.5 118q0 66 28.5 118t79 81.5t115.5 29.5h336l-10 -63l-95 -29l19 27l-128 -807h-97l128 811l13 -29l-120 -1l25 30l-129 -811h-173z" />
    <glyph glyph-name="periodcentered" unicode="&#xb7;" horiz-adv-x="244" 
d="M124 257q-30 0 -47 17.5t-17 45.5q0 34 22.5 55.5t55.5 21.5q29 0 47 -17t18 -47q0 -35 -23 -55.5t-56 -20.5z" />
    <glyph glyph-name="cedilla" unicode="&#xb8;" horiz-adv-x="353" 
d="M82 -248q-24 0 -49.5 6t-49.5 18l30 59q36 -16 73 -16q23 0 39.5 9.5t16.5 27.5q0 21 -25.5 30t-64.5 10l22 104h69l-8 -52q49 -5 71 -26t22 -55q0 -35 -20 -61t-53 -40t-73 -14z" />
    <glyph glyph-name="uni00B9" unicode="&#xb9;" horiz-adv-x="282" 
d="M227 397l-11 21l75 -22l-7 -51h-241l7 51l103 19l-17 -18l45 292h26l-114 -61l-19 60l138 85h74z" />
    <glyph glyph-name="ordmasculine" unicode="&#xba;" horiz-adv-x="441" 
d="M226 313q-72 0 -117.5 37.5t-45.5 123.5q0 45 14 87.5t42.5 77t72 54.5t101.5 20q73 0 118 -36.5t45 -123.5q0 -59 -25 -114.5t-75.5 -90.5t-129.5 -35zM27 159l14 84h353l-14 -84h-353zM238 381q30 0 51 16.5t34.5 43.5t20.5 57t7 56q0 46 -18 69t-53 23
q-30 0 -51.5 -16.5t-35 -42.5t-19.5 -55.5t-6 -56.5q0 -46 17 -70t53 -24z" />
    <glyph glyph-name="guillemotright" unicode="&#xbb;" horiz-adv-x="496" 
d="M332 488l125 -187l-9 -63l-183 -186l-50 43l159 198l-6 -48l-97 197zM129 488l125 -187l-8 -63l-183 -186l-51 43l160 198l-6 -48l-98 197z" />
    <glyph glyph-name="onequarter" unicode="&#xbc;" horiz-adv-x="849" 
d="M241 328l-11 21l75 -22l-7 -51h-241l7 51l103 19l-17 -18l45 292h26l-114 -61l-19 60l138 85h74zM126 -9l519 720h96l-520 -720h-95zM638 113l7 -21h-194l-2 71l214 271l119 -8l-43 -279l-20 15h80l-11 -70h-82l27 20l-18 -112h-95zM661 162l-18 -21l37 237l15 -1
l-188 -242l-8 27h162z" />
    <glyph glyph-name="onehalf" unicode="&#xbd;" horiz-adv-x="860" 
d="M242 328l-11 21l75 -22l-7 -51h-241l7 51l103 19l-17 -18l45 292h26l-114 -61l-19 60l138 85h74zM127 -9l519 720h96l-520 -720h-95zM481 0l11 75q63 48 114 90t80.5 80t29.5 72q0 24 -15 34t-38 10q-14 0 -30.5 -4t-33.5 -10l15 18l-20 -71h-60l12 119q36 10 73 16.5
t68 6.5q59 0 96 -24t37 -76q0 -39 -19.5 -74.5t-52 -68t-72 -64.5t-80.5 -62v12h190l-13 -79h-292z" />
    <glyph glyph-name="threequarters" unicode="&#xbe;" horiz-adv-x="897" 
d="M172 267q-36 0 -71 8.5t-65 25.5l35 65q24 -12 49.5 -18.5t49.5 -6.5q41 0 65.5 20t24.5 52q0 26 -17 37t-49 11h-57l10 65h51q20 0 39.5 6.5t32.5 22t13 39.5q0 27 -16 37.5t-42 10.5q-16 0 -33 -3t-36 -8l17 14l-17 -64h-60l12 105q37 13 74 19t70 6q57 0 95 -22.5
t38 -75.5q0 -49 -33 -80t-86 -36l-5 5q52 -5 75 -29t23 -64q0 -45 -25.5 -76.5t-68 -48.5t-93.5 -17zM176 -9l519 720h96l-520 -720h-95zM686 113l7 -21h-194l-2 71l214 271l119 -8l-43 -279l-20 15h80l-11 -70h-82l27 20l-18 -112h-95zM709 162l-18 -21l37 237l15 -1
l-188 -242l-8 27h162z" />
    <glyph glyph-name="questiondown" unicode="&#xbf;" horiz-adv-x="410" 
d="M322 265q-1 -7 -0.5 -17t0.5 -23q-4 -45 -26.5 -77.5t-52.5 -56.5t-60 -44.5t-50 -44.5t-20 -57t21 -46.5t54 -13.5q29 0 63.5 8.5t64.5 20.5l22 -83q-45 -18 -92.5 -28t-91.5 -10q-46 0 -83 12.5t-59.5 41t-22.5 76.5q0 41 16.5 72t42.5 55t56 45.5t57.5 42.5t45.5 46
t21 58q1 5 2 11.5t2 12.5zM299 517q31 0 47.5 -17.5t16.5 -46.5q0 -33 -22 -55t-56 -22q-29 0 -47 17.5t-18 47.5q0 35 23.5 55.5t55.5 20.5z" />
    <glyph glyph-name="Agrave" unicode="&#xc0;" horiz-adv-x="683" 
d="M594 60l-26 29l76 -26l-10 -63h-258l11 63l86 24l-7 -19l-21 140l9 -17h-265l19 16l-67 -138l-2 16l80 -22l-10 -63h-245l10 63l85 25l-34 -25l328 638l124 3zM232 260l-6 19h223l-10 -22l-55 377l29 -1zM524 752l-237 98l48 91l222 -129z" />
    <glyph glyph-name="Aacute" unicode="&#xc1;" horiz-adv-x="683" 
d="M594 60l-26 29l76 -26l-10 -63h-258l11 63l86 24l-7 -19l-21 140l9 -17h-265l19 16l-67 -138l-2 16l80 -22l-10 -63h-245l10 63l85 25l-34 -25l328 638l124 3zM232 260l-6 19h223l-10 -22l-55 377l29 -1zM330 752l-29 58l234 133l39 -93z" />
    <glyph glyph-name="Acircumflex" unicode="&#xc2;" horiz-adv-x="683" 
d="M594 60l-26 29l76 -26l-10 -63h-258l11 63l86 24l-7 -19l-21 140l9 -17h-265l19 16l-67 -138l-2 16l80 -22l-10 -63h-245l10 63l85 25l-34 -25l328 638l124 3zM232 260l-6 19h223l-10 -22l-55 377l29 -1zM290 748l-33 48l156 127l68 6l127 -133l-46 -48l-162 116l80 -2z
" />
    <glyph glyph-name="Atilde" unicode="&#xc3;" horiz-adv-x="683" 
d="M594 60l-26 29l76 -26l-10 -63h-258l11 63l86 24l-7 -19l-21 140l9 -17h-265l19 16l-67 -138l-2 16l80 -22l-10 -63h-245l10 63l85 25l-34 -25l328 638l124 3zM232 260l-6 19h223l-10 -22l-55 377l29 -1zM306 775l-46 29q27 54 54.5 77.5t58.5 23.5q27 0 50 -11
t43.5 -21.5t39.5 -10.5q32 0 65 46l47 -29q-27 -54 -57 -77.5t-62 -23.5q-25 0 -46.5 10.5t-41.5 21t-42 10.5q-16 0 -30.5 -10.5t-32.5 -34.5z" />
    <glyph glyph-name="Adieresis" unicode="&#xc4;" horiz-adv-x="683" 
d="M594 60l-26 29l76 -26l-10 -63h-258l11 63l86 24l-7 -19l-21 140l9 -17h-265l19 16l-67 -138l-2 16l80 -22l-10 -63h-245l10 63l85 25l-34 -25l328 638l124 3zM232 260l-6 19h223l-10 -22l-55 377l29 -1zM331 763q-26 0 -40.5 17t-14.5 45q0 32 18.5 52.5t47.5 20.5
q26 0 41 -16.5t15 -45.5q0 -32 -19 -52.5t-48 -20.5zM535 763q-26 0 -41 17t-15 45q0 32 18.5 52.5t48.5 20.5q26 0 41 -16.5t15 -45.5q0 -32 -19 -52.5t-48 -20.5z" />
    <glyph glyph-name="Aring" unicode="&#xc5;" horiz-adv-x="683" 
d="M594 60l-26 29l76 -26l-10 -63h-258l11 63l86 24l-7 -19l-21 140l9 -17h-265l19 16l-67 -138l-2 16l80 -22l-10 -63h-245l10 63l85 25l-34 -25l328 638l124 3zM232 260l-6 19h223l-10 -22l-55 377l29 -1zM425 731q-52 0 -79 28t-27 70q0 36 17 66t48 47.5t73 17.5
q51 0 78 -27.5t27 -71.5q0 -34 -17 -64t-47 -48t-73 -18zM430 789q30 0 45.5 22t15.5 48q0 20 -10 32t-31 12q-29 0 -45 -22t-16 -49q0 -20 10 -31.5t31 -11.5z" />
    <glyph glyph-name="AE" unicode="&#xc6;" horiz-adv-x="916" 
d="M-36 0l10 63l89 25l-37 -26l355 568l10 -20l-91 24l11 63l207 5h397l-27 -173h-71l-3 102l18 -19h-238l23 20l-39 -250l-15 20h231l-13 -88h-234l24 23l-44 -272l-14 25h244l-21 -22l37 113h72l-29 -181h-487l10 63l89 27l-21 -22l25 158l18 -20h-238l29 20l-102 -165
l-3 27l85 -25l-10 -63h-247zM269 276l-11 17h205l-22 -17l56 350l17 -14h-56l27 13z" />
    <glyph glyph-name="Ccedilla" unicode="&#xc7;" horiz-adv-x="617" 
d="M270 -248q-23 0 -48.5 6t-50.5 18l31 59q36 -16 72 -16q24 0 40.5 9.5t16.5 27.5q0 21 -26 30t-64 10l35 171h70l-22 -119q49 -5 70.5 -26t21.5 -55q0 -35 -20 -61t-52.5 -40t-73.5 -14zM58 282q0 83 25.5 160.5t72.5 138.5t114 96.5t150 35.5q49 0 101 -13t106 -39
l-33 -170h-72l-3 117l21 -19q-32 14 -64 21t-59 7q-56 0 -99 -29.5t-73 -78t-45 -107t-15 -115.5q0 -70 20 -113t54.5 -63.5t76.5 -20.5q41 0 86.5 18.5t88.5 54.5l40 -76q-58 -49 -121.5 -73.5t-122.5 -24.5q-68 0 -124.5 31.5t-90.5 97t-34 164.5z" />
    <glyph glyph-name="Egrave" unicode="&#xc8;" horiz-adv-x="599" 
d="M455 181h72l-29 -181h-495l10 63l91 24l-18 -18l89 562l14 -20l-86 23l10 63l192 5h293l-27 -173h-71l-4 101l20 -18h-243l23 19l-40 -250l-14 21h235l-14 -88h-237l23 24l-43 -272l-14 24h255l-28 -20zM483 752l-237 98l48 91l222 -129z" />
    <glyph glyph-name="Eacute" unicode="&#xc9;" horiz-adv-x="599" 
d="M455 181h72l-29 -181h-495l10 63l91 24l-18 -18l89 562l14 -20l-86 23l10 63l192 5h293l-27 -173h-71l-4 101l20 -18h-243l23 19l-40 -250l-14 21h235l-14 -88h-237l23 24l-43 -272l-14 24h255l-28 -20zM288 752l-29 58l234 133l39 -93z" />
    <glyph glyph-name="Ecircumflex" unicode="&#xca;" horiz-adv-x="599" 
d="M455 181h72l-29 -181h-495l10 63l91 24l-18 -18l89 562l14 -20l-86 23l10 63l192 5h293l-27 -173h-71l-4 101l20 -18h-243l23 19l-40 -250l-14 21h235l-14 -88h-237l23 24l-43 -272l-14 24h255l-28 -20zM248 748l-33 48l156 127l68 6l127 -133l-46 -48l-162 116l80 -2z
" />
    <glyph glyph-name="Edieresis" unicode="&#xcb;" horiz-adv-x="599" 
d="M455 181h72l-29 -181h-495l10 63l91 24l-18 -18l89 562l14 -20l-86 23l10 63l192 5h293l-27 -173h-71l-4 101l20 -18h-243l23 19l-40 -250l-14 21h235l-14 -88h-237l23 24l-43 -272l-14 24h255l-28 -20zM289 763q-26 0 -40.5 17t-14.5 45q0 32 18.5 52.5t47.5 20.5
q26 0 41 -16.5t15 -45.5q0 -32 -19 -52.5t-48 -20.5zM493 763q-26 0 -41 17t-15 45q0 32 18.5 52.5t48.5 20.5q26 0 41 -16.5t15 -45.5q0 -32 -19 -52.5t-48 -20.5z" />
    <glyph glyph-name="Igrave" unicode="&#xcc;" horiz-adv-x="356" 
d="M373 639l-93 -28l16 19l-89 -561l-8 18l82 -24l-10 -63h-268l10 63l91 24l-18 -18l89 560l14 -18l-86 23l10 63l270 5zM354 752l-237 98l48 91l222 -129z" />
    <glyph glyph-name="Iacute" unicode="&#xcd;" horiz-adv-x="356" 
d="M373 639l-93 -28l16 19l-89 -561l-8 18l82 -24l-10 -63h-268l10 63l91 24l-18 -18l89 560l14 -18l-86 23l10 63l270 5zM159 752l-29 58l234 133l39 -93z" />
    <glyph glyph-name="Icircumflex" unicode="&#xce;" horiz-adv-x="356" 
d="M373 639l-93 -28l16 19l-89 -561l-8 18l82 -24l-10 -63h-268l10 63l91 24l-18 -18l89 560l14 -18l-86 23l10 63l270 5zM119 748l-33 48l156 127l68 6l127 -133l-46 -48l-162 116l80 -2z" />
    <glyph glyph-name="Idieresis" unicode="&#xcf;" horiz-adv-x="356" 
d="M373 639l-93 -28l16 19l-89 -561l-8 18l82 -24l-10 -63h-268l10 63l91 24l-18 -18l89 560l14 -18l-86 23l10 63l270 5zM160 763q-26 0 -40.5 17t-14.5 45q0 32 18.5 52.5t47.5 20.5q26 0 41 -16.5t15 -45.5q0 -32 -19 -52.5t-48 -20.5zM364 763q-26 0 -41 17t-15 45
q0 32 18.5 52.5t48.5 20.5q26 0 41 -16.5t15 -45.5q0 -32 -19 -52.5t-48 -20.5z" />
    <glyph glyph-name="Eth" unicode="&#xd0;" horiz-adv-x="705" 
d="M53 316l14 83h319l-15 -83h-318zM404 702q88 0 148.5 -29t91 -89t30.5 -154q0 -86 -25.5 -163.5t-75.5 -137.5t-122 -94.5t-166 -34.5h-282l10 63l91 24l-18 -18l90 562l13 -20l-86 23l10 63l207 5h84zM306 90q50 0 89.5 22.5t68 60t47 83.5t27.5 93.5t9 88.5
q0 57 -17 95.5t-53 58.5t-92 20h-112l23 22l-90 -568l-14 24h114z" />
    <glyph glyph-name="Ntilde" unicode="&#xd1;" horiz-adv-x="752" 
d="M542 697l245 5l-10 -63l-89 -28l16 20l-101 -631h-129l-223 570l14 1l-80 -502l-8 18l81 -24l-10 -63h-245l10 63l91 24l-18 -18l90 562l13 -20l-86 23l10 63l212 5l217 -559l-15 -1l78 489l13 -20l-86 23zM341 775l-46 29q27 54 54.5 77.5t58.5 23.5q27 0 50 -11
t43.5 -21.5t39.5 -10.5q32 0 65 46l47 -29q-27 -54 -57 -77.5t-62 -23.5q-25 0 -46.5 10.5t-41.5 21t-42 10.5q-16 0 -30.5 -10.5t-32.5 -34.5z" />
    <glyph glyph-name="Ograve" unicode="&#xd2;" horiz-adv-x="720" 
d="M316 -11q-82 0 -139.5 32t-88 95t-30.5 155q0 62 14 125t43.5 120t74 101.5t105 70t136.5 25.5q83 0 141 -32t88 -94.5t30 -154.5q0 -60 -14 -123t-43 -120t-73.5 -102.5t-105 -71.5t-138.5 -26zM327 85q49 0 87 22.5t66 60t47 83.5t28 94t9 90q0 64 -18.5 104t-50.5 59
t-75 19q-48 0 -86 -22t-66 -59.5t-46.5 -83t-27.5 -93t-9 -90.5q0 -64 18 -104.5t50.5 -60t73.5 -19.5zM553 752l-237 98l48 91l222 -129z" />
    <glyph glyph-name="Oacute" unicode="&#xd3;" horiz-adv-x="720" 
d="M316 -11q-82 0 -139.5 32t-88 95t-30.5 155q0 62 14 125t43.5 120t74 101.5t105 70t136.5 25.5q83 0 141 -32t88 -94.5t30 -154.5q0 -60 -14 -123t-43 -120t-73.5 -102.5t-105 -71.5t-138.5 -26zM327 85q49 0 87 22.5t66 60t47 83.5t28 94t9 90q0 64 -18.5 104t-50.5 59
t-75 19q-48 0 -86 -22t-66 -59.5t-46.5 -83t-27.5 -93t-9 -90.5q0 -64 18 -104.5t50.5 -60t73.5 -19.5zM358 752l-29 58l234 133l39 -93z" />
    <glyph glyph-name="Ocircumflex" unicode="&#xd4;" horiz-adv-x="720" 
d="M316 -11q-82 0 -139.5 32t-88 95t-30.5 155q0 62 14 125t43.5 120t74 101.5t105 70t136.5 25.5q83 0 141 -32t88 -94.5t30 -154.5q0 -60 -14 -123t-43 -120t-73.5 -102.5t-105 -71.5t-138.5 -26zM327 85q49 0 87 22.5t66 60t47 83.5t28 94t9 90q0 64 -18.5 104t-50.5 59
t-75 19q-48 0 -86 -22t-66 -59.5t-46.5 -83t-27.5 -93t-9 -90.5q0 -64 18 -104.5t50.5 -60t73.5 -19.5zM319 748l-33 48l156 127l68 6l127 -133l-46 -48l-162 116l80 -2z" />
    <glyph glyph-name="Otilde" unicode="&#xd5;" horiz-adv-x="720" 
d="M316 -11q-82 0 -139.5 32t-88 95t-30.5 155q0 62 14 125t43.5 120t74 101.5t105 70t136.5 25.5q83 0 141 -32t88 -94.5t30 -154.5q0 -60 -14 -123t-43 -120t-73.5 -102.5t-105 -71.5t-138.5 -26zM327 85q49 0 87 22.5t66 60t47 83.5t28 94t9 90q0 64 -18.5 104t-50.5 59
t-75 19q-48 0 -86 -22t-66 -59.5t-46.5 -83t-27.5 -93t-9 -90.5q0 -64 18 -104.5t50.5 -60t73.5 -19.5zM335 775l-46 29q27 54 54.5 77.5t58.5 23.5q27 0 50 -11t43.5 -21.5t39.5 -10.5q32 0 65 46l47 -29q-27 -54 -57 -77.5t-62 -23.5q-25 0 -46.5 10.5t-41.5 21t-42 10.5
q-16 0 -30.5 -10.5t-32.5 -34.5z" />
    <glyph glyph-name="Odieresis" unicode="&#xd6;" horiz-adv-x="720" 
d="M316 -11q-82 0 -139.5 32t-88 95t-30.5 155q0 62 14 125t43.5 120t74 101.5t105 70t136.5 25.5q83 0 141 -32t88 -94.5t30 -154.5q0 -60 -14 -123t-43 -120t-73.5 -102.5t-105 -71.5t-138.5 -26zM327 85q49 0 87 22.5t66 60t47 83.5t28 94t9 90q0 64 -18.5 104t-50.5 59
t-75 19q-48 0 -86 -22t-66 -59.5t-46.5 -83t-27.5 -93t-9 -90.5q0 -64 18 -104.5t50.5 -60t73.5 -19.5zM360 763q-26 0 -40.5 17t-14.5 45q0 32 18.5 52.5t47.5 20.5q26 0 41 -16.5t15 -45.5q0 -32 -19 -52.5t-48 -20.5zM564 763q-26 0 -41 17t-15 45q0 32 18.5 52.5
t48.5 20.5q26 0 41 -16.5t15 -45.5q0 -32 -19 -52.5t-48 -20.5z" />
    <glyph glyph-name="multiply" unicode="&#xd7;" horiz-adv-x="516" 
d="M104 143l-54 65l174 156l-1 -31l-129 159l72 66l129 -159l-29 1l173 157l54 -65l-174 -156l2 31l128 -159l-72 -66l-128 159l29 -1z" />
    <glyph glyph-name="Oslash" unicode="&#xd8;" horiz-adv-x="730" 
d="M660 778l59 -39l-100 -131l-12 -11l-390 -511l-2 -7l-119 -156l-59 39l133 174l10 9l376 492l4 10zM321 -11q-82 0 -140 32.5t-88.5 94.5t-30.5 152q0 63 14.5 126.5t43.5 121t74 102t105.5 70t136.5 25.5q83 0 141 -32t88 -94t30 -152q0 -62 -14 -125.5t-43 -121
t-73.5 -102.5t-105 -71t-138.5 -26zM332 85q48 0 86 22.5t66.5 60t47 84t27.5 94.5t9 91q0 63 -18 102.5t-50.5 58.5t-73.5 19q-49 0 -87.5 -22.5t-66.5 -59.5t-46.5 -83.5t-27.5 -94t-9 -91.5q0 -62 18.5 -102t50.5 -59.5t74 -19.5z" />
    <glyph glyph-name="Ugrave" unicode="&#xd9;" horiz-adv-x="724" 
d="M498 697l270 5l-10 -63l-93 -28l16 20l-57 -363q-15 -96 -52 -157.5t-99.5 -91.5t-153.5 -30q-115 0 -171 49t-56 148q0 18 1.5 37t5.5 40l59 368l11 -19l-84 22l10 63l266 5l-10 -63l-89 -28l16 20l-60 -376q-3 -18 -4.5 -35t-1.5 -31q0 -54 26 -79t88 -25q59 0 94 21.5
t55 64.5t29 104l57 356l13 -20l-85 23zM537 752l-237 98l48 91l222 -129z" />
    <glyph glyph-name="Uacute" unicode="&#xda;" horiz-adv-x="724" 
d="M498 697l270 5l-10 -63l-93 -28l16 20l-57 -363q-15 -96 -52 -157.5t-99.5 -91.5t-153.5 -30q-115 0 -171 49t-56 148q0 18 1.5 37t5.5 40l59 368l11 -19l-84 22l10 63l266 5l-10 -63l-89 -28l16 20l-60 -376q-3 -18 -4.5 -35t-1.5 -31q0 -54 26 -79t88 -25q59 0 94 21.5
t55 64.5t29 104l57 356l13 -20l-85 23zM342 752l-29 58l234 133l39 -93z" />
    <glyph glyph-name="Ucircumflex" unicode="&#xdb;" horiz-adv-x="724" 
d="M498 697l270 5l-10 -63l-93 -28l16 20l-57 -363q-15 -96 -52 -157.5t-99.5 -91.5t-153.5 -30q-115 0 -171 49t-56 148q0 18 1.5 37t5.5 40l59 368l11 -19l-84 22l10 63l266 5l-10 -63l-89 -28l16 20l-60 -376q-3 -18 -4.5 -35t-1.5 -31q0 -54 26 -79t88 -25q59 0 94 21.5
t55 64.5t29 104l57 356l13 -20l-85 23zM302 748l-33 48l156 127l68 6l127 -133l-46 -48l-162 116l80 -2z" />
    <glyph glyph-name="Udieresis" unicode="&#xdc;" horiz-adv-x="724" 
d="M498 697l270 5l-10 -63l-93 -28l16 20l-57 -363q-15 -96 -52 -157.5t-99.5 -91.5t-153.5 -30q-115 0 -171 49t-56 148q0 18 1.5 37t5.5 40l59 368l11 -19l-84 22l10 63l266 5l-10 -63l-89 -28l16 20l-60 -376q-3 -18 -4.5 -35t-1.5 -31q0 -54 26 -79t88 -25q59 0 94 21.5
t55 64.5t29 104l57 356l13 -20l-85 23zM343 763q-26 0 -40.5 17t-14.5 45q0 32 18.5 52.5t47.5 20.5q26 0 41 -16.5t15 -45.5q0 -32 -19 -52.5t-48 -20.5zM547 763q-26 0 -41 17t-15 45q0 32 18.5 52.5t48.5 20.5q26 0 41 -16.5t15 -45.5q0 -32 -19 -52.5t-48 -20.5z" />
    <glyph glyph-name="Yacute" unicode="&#xdd;" horiz-adv-x="632" 
d="M140 0l9 63l94 24l-17 -18l33 206l7 -44l-144 401l18 -18l-76 20l10 63l262 5l-10 -63l-95 -23l10 22l105 -322h-25l204 317l8 -22l-88 23l10 63l240 5l-9 -63l-79 -21l25 17l-270 -404l16 44l-32 -206l-8 18l85 -24l-10 -63h-273zM307 752l-29 58l234 133l39 -93z" />
    <glyph glyph-name="Thorn" unicode="&#xde;" horiz-adv-x="581" 
d="M3 0l10 63l91 24l-18 -18l90 562l13 -20l-86 23l10 63l270 5l-10 -63l-93 -28l16 21l-13 -85l-9 11h101q70 0 112 -19t61.5 -55t19.5 -86q0 -74 -36.5 -129t-103 -85.5t-155.5 -30.5h-65l14 15l-15 -99l-8 18l90 -24l-10 -63h-276zM232 230l-10 11h54q56 0 93.5 18
t57.5 50t20 73q0 42 -24 65t-82 23h-83l14 12z" />
    <glyph glyph-name="germandbls" unicode="&#xdf;" horiz-adv-x="655" 
d="M-48 -242q-20 0 -36.5 2.5t-29.5 4.5l19 84q9 -1 17.5 -2t17.5 -1q45 0 72.5 23.5t37.5 86.5l79 500l14 -14h-99l11 69l100 19l-16 -17l10 61q12 73 52.5 119t97.5 68t118 22q56 0 100 -16.5t70.5 -49.5t26.5 -81q0 -34 -12 -58.5t-31 -42.5t-40.5 -32.5t-40.5 -28.5
t-31 -30t-12 -37q0 -22 13 -36.5t33 -27t42.5 -26t42.5 -31.5t33 -45t13 -66q0 -60 -30.5 -101.5t-81.5 -63t-113 -21.5q-33 0 -69 6.5t-72 19.5l26 143h72l-2 -96l-15 21q17 -8 33 -11.5t31 -3.5q28 0 51.5 10.5t38 30t14.5 45.5q0 25 -13 41.5t-33.5 30t-43 27t-42.5 31
t-33 42t-13 60.5q0 35 12 59.5t31.5 42.5t41 32.5t40.5 29.5t31 33.5t12 44.5q0 37 -25.5 55.5t-65.5 18.5q-50 0 -90 -30.5t-51 -98.5l-93 -589q-10 -66 -31.5 -110t-51 -69t-64.5 -36t-73 -11z" />
    <glyph glyph-name="agrave" unicode="&#xe0;" horiz-adv-x="589" 
d="M175 -11q-39 0 -72 21t-52.5 64.5t-19.5 113.5q0 74 22.5 138t63.5 113t96 77t119 28q41 0 84.5 -13.5t87.5 -44.5l-53 10l25 36h64l-80 -505l-41 76l122 -37l-10 -65l-180 -6l31 183l34 61q-18 -83 -58.5 -138.5t-89 -83.5t-93.5 -28zM222 85q23 0 48.5 14.5t48.5 44
t41.5 72.5t27.5 101l23 139l19 -39q-26 19 -51 27.5t-50 8.5q-39 0 -71.5 -20.5t-56.5 -56t-37 -80.5t-13 -94q0 -61 20 -89t51 -28zM284 829l194 -160l-43 -60l-212 132z" />
    <glyph glyph-name="aacute" unicode="&#xe1;" horiz-adv-x="589" 
d="M175 -11q-39 0 -72 21t-52.5 64.5t-19.5 113.5q0 74 22.5 138t63.5 113t96 77t119 28q41 0 84.5 -13.5t87.5 -44.5l-53 10l25 36h64l-80 -505l-41 76l122 -37l-10 -65l-180 -6l31 183l34 61q-18 -83 -58.5 -138.5t-89 -83.5t-93.5 -28zM222 85q23 0 48.5 14.5t48.5 44
t41.5 72.5t27.5 101l23 139l19 -39q-26 19 -51 27.5t-50 8.5q-39 0 -71.5 -20.5t-56.5 -56t-37 -80.5t-13 -94q0 -61 20 -89t51 -28zM288 610l-44 61l204 155l59 -87z" />
    <glyph glyph-name="acircumflex" unicode="&#xe2;" horiz-adv-x="589" 
d="M175 -11q-39 0 -72 21t-52.5 64.5t-19.5 113.5q0 74 22.5 138t63.5 113t96 77t119 28q41 0 84.5 -13.5t87.5 -44.5l-53 10l25 36h64l-80 -505l-41 76l122 -37l-10 -65l-180 -6l31 183l34 61q-18 -83 -58.5 -138.5t-89 -83.5t-93.5 -28zM222 85q23 0 48.5 14.5t48.5 44
t41.5 72.5t27.5 101l23 139l19 -39q-26 19 -51 27.5t-50 8.5q-39 0 -71.5 -20.5t-56.5 -56t-37 -80.5t-13 -94q0 -61 20 -89t51 -28zM213 621l-33 46l153 138l68 7l121 -145l-46 -46l-155 127l80 -1z" />
    <glyph glyph-name="atilde" unicode="&#xe3;" horiz-adv-x="589" 
d="M175 -11q-39 0 -72 21t-52.5 64.5t-19.5 113.5q0 74 22.5 138t63.5 113t96 77t119 28q41 0 84.5 -13.5t87.5 -44.5l-53 10l25 36h64l-80 -505l-41 76l122 -37l-10 -65l-180 -6l31 183l34 61q-18 -83 -58.5 -138.5t-89 -83.5t-93.5 -28zM222 85q23 0 48.5 14.5t48.5 44
t41.5 72.5t27.5 101l23 139l19 -39q-26 19 -51 27.5t-50 8.5q-39 0 -71.5 -20.5t-56.5 -56t-37 -80.5t-13 -94q0 -61 20 -89t51 -28zM414 643q-26 0 -46.5 12.5t-39 24.5t-40.5 12q-19 0 -36 -11.5t-34 -36.5l-46 27q27 56 58.5 83.5t65.5 27.5q27 0 47 -12.5t39 -24.5
t40 -12q19 0 35.5 12t34.5 36l45 -25q-27 -57 -57.5 -85t-65.5 -28z" />
    <glyph glyph-name="adieresis" unicode="&#xe4;" horiz-adv-x="589" 
d="M175 -11q-39 0 -72 21t-52.5 64.5t-19.5 113.5q0 74 22.5 138t63.5 113t96 77t119 28q41 0 84.5 -13.5t87.5 -44.5l-53 10l25 36h64l-80 -505l-41 76l122 -37l-10 -65l-180 -6l31 183l34 61q-18 -83 -58.5 -138.5t-89 -83.5t-93.5 -28zM222 85q23 0 48.5 14.5t48.5 44
t41.5 72.5t27.5 101l23 139l19 -39q-26 19 -51 27.5t-50 8.5q-39 0 -71.5 -20.5t-56.5 -56t-37 -80.5t-13 -94q0 -61 20 -89t51 -28zM246 630q-26 0 -40.5 17t-14.5 45q0 32 18.5 52.5t47.5 20.5q26 0 41 -16.5t15 -45.5q0 -32 -19 -52.5t-48 -20.5zM450 630q-26 0 -41 17
t-15 45q0 32 18.5 52.5t48.5 20.5q26 0 41 -16.5t15 -45.5q0 -32 -19 -52.5t-48 -20.5z" />
    <glyph glyph-name="aring" unicode="&#xe5;" horiz-adv-x="589" 
d="M175 -11q-39 0 -72 21t-52.5 64.5t-19.5 113.5q0 74 22.5 138t63.5 113t96 77t119 28q41 0 84.5 -13.5t87.5 -44.5l-53 10l25 36h64l-80 -505l-41 76l122 -37l-10 -65l-180 -6l31 183l34 61q-18 -83 -58.5 -138.5t-89 -83.5t-93.5 -28zM222 85q23 0 48.5 14.5t48.5 44
t41.5 72.5t27.5 101l23 139l19 -39q-26 19 -51 27.5t-50 8.5q-39 0 -71.5 -20.5t-56.5 -56t-37 -80.5t-13 -94q0 -61 20 -89t51 -28zM343 609q-52 0 -79 28t-27 70q0 36 17 66t48 47.5t73 17.5q51 0 78 -27.5t27 -71.5q0 -34 -17 -64t-47 -48t-73 -18zM348 667q30 0 45.5 22
t15.5 48q0 20 -10 32t-31 12q-29 0 -45 -22t-16 -49q0 -20 10 -31.5t31 -11.5z" />
    <glyph glyph-name="ae" unicode="&#xe6;" horiz-adv-x="803" 
d="M358 145q-6 -34 -27 -62.5t-50 -49.5t-62 -32.5t-64 -11.5q-59 0 -97 34.5t-38 102.5q0 48 22 79.5t60 49t87 24.5t103 7h56l-16 -13q6 35 11 67t5 50q0 34 -19.5 49.5t-56.5 15.5q-31 0 -67 -7.5t-74 -16.5l58 62l-32 -124h-70l10 137q53 15 109 26t103 11q54 0 88 -22
t34 -71q0 -7 -1 -13.5l-3 -19.5l-28 8q37 52 93.5 85t129.5 33q80 0 124.5 -37t44.5 -102q0 -43 -21 -75.5t-58 -54t-84 -34t-99.5 -18t-103.5 -4.5l20 27q0 -8 -0.5 -16.5t-0.5 -17.5q0 -70 30 -102t79 -32q32 0 70 12t80 35l33 -73q-52 -30 -106 -46t-103 -16
q-94 0 -148 56.5t-54 153.5q0 12 0.5 26t2.5 27l27 -34h-49q-30 0 -59.5 -2t-54.5 -9.5t-40 -23.5t-15 -43q0 -30 17 -47t48 -17q18 0 39 9.5t40 26.5t31.5 39.5t12.5 47.5zM446 252l-18 37q31 0 65 2t66 8t58.5 18t42 31t15.5 46q0 29 -18.5 46.5t-52.5 17.5q-33 0 -60 -18
t-47.5 -48.5t-32.5 -66.5t-18 -73z" />
    <glyph glyph-name="ccedilla" unicode="&#xe7;" horiz-adv-x="484" 
d="M230 -11q-56 0 -101 24t-71 73.5t-26 126.5q0 71 23 131.5t63.5 105t94 69t114.5 24.5q37 0 76.5 -10t78.5 -31l-22 -139h-78l-2 86l11 -14q-40 21 -76 21q-37 0 -67.5 -19.5t-51.5 -53.5t-32.5 -76t-11.5 -87q0 -75 29 -108t75 -33q29 0 61.5 11t67.5 31l33 -73
q-47 -29 -95.5 -44t-92.5 -15zM198 -248q-24 0 -49.5 6t-49.5 18l30 59q36 -16 73 -16q23 0 39.5 9.5t16.5 27.5q0 21 -25.5 30t-64.5 10l22 104h69l-8 -52q49 -5 71 -26t22 -55q0 -35 -20 -61t-53 -40t-73 -14z" />
    <glyph glyph-name="egrave" unicode="&#xe8;" horiz-adv-x="510" 
d="M233 -11q-56 0 -101.5 22.5t-72 70.5t-26.5 125q0 64 20 124t58 108t92.5 76t123.5 28q81 0 126.5 -37t45.5 -97q0 -46 -27.5 -81.5t-74.5 -60t-105 -36.5t-120 -12h-19t-17 1l7 79q11 -1 22.5 -2t23.5 -1q35 0 69.5 6.5t62.5 19t45 31.5t17 44q0 27 -19 44t-53 17
q-38 0 -68.5 -22.5t-51 -59.5t-31.5 -80.5t-11 -86.5q0 -70 29.5 -102t80.5 -32q34 0 72.5 12t78.5 34l30 -69q-51 -31 -104 -47t-103 -16zM273 829l194 -160l-43 -60l-212 132z" />
    <glyph glyph-name="eacute" unicode="&#xe9;" horiz-adv-x="510" 
d="M233 -11q-56 0 -101.5 22.5t-72 70.5t-26.5 125q0 64 20 124t58 108t92.5 76t123.5 28q81 0 126.5 -37t45.5 -97q0 -46 -27.5 -81.5t-74.5 -60t-105 -36.5t-120 -12h-19t-17 1l7 79q11 -1 22.5 -2t23.5 -1q35 0 69.5 6.5t62.5 19t45 31.5t17 44q0 27 -19 44t-53 17
q-38 0 -68.5 -22.5t-51 -59.5t-31.5 -80.5t-11 -86.5q0 -70 29.5 -102t80.5 -32q34 0 72.5 12t78.5 34l30 -69q-51 -31 -104 -47t-103 -16zM278 610l-44 61l204 155l59 -87z" />
    <glyph glyph-name="ecircumflex" unicode="&#xea;" horiz-adv-x="510" 
d="M233 -11q-56 0 -101.5 22.5t-72 70.5t-26.5 125q0 64 20 124t58 108t92.5 76t123.5 28q81 0 126.5 -37t45.5 -97q0 -46 -27.5 -81.5t-74.5 -60t-105 -36.5t-120 -12h-19t-17 1l7 79q11 -1 22.5 -2t23.5 -1q35 0 69.5 6.5t62.5 19t45 31.5t17 44q0 27 -19 44t-53 17
q-38 0 -68.5 -22.5t-51 -59.5t-31.5 -80.5t-11 -86.5q0 -70 29.5 -102t80.5 -32q34 0 72.5 12t78.5 34l30 -69q-51 -31 -104 -47t-103 -16zM203 621l-33 46l153 138l68 7l121 -145l-46 -46l-155 127l80 -1z" />
    <glyph glyph-name="edieresis" unicode="&#xeb;" horiz-adv-x="510" 
d="M233 -11q-56 0 -101.5 22.5t-72 70.5t-26.5 125q0 64 20 124t58 108t92.5 76t123.5 28q81 0 126.5 -37t45.5 -97q0 -46 -27.5 -81.5t-74.5 -60t-105 -36.5t-120 -12h-19t-17 1l7 79q11 -1 22.5 -2t23.5 -1q35 0 69.5 6.5t62.5 19t45 31.5t17 44q0 27 -19 44t-53 17
q-38 0 -68.5 -22.5t-51 -59.5t-31.5 -80.5t-11 -86.5q0 -70 29.5 -102t80.5 -32q34 0 72.5 12t78.5 34l30 -69q-51 -31 -104 -47t-103 -16zM236 630q-26 0 -40.5 17t-14.5 45q0 32 18.5 52.5t47.5 20.5q26 0 41 -16.5t15 -45.5q0 -32 -19 -52.5t-48 -20.5zM440 630
q-26 0 -41 17t-15 45q0 32 18.5 52.5t48.5 20.5q26 0 41 -16.5t15 -45.5q0 -32 -19 -52.5t-48 -20.5z" />
    <glyph glyph-name="igrave" unicode="&#xec;" horiz-adv-x="300" 
d="M49 -4l80 507l43 -74l-122 37l10 63l192 7l-81 -509l-40 75l120 -38l-10 -63zM148 829l194 -160l-43 -60l-212 132z" />
    <glyph glyph-name="iacute" unicode="&#xed;" horiz-adv-x="300" 
d="M49 -4l80 507l43 -74l-122 37l10 63l192 7l-81 -509l-40 75l120 -38l-10 -63zM152 610l-44 61l204 155l59 -87z" />
    <glyph glyph-name="icircumflex" unicode="&#xee;" horiz-adv-x="300" 
d="M89 621l-37 45l133 139l68 7l94 -152l-49 -39l-119 130l75 -4zM49 -4l80 507l43 -74l-122 37l10 63l192 7l-81 -509l-40 75l120 -38l-10 -63z" />
    <glyph glyph-name="idieresis" unicode="&#xef;" horiz-adv-x="302" 
d="M49 -4l80 507l43 -74l-122 37l10 63l192 7l-81 -509l-40 75l120 -38l-10 -63zM112 630q-26 0 -40.5 17t-14.5 45q0 32 18.5 52.5t47.5 20.5q26 0 41 -16.5t15 -45.5q0 -32 -19 -52.5t-48 -20.5zM298 630q-26 0 -41 17t-15 45q0 32 18.5 52.5t48.5 20.5q26 0 41 -16.5
t15 -45.5q0 -32 -19 -52.5t-48 -20.5z" />
    <glyph glyph-name="eth" unicode="&#xf0;" horiz-adv-x="568" 
d="M223 -11q-95 0 -145.5 54t-50.5 150q0 61 19 116.5t54.5 99t84 69t109.5 25.5q42 0 73 -13t52.5 -36.5t31.5 -55.5h-22q2 98 -24 163.5t-79.5 99t-135.5 35.5l17 87q87 0 149 -29t101 -80.5t57.5 -120.5t18.5 -149q0 -88 -20 -163.5t-60 -132t-97.5 -88t-132.5 -31.5z
M239 76q42 0 72.5 22t50.5 56.5t29.5 74t9.5 76.5q0 56 -22 85.5t-70 29.5q-42 0 -72.5 -21.5t-50 -56t-29 -74t-9.5 -77.5q0 -57 22.5 -86t68.5 -29zM259 559l-30 51l274 176l31 -52z" />
    <glyph glyph-name="ntilde" unicode="&#xf1;" horiz-adv-x="613" 
d="M366 -4l55 339q6 35 2 60.5t-17.5 39.5t-37.5 14q-23 0 -48.5 -14t-49 -42t-41.5 -71t-27 -102l-35 -220h-118l80 503l42 -74l-121 37l10 63l186 7l-37 -179l-38 -63q23 88 64.5 143t90 80.5t92.5 25.5q46 0 77 -22t44 -62.5t3 -97.5l-47 -297l-51 39l125 -37l-10 -65z
M432 643q-26 0 -46.5 12.5t-39 24.5t-40.5 12q-19 0 -36 -11.5t-34 -36.5l-46 27q27 56 58.5 83.5t65.5 27.5q27 0 47 -12.5t39 -24.5t40 -12q19 0 35.5 12t34.5 36l45 -25q-27 -57 -57.5 -85t-65.5 -28z" />
    <glyph glyph-name="ograve" unicode="&#xf2;" horiz-adv-x="559" 
d="M327 543q59 0 104 -22t70 -69.5t25 -126.5q0 -62 -18 -122t-54 -108.5t-91 -77t-130 -28.5q-59 0 -104 22t-70 70t-25 125q0 63 18 122.5t54 108t91 77.5t130 29zM311 456q-42 0 -72 -25t-48.5 -63t-27.5 -81.5t-9 -80.5q0 -61 23 -95.5t72 -34.5q41 0 71 25t49 63.5
t28 82t9 80.5q0 61 -23 95t-72 34zM282 829l194 -160l-43 -60l-212 132z" />
    <glyph glyph-name="oacute" unicode="&#xf3;" horiz-adv-x="559" 
d="M327 543q59 0 104 -22t70 -69.5t25 -126.5q0 -62 -18 -122t-54 -108.5t-91 -77t-130 -28.5q-59 0 -104 22t-70 70t-25 125q0 63 18 122.5t54 108t91 77.5t130 29zM311 456q-42 0 -72 -25t-48.5 -63t-27.5 -81.5t-9 -80.5q0 -61 23 -95.5t72 -34.5q41 0 71 25t49 63.5
t28 82t9 80.5q0 61 -23 95t-72 34zM287 610l-44 61l204 155l59 -87z" />
    <glyph glyph-name="ocircumflex" unicode="&#xf4;" horiz-adv-x="559" 
d="M327 543q59 0 104 -22t70 -69.5t25 -126.5q0 -62 -18 -122t-54 -108.5t-91 -77t-130 -28.5q-59 0 -104 22t-70 70t-25 125q0 63 18 122.5t54 108t91 77.5t130 29zM311 456q-42 0 -72 -25t-48.5 -63t-27.5 -81.5t-9 -80.5q0 -61 23 -95.5t72 -34.5q41 0 71 25t49 63.5
t28 82t9 80.5q0 61 -23 95t-72 34zM212 621l-33 46l153 138l68 7l121 -145l-46 -46l-155 127l80 -1z" />
    <glyph glyph-name="otilde" unicode="&#xf5;" horiz-adv-x="559" 
d="M327 543q59 0 104 -22t70 -69.5t25 -126.5q0 -62 -18 -122t-54 -108.5t-91 -77t-130 -28.5q-59 0 -104 22t-70 70t-25 125q0 63 18 122.5t54 108t91 77.5t130 29zM311 456q-42 0 -72 -25t-48.5 -63t-27.5 -81.5t-9 -80.5q0 -61 23 -95.5t72 -34.5q41 0 71 25t49 63.5
t28 82t9 80.5q0 61 -23 95t-72 34zM413 643q-26 0 -46.5 12.5t-39 24.5t-40.5 12q-19 0 -36 -11.5t-34 -36.5l-46 27q27 56 58.5 83.5t65.5 27.5q27 0 47 -12.5t39 -24.5t40 -12q19 0 35.5 12t34.5 36l45 -25q-27 -57 -57.5 -85t-65.5 -28z" />
    <glyph glyph-name="odieresis" unicode="&#xf6;" horiz-adv-x="559" 
d="M327 543q59 0 104 -22t70 -69.5t25 -126.5q0 -62 -18 -122t-54 -108.5t-91 -77t-130 -28.5q-59 0 -104 22t-70 70t-25 125q0 63 18 122.5t54 108t91 77.5t130 29zM311 456q-42 0 -72 -25t-48.5 -63t-27.5 -81.5t-9 -80.5q0 -61 23 -95.5t72 -34.5q41 0 71 25t49 63.5
t28 82t9 80.5q0 61 -23 95t-72 34zM245 630q-26 0 -40.5 17t-14.5 45q0 32 18.5 52.5t47.5 20.5q26 0 41 -16.5t15 -45.5q0 -32 -19 -52.5t-48 -20.5zM449 630q-26 0 -41 17t-15 45q0 32 18.5 52.5t48.5 20.5q26 0 41 -16.5t15 -45.5q0 -32 -19 -52.5t-48 -20.5z" />
    <glyph glyph-name="divide" unicode="&#xf7;" horiz-adv-x="658" 
d="M569 394l-14 -88h-439l14 88h439zM306 97q-30 0 -47 17.5t-17 45.5q0 34 22.5 55.5t55.5 21.5q29 0 47 -17t18 -47q0 -35 -23 -55.5t-56 -20.5zM364 465q-30 0 -47 17.5t-17 45.5q0 34 22.5 55.5t55.5 21.5q29 0 47 -17t18 -47q0 -35 -23 -55.5t-56 -20.5z" />
    <glyph glyph-name="oslash" unicode="&#xf8;" horiz-adv-x="583" 
d="M524 623l46 -30l-140 -185l-7 -5l-244 -325l-5 -11l-119 -156l-46 30l137 181l10 9l241 321l5 10zM339 543q58 0 103 -22t70 -69.5t25 -125.5q0 -62 -18 -122.5t-54 -109t-91.5 -77t-129.5 -28.5q-58 0 -103 22t-70.5 70t-25.5 125q0 63 18 122.5t54.5 108t91.5 77.5
t130 29zM324 456q-43 0 -73.5 -25t-49 -63.5t-27 -82t-8.5 -80.5q0 -63 22.5 -96t69.5 -33q43 0 73 25t49 64t28 82t9 80q0 64 -23 96.5t-70 32.5z" />
    <glyph glyph-name="ugrave" unicode="&#xf9;" horiz-adv-x="612" 
d="M193 -11q-44 -1 -75 21.5t-43.5 63t-4.5 96.5l47 297l10 -23l-82 22l10 63l191 7l-54 -339q-5 -35 -1.5 -60.5t17 -39.5t36.5 -14q24 0 49 13.5t48.5 42t42 71.5t27.5 102l34 220h118l-73 -466l-15 22l89 -25l-10 -62l-181 -5l32 181l36 62q-21 -88 -62.5 -143t-90 -81
t-95.5 -26zM296 829l194 -160l-43 -60l-212 132z" />
    <glyph glyph-name="uacute" unicode="&#xfa;" horiz-adv-x="612" 
d="M193 -11q-44 -1 -75 21.5t-43.5 63t-4.5 96.5l47 297l10 -23l-82 22l10 63l191 7l-54 -339q-5 -35 -1.5 -60.5t17 -39.5t36.5 -14q24 0 49 13.5t48.5 42t42 71.5t27.5 102l34 220h118l-73 -466l-15 22l89 -25l-10 -62l-181 -5l32 181l36 62q-21 -88 -62.5 -143t-90 -81
t-95.5 -26zM300 610l-44 61l204 155l59 -87z" />
    <glyph glyph-name="ucircumflex" unicode="&#xfb;" horiz-adv-x="612" 
d="M193 -11q-44 -1 -75 21.5t-43.5 63t-4.5 96.5l47 297l10 -23l-82 22l10 63l191 7l-54 -339q-5 -35 -1.5 -60.5t17 -39.5t36.5 -14q24 0 49 13.5t48.5 42t42 71.5t27.5 102l34 220h118l-73 -466l-15 22l89 -25l-10 -62l-181 -5l32 181l36 62q-21 -88 -62.5 -143t-90 -81
t-95.5 -26zM226 621l-33 46l153 138l68 7l121 -145l-46 -46l-155 127l80 -1z" />
    <glyph glyph-name="udieresis" unicode="&#xfc;" horiz-adv-x="612" 
d="M193 -11q-44 -1 -75 21.5t-43.5 63t-4.5 96.5l47 297l10 -23l-82 22l10 63l191 7l-54 -339q-5 -35 -1.5 -60.5t17 -39.5t36.5 -14q24 0 49 13.5t48.5 42t42 71.5t27.5 102l34 220h118l-73 -466l-15 22l89 -25l-10 -62l-181 -5l32 181l36 62q-21 -88 -62.5 -143t-90 -81
t-95.5 -26zM259 630q-26 0 -40.5 17t-14.5 45q0 32 18.5 52.5t47.5 20.5q26 0 41 -16.5t15 -45.5q0 -32 -19 -52.5t-48 -20.5zM463 630q-26 0 -41 17t-15 45q0 32 18.5 52.5t48.5 20.5q26 0 41 -16.5t15 -45.5q0 -32 -19 -52.5t-48 -20.5z" />
    <glyph glyph-name="yacute" unicode="&#xfd;" horiz-adv-x="530" 
d="M-55 -235l15 87q13 -1 24 -2t21 -1q45 0 76.5 19t58.5 58t56 99l-6 -42l-116 480l10 -11l-57 13l10 63l147 8l85 -459l-31 6l176 381l5 -12l-62 13l9 63l209 8l-9 -63l-61 -18l19 11l-229 -465q-13 -28 -30.5 -60.5t-41 -64.5t-54 -58.5t-71 -42.5t-91.5 -16q-30 0 -62 6
zM243 610l-44 61l204 155l59 -87z" />
    <glyph glyph-name="thorn" unicode="&#xfe;" horiz-adv-x="575" 
d="M-76 -230l10 63l131 37l-62 -66l143 901l15 -21l-89 22l10 64l194 6l-71 -421l-43 -61q20 84 58.5 139.5t86.5 83t93 27.5q39 0 71.5 -20t52 -65t19.5 -118q0 -96 -33.5 -169t-94 -118t-144.5 -57.5t-184 11.5l67 10l-34 -217l-42 71l129 -39l-10 -63h-273zM162 65
l-24 34q65 -24 117.5 -16.5t90 39.5t57.5 85.5t20 121.5q0 63 -20 91t-51 28q-23 0 -48 -14.5t-49 -43.5t-42 -72.5t-27 -101.5z" />
    <glyph glyph-name="ydieresis" unicode="&#xff;" horiz-adv-x="530" 
d="M-55 -235l15 87q13 -1 24 -2t21 -1q45 0 76.5 19t58.5 58t56 99l-6 -42l-116 480l10 -11l-57 13l10 63l147 8l85 -459l-31 6l176 381l5 -12l-62 13l9 63l209 8l-9 -63l-61 -18l19 11l-229 -465q-13 -28 -30.5 -60.5t-41 -64.5t-54 -58.5t-71 -42.5t-91.5 -16q-30 0 -62 6
zM201 630q-26 0 -40.5 17t-14.5 45q0 32 18.5 52.5t47.5 20.5q26 0 41 -16.5t15 -45.5q0 -32 -19 -52.5t-48 -20.5zM405 630q-26 0 -41 17t-15 45q0 32 18.5 52.5t48.5 20.5q26 0 41 -16.5t15 -45.5q0 -32 -19 -52.5t-48 -20.5z" />
    <glyph glyph-name="Amacron" unicode="&#x100;" horiz-adv-x="683" 
d="M594 60l-26 29l76 -26l-10 -63h-258l11 63l86 24l-7 -19l-21 140l9 -17h-265l19 16l-67 -138l-2 16l80 -22l-10 -63h-245l10 63l85 25l-34 -25l328 638l124 3zM232 260l-6 19h223l-10 -22l-55 377l29 -1zM582 872l-14 -86h-278l13 86h279z" />
    <glyph glyph-name="amacron" unicode="&#x101;" horiz-adv-x="589" 
d="M175 -11q-39 0 -72 21t-52.5 64.5t-19.5 113.5q0 74 22.5 138t63.5 113t96 77t119 28q41 0 84.5 -13.5t87.5 -44.5l-53 10l25 36h64l-80 -505l-41 76l122 -37l-10 -65l-180 -6l31 183l34 61q-18 -83 -58.5 -138.5t-89 -83.5t-93.5 -28zM222 85q23 0 48.5 14.5t48.5 44
t41.5 72.5t27.5 101l23 139l19 -39q-26 19 -51 27.5t-50 8.5q-39 0 -71.5 -20.5t-56.5 -56t-37 -80.5t-13 -94q0 -61 20 -89t51 -28zM501 750l-14 -86h-278l13 86h279z" />
    <glyph glyph-name="Abreve" unicode="&#x102;" horiz-adv-x="683" 
d="M594 60l-26 29l76 -26l-10 -63h-258l11 63l86 24l-7 -19l-21 140l9 -17h-265l19 16l-67 -138l-2 16l80 -22l-10 -63h-245l10 63l85 25l-34 -25l328 638l124 3zM232 260l-6 19h223l-10 -22l-55 377l29 -1zM432 764q-38 0 -70 17.5t-49 51t-11 81.5h69q-2 -40 19 -55.5
t48 -15.5q30 0 58 19t36 54l67 -4q-7 -50 -33 -82.5t-62 -49t-72 -16.5z" />
    <glyph glyph-name="abreve" unicode="&#x103;" horiz-adv-x="589" 
d="M175 -11q-39 0 -72 21t-52.5 64.5t-19.5 113.5q0 74 22.5 138t63.5 113t96 77t119 28q41 0 84.5 -13.5t87.5 -44.5l-53 10l25 36h64l-80 -505l-41 76l122 -37l-10 -65l-180 -6l31 183l34 61q-18 -83 -58.5 -138.5t-89 -83.5t-93.5 -28zM222 85q23 0 48.5 14.5t48.5 44
t41.5 72.5t27.5 101l23 139l19 -39q-26 19 -51 27.5t-50 8.5q-39 0 -71.5 -20.5t-56.5 -56t-37 -80.5t-13 -94q0 -61 20 -89t51 -28zM350 626q-38 0 -70 17.5t-48.5 52.5t-9.5 86h70q-2 -38 17 -54.5t45 -16.5q31 0 57.5 19.5t35.5 53.5l68 -4q-7 -52 -33 -86t-61 -51
t-71 -17z" />
    <glyph glyph-name="Aogonek" unicode="&#x104;" horiz-adv-x="683" 
d="M593 60l-26 29l77 -26l-10 -63h-160l-30 208l9 -17h-263l19 16l-67 -138l-2 16l79 -22l-10 -63h-245l10 63l86 25l-35 -25l328 638l124 3zM233 260l-6 19h221l-10 -22l-54 377l29 -1zM416 -223q-53 0 -80.5 24.5t-27.5 59.5q0 33 24.5 70t73 68t123.5 45l14 -44
q-45 -8 -77.5 -24.5t-49 -36.5t-16.5 -40t17 -31.5t47 -11.5q10 0 21.5 1.5t23.5 4.5l-4 -70q-25 -7 -47.5 -11t-41.5 -4z" />
    <glyph glyph-name="aogonek" unicode="&#x105;" horiz-adv-x="589" 
d="M175 -11q-39 0 -72 21t-52.5 64.5t-19.5 113.5q0 74 22.5 138t63.5 113t96 77t119 28q41 0 84.5 -13.5t87.5 -44.5l-53 10l25 36h64l-80 -505l-41 76l122 -37l-10 -65l-180 -6l31 183l34 61q-18 -83 -58.5 -138.5t-89 -83.5t-93.5 -28zM222 85q23 0 48.5 14.5t48.5 44
t41.5 72.5t27.5 101l23 139l19 -39q-26 19 -51 27.5t-50 8.5q-39 0 -71.5 -20.5t-56.5 -56t-37 -80.5t-13 -94q0 -61 20 -89t51 -28zM350 -223q-51 0 -80 22t-29 60q0 30 18.5 62.5t56 62t94.5 49.5l35 -33q-53 -17 -83 -46t-30 -55q0 -20 17 -31.5t47 -11.5q7 0 15.5 1
t17.5 2l-3 -71q-21 -5 -39.5 -8t-36.5 -3z" />
    <glyph glyph-name="Cacute" unicode="&#x106;" horiz-adv-x="617" 
d="M307 -11q-68 0 -124.5 31.5t-90.5 97t-34 164.5q0 83 25.5 160.5t72.5 138.5t114 96.5t150 35.5q49 0 101 -13t106 -39l-33 -170h-72l-3 117l21 -19q-32 14 -64 21t-59 7q-56 0 -99 -29.5t-73 -78t-45 -107t-15 -115.5q0 -70 20 -113t54.5 -63.5t76.5 -20.5
q41 0 86.5 18.5t88.5 54.5l40 -76q-58 -49 -121.5 -73.5t-122.5 -24.5zM352 752l-29 58l234 133l39 -93z" />
    <glyph glyph-name="cacute" unicode="&#x107;" horiz-adv-x="484" 
d="M230 -11q-56 0 -101 24t-71 73.5t-26 126.5q0 71 23 131.5t63.5 105t94 69t114.5 24.5q37 0 76.5 -10t78.5 -31l-22 -139h-78l-2 86l11 -14q-40 21 -76 21q-37 0 -67.5 -19.5t-51.5 -53.5t-32.5 -76t-11.5 -87q0 -75 29 -108t75 -33q29 0 61.5 11t67.5 31l33 -73
q-47 -29 -95.5 -44t-92.5 -15zM271 610l-44 61l204 155l59 -87z" />
    <glyph glyph-name="Ccircumflex" unicode="&#x108;" horiz-adv-x="617" 
d="M307 -11q-68 0 -124.5 31.5t-90.5 97t-34 164.5q0 83 25.5 160.5t72.5 138.5t114 96.5t150 35.5q49 0 101 -13t106 -39l-33 -170h-72l-3 117l21 -19q-32 14 -64 21t-59 7q-56 0 -99 -29.5t-73 -78t-45 -107t-15 -115.5q0 -70 20 -113t54.5 -63.5t76.5 -20.5
q41 0 86.5 18.5t88.5 54.5l40 -76q-58 -49 -121.5 -73.5t-122.5 -24.5zM312 748l-33 48l156 127l68 6l127 -133l-46 -48l-162 116l80 -2z" />
    <glyph glyph-name="ccircumflex" unicode="&#x109;" horiz-adv-x="484" 
d="M230 -11q-56 0 -101 24t-71 73.5t-26 126.5q0 71 23 131.5t63.5 105t94 69t114.5 24.5q37 0 76.5 -10t78.5 -31l-22 -139h-78l-2 86l11 -14q-40 21 -76 21q-37 0 -67.5 -19.5t-51.5 -53.5t-32.5 -76t-11.5 -87q0 -75 29 -108t75 -33q29 0 61.5 11t67.5 31l33 -73
q-47 -29 -95.5 -44t-92.5 -15zM197 621l-33 46l153 138l68 7l121 -145l-46 -46l-155 127l80 -1z" />
    <glyph glyph-name="Cdotaccent" unicode="&#x10a;" horiz-adv-x="617" 
d="M307 -11q-68 0 -124.5 31.5t-90.5 97t-34 164.5q0 83 25.5 160.5t72.5 138.5t114 96.5t150 35.5q49 0 101 -13t106 -39l-33 -170h-72l-3 117l21 -19q-32 14 -64 21t-59 7q-56 0 -99 -29.5t-73 -78t-45 -107t-15 -115.5q0 -70 20 -113t54.5 -63.5t76.5 -20.5
q41 0 86.5 18.5t88.5 54.5l40 -76q-58 -49 -121.5 -73.5t-122.5 -24.5zM452 763q-30 0 -47 18t-17 48q0 36 22.5 59t57.5 23q29 0 46.5 -17.5t17.5 -48.5q0 -35 -22 -58.5t-58 -23.5z" />
    <glyph glyph-name="cdotaccent" unicode="&#x10b;" horiz-adv-x="484" 
d="M230 -11q-56 0 -101 24t-71 73.5t-26 126.5q0 71 23 131.5t63.5 105t94 69t114.5 24.5q37 0 76.5 -10t78.5 -31l-22 -139h-78l-2 86l11 -14q-40 21 -76 21q-37 0 -67.5 -19.5t-51.5 -53.5t-32.5 -76t-11.5 -87q0 -75 29 -108t75 -33q29 0 61.5 11t67.5 31l33 -73
q-47 -29 -95.5 -44t-92.5 -15zM329 623q-30 0 -47 18t-17 48q0 36 22.5 59t57.5 23q29 0 46.5 -17.5t17.5 -48.5q0 -35 -22 -58.5t-58 -23.5z" />
    <glyph glyph-name="Ccaron" unicode="&#x10c;" horiz-adv-x="617" 
d="M307 -11q-68 0 -124.5 31.5t-90.5 97t-34 164.5q0 83 25.5 160.5t72.5 138.5t114 96.5t150 35.5q49 0 101 -13t106 -39l-33 -170h-72l-3 117l21 -19q-32 14 -64 21t-59 7q-56 0 -99 -29.5t-73 -78t-45 -107t-15 -115.5q0 -70 20 -113t54.5 -63.5t76.5 -20.5
q41 0 86.5 18.5t88.5 54.5l40 -76q-58 -49 -121.5 -73.5t-122.5 -24.5zM612 939l32 -49l-156 -127l-68 -6l-127 133l47 49l161 -116l-80 1z" />
    <glyph glyph-name="ccaron" unicode="&#x10d;" horiz-adv-x="484" 
d="M230 -11q-56 0 -101 24t-71 73.5t-26 126.5q0 71 23 131.5t63.5 105t94 69t114.5 24.5q37 0 76.5 -10t78.5 -31l-22 -139h-78l-2 86l11 -14q-40 21 -76 21q-37 0 -67.5 -19.5t-51.5 -53.5t-32.5 -76t-11.5 -87q0 -75 29 -108t75 -33q29 0 61.5 11t67.5 31l33 -73
q-47 -29 -95.5 -44t-92.5 -15zM484 812l34 -46l-154 -138l-68 -6l-121 144l46 46l156 -127l-80 1z" />
    <glyph glyph-name="Dcaron" unicode="&#x10e;" horiz-adv-x="705" 
d="M404 702q88 0 148.5 -29t91 -89t30.5 -154q0 -86 -25.5 -163.5t-75.5 -137.5t-122 -94.5t-166 -34.5h-282l10 63l91 24l-18 -18l90 562l13 -20l-86 23l10 63l207 5h84zM306 90q50 0 89.5 22.5t68 60t47 83.5t27.5 93.5t9 88.5q0 57 -17 95.5t-53 58.5t-92 20h-112l23 22
l-90 -568l-14 24h114zM546 939l32 -49l-156 -127l-68 -6l-127 133l47 49l161 -116l-80 1z" />
    <glyph glyph-name="dcaron" unicode="&#x10f;" horiz-adv-x="590" 
d="M175 -11q-39 0 -72 21t-52.5 64.5t-19.5 113.5q0 74 22.5 138t63.5 113t96 77t119 28q41 0 84.5 -13.5t87.5 -44.5l-85 23l37 233l42 -72l-123 37l10 63l194 6l-119 -749l-41 76l122 -37l-10 -65l-180 -6l31 183l35 61q-19 -83 -59 -138.5t-89 -83.5t-94 -28zM222 85
q23 0 48 14.5t48.5 44t42 72.5t27.5 101l22 135l20 -35q-26 19 -51 27.5t-50 8.5q-39 0 -71.5 -20.5t-56.5 -56t-37 -80.5t-13 -94q0 -61 20 -89t51 -28zM658 571l-71 11q19 51 31.5 101t18.5 102l104 -5q-12 -47 -33 -99.5t-50 -109.5z" />
    <glyph glyph-name="Dcroat" unicode="&#x110;" horiz-adv-x="705" 
d="M53 316l14 83h319l-15 -83h-318zM404 702q88 0 148.5 -29t91 -89t30.5 -154q0 -86 -25.5 -163.5t-75.5 -137.5t-122 -94.5t-166 -34.5h-282l10 63l91 24l-18 -18l90 562l13 -20l-86 23l10 63l207 5h84zM306 90q50 0 89.5 22.5t68 60t47 83.5t27.5 93.5t9 88.5
q0 57 -17 95.5t-53 58.5t-92 20h-112l23 22l-90 -568l-14 24h114z" />
    <glyph glyph-name="dcroat" unicode="&#x111;" horiz-adv-x="591" 
d="M175 -11q-39 0 -72 21t-52.5 64.5t-19.5 113.5q0 74 22.5 138t63.5 113t96 77t119 28q41 0 84.5 -13.5t87.5 -44.5l-85 23l37 233l42 -68l-119 35l10 59l190 8l-119 -749l-41 76l122 -37l-10 -65l-180 -6l31 183l35 61q-19 -83 -59 -138.5t-89 -83.5t-94 -28zM222 85
q23 0 48 14.5t48.5 44t42 72.5t27.5 101l22 135l20 -35q-26 19 -51 27.5t-50 8.5q-39 0 -71.5 -20.5t-56.5 -56t-37 -80.5t-13 -94q0 -61 20 -89t51 -28zM249 585l10 67h366l-10 -67h-366z" />
    <glyph glyph-name="Emacron" unicode="&#x112;" horiz-adv-x="599" 
d="M455 181h72l-29 -181h-495l10 63l91 24l-18 -18l89 562l14 -20l-86 23l10 63l192 5h293l-27 -173h-71l-4 101l20 -18h-243l23 19l-40 -250l-14 21h235l-14 -88h-237l23 24l-43 -272l-14 24h255l-28 -20zM541 872l-14 -86h-278l13 86h279z" />
    <glyph glyph-name="emacron" unicode="&#x113;" horiz-adv-x="510" 
d="M233 -11q-56 0 -101.5 22.5t-72 70.5t-26.5 125q0 64 20 124t58 108t92.5 76t123.5 28q81 0 126.5 -37t45.5 -97q0 -46 -27.5 -81.5t-74.5 -60t-105 -36.5t-120 -12h-19t-17 1l7 79q11 -1 22.5 -2t23.5 -1q35 0 69.5 6.5t62.5 19t45 31.5t17 44q0 27 -19 44t-53 17
q-38 0 -68.5 -22.5t-51 -59.5t-31.5 -80.5t-11 -86.5q0 -70 29.5 -102t80.5 -32q34 0 72.5 12t78.5 34l30 -69q-51 -31 -104 -47t-103 -16zM491 750l-14 -86h-278l13 86h279z" />
    <glyph glyph-name="Ebreve" unicode="&#x114;" horiz-adv-x="599" 
d="M455 181h72l-29 -181h-495l10 63l91 24l-18 -18l89 562l14 -20l-86 23l10 63l192 5h293l-27 -173h-71l-4 101l20 -18h-243l23 19l-40 -250l-14 21h235l-14 -88h-237l23 24l-43 -272l-14 24h255l-28 -20zM391 764q-38 0 -70 17.5t-49 51t-11 81.5h69q-2 -40 19 -55.5
t48 -15.5q30 0 58 19t36 54l67 -4q-7 -50 -33 -82.5t-62 -49t-72 -16.5z" />
    <glyph glyph-name="ebreve" unicode="&#x115;" horiz-adv-x="510" 
d="M233 -11q-56 0 -101.5 22.5t-72 70.5t-26.5 125q0 64 20 124t58 108t92.5 76t123.5 28q81 0 126.5 -37t45.5 -97q0 -46 -27.5 -81.5t-74.5 -60t-105 -36.5t-120 -12h-19t-17 1l7 79q11 -1 22.5 -2t23.5 -1q35 0 69.5 6.5t62.5 19t45 31.5t17 44q0 27 -19 44t-53 17
q-38 0 -68.5 -22.5t-51 -59.5t-31.5 -80.5t-11 -86.5q0 -70 29.5 -102t80.5 -32q34 0 72.5 12t78.5 34l30 -69q-51 -31 -104 -47t-103 -16zM340 626q-38 0 -70 17.5t-48.5 52.5t-9.5 86h70q-2 -38 17 -54.5t45 -16.5q31 0 57.5 19.5t35.5 53.5l68 -4q-7 -52 -33 -86t-61 -51
t-71 -17z" />
    <glyph glyph-name="Edotaccent" unicode="&#x116;" horiz-adv-x="599" 
d="M455 181h72l-29 -181h-495l10 63l91 24l-18 -18l89 562l14 -20l-86 23l10 63l192 5h293l-27 -173h-71l-4 101l20 -18h-243l23 19l-40 -250l-14 21h235l-14 -88h-237l23 24l-43 -272l-14 24h255l-28 -20zM388 763q-30 0 -47 18t-17 48q0 36 22.5 59t57.5 23
q29 0 46.5 -17.5t17.5 -48.5q0 -35 -22 -58.5t-58 -23.5z" />
    <glyph glyph-name="edotaccent" unicode="&#x117;" horiz-adv-x="510" 
d="M233 -11q-56 0 -101.5 22.5t-72 70.5t-26.5 125q0 64 20 124t58 108t92.5 76t123.5 28q81 0 126.5 -37t45.5 -97q0 -46 -27.5 -81.5t-74.5 -60t-105 -36.5t-120 -12h-19t-17 1l7 79q11 -1 22.5 -2t23.5 -1q35 0 69.5 6.5t62.5 19t45 31.5t17 44q0 27 -19 44t-53 17
q-38 0 -68.5 -22.5t-51 -59.5t-31.5 -80.5t-11 -86.5q0 -70 29.5 -102t80.5 -32q34 0 72.5 12t78.5 34l30 -69q-51 -31 -104 -47t-103 -16zM335 623q-30 0 -47 18t-17 48q0 36 22.5 59t57.5 23q29 0 46.5 -17.5t17.5 -48.5q0 -35 -22 -58.5t-58 -23.5z" />
    <glyph glyph-name="Eogonek" unicode="&#x118;" horiz-adv-x="599" 
d="M455 181h72l-29 -181h-495l10 63l91 24l-18 -18l89 562l14 -20l-86 23l10 63l192 5h293l-27 -173h-71l-4 101l20 -18h-243l23 19l-40 -250l-14 21h235l-14 -88h-237l23 24l-43 -272l-14 24h255l-28 -20zM371 -223q-53 0 -80.5 24.5t-27.5 59.5q0 33 24.5 70t73 68
t123.5 45l14 -44q-45 -8 -77.5 -24.5t-49 -36.5t-16.5 -40t17 -31.5t47 -11.5q10 0 21.5 1.5t23.5 4.5l-4 -70q-25 -7 -47.5 -11t-41.5 -4z" />
    <glyph glyph-name="eogonek" unicode="&#x119;" horiz-adv-x="510" 
d="M233 -11q-56 0 -101.5 22.5t-72 70.5t-26.5 125q0 64 20 124t58 108t92.5 76t123.5 28q81 0 126.5 -37t45.5 -97q0 -46 -27.5 -81.5t-74.5 -60t-105 -36.5t-120 -12h-19t-17 1l7 79q11 -1 22.5 -2t23.5 -1q35 0 69.5 6.5t62.5 19t45 31.5t17 44q0 27 -19 44t-53 17
q-38 0 -68.5 -22.5t-51 -59.5t-31.5 -80.5t-11 -86.5q0 -70 29.5 -102t80.5 -32q34 0 72.5 12t78.5 34l30 -69q-51 -31 -104 -47t-103 -16zM222 -223q-51 0 -80 22t-29 60q0 30 18.5 62.5t56 62t94.5 49.5l35 -33q-53 -17 -83 -46t-30 -55q0 -20 17 -31.5t47 -11.5
q7 0 15.5 1t17.5 2l-3 -71q-21 -5 -39.5 -8t-36.5 -3z" />
    <glyph glyph-name="Ecaron" unicode="&#x11a;" horiz-adv-x="599" 
d="M455 181h72l-29 -181h-495l10 63l91 24l-18 -18l89 562l14 -20l-86 23l10 63l192 5h293l-27 -173h-71l-4 101l20 -18h-243l23 19l-40 -250l-14 21h235l-14 -88h-237l23 24l-43 -272l-14 24h255l-28 -20zM548 939l32 -49l-156 -127l-68 -6l-127 133l47 49l161 -116l-80 1z
" />
    <glyph glyph-name="ecaron" unicode="&#x11b;" horiz-adv-x="510" 
d="M233 -11q-56 0 -101.5 22.5t-72 70.5t-26.5 125q0 64 20 124t58 108t92.5 76t123.5 28q81 0 126.5 -37t45.5 -97q0 -46 -27.5 -81.5t-74.5 -60t-105 -36.5t-120 -12h-19t-17 1l7 79q11 -1 22.5 -2t23.5 -1q35 0 69.5 6.5t62.5 19t45 31.5t17 44q0 27 -19 44t-53 17
q-38 0 -68.5 -22.5t-51 -59.5t-31.5 -80.5t-11 -86.5q0 -70 29.5 -102t80.5 -32q34 0 72.5 12t78.5 34l30 -69q-51 -31 -104 -47t-103 -16zM490 812l34 -46l-154 -138l-68 -6l-121 144l46 46l156 -127l-80 1z" />
    <glyph glyph-name="Gcircumflex" unicode="&#x11c;" horiz-adv-x="706" 
d="M319 -11q-79 0 -137.5 30.5t-91 94t-32.5 164.5q0 89 26.5 168t76 139t119 94t155.5 34q55 0 110.5 -13.5t113.5 -39.5l-33 -171h-71l-4 118l19 -18q-34 15 -66 21.5t-60 6.5q-59 0 -107 -26.5t-82 -73t-52 -108t-18 -132.5q0 -69 18 -110.5t52 -60.5t82 -19q33 0 69.5 8
t76.5 22l-16 -29l28 196l17 -21l-90 17l10 65l259 5l-10 -66l-89 -22l15 22l-34 -235q-70 -31 -134.5 -45.5t-119.5 -14.5zM315 748l-33 48l156 127l68 6l127 -133l-46 -48l-162 116l80 -2z" />
    <glyph glyph-name="gcircumflex" unicode="&#x11d;" horiz-adv-x="574" 
d="M185 -241q-47 0 -94.5 9.5t-90.5 23.5l24 85q42 -15 83 -22.5t74 -7.5q46 0 76.5 13.5t49.5 35.5t29 49.5t15 54.5l27 178l39 61q-19 -83 -59 -138.5t-89 -83.5t-94 -28q-39 0 -72 21t-52.5 64.5t-19.5 113.5q0 73 22.5 137.5t63.5 113.5t96 76.5t119 27.5
q41 0 84.5 -13.5t87.5 -43.5l-51 12l23 34h64l-83 -530q-11 -68 -36.5 -115t-62 -75t-81 -40.5t-92.5 -12.5zM222 85q23 0 48.5 14.5t48.5 44t41.5 72.5t27.5 101l23 139l19 -39q-26 19 -51 27.5t-50 8.5q-39 0 -71.5 -20.5t-56.5 -56t-37 -80.5t-13 -94q0 -61 20 -89
t51 -28zM211 621l-33 46l153 138l68 7l121 -145l-46 -46l-155 127l80 -1z" />
    <glyph glyph-name="Gbreve" unicode="&#x11e;" horiz-adv-x="706" 
d="M319 -11q-79 0 -137.5 30.5t-91 94t-32.5 164.5q0 89 26.5 168t76 139t119 94t155.5 34q55 0 110.5 -13.5t113.5 -39.5l-33 -171h-71l-4 118l19 -18q-34 15 -66 21.5t-60 6.5q-59 0 -107 -26.5t-82 -73t-52 -108t-18 -132.5q0 -69 18 -110.5t52 -60.5t82 -19q33 0 69.5 8
t76.5 22l-16 -29l28 196l17 -21l-90 17l10 65l259 5l-10 -66l-89 -22l15 22l-34 -235q-70 -31 -134.5 -45.5t-119.5 -14.5zM457 764q-38 0 -70 17.5t-49 51t-11 81.5h69q-2 -40 19 -55.5t48 -15.5q30 0 58 19t36 54l67 -4q-7 -50 -33 -82.5t-62 -49t-72 -16.5z" />
    <glyph glyph-name="gbreve" unicode="&#x11f;" horiz-adv-x="574" 
d="M185 -241q-47 0 -94.5 9.5t-90.5 23.5l24 85q42 -15 83 -22.5t74 -7.5q46 0 76.5 13.5t49.5 35.5t29 49.5t15 54.5l27 178l39 61q-19 -83 -59 -138.5t-89 -83.5t-94 -28q-39 0 -72 21t-52.5 64.5t-19.5 113.5q0 73 22.5 137.5t63.5 113.5t96 76.5t119 27.5
q41 0 84.5 -13.5t87.5 -43.5l-51 12l23 34h64l-83 -530q-11 -68 -36.5 -115t-62 -75t-81 -40.5t-92.5 -12.5zM222 85q23 0 48.5 14.5t48.5 44t41.5 72.5t27.5 101l23 139l19 -39q-26 19 -51 27.5t-50 8.5q-39 0 -71.5 -20.5t-56.5 -56t-37 -80.5t-13 -94q0 -61 20 -89
t51 -28zM348 626q-38 0 -70 17.5t-48.5 52.5t-9.5 86h70q-2 -38 17 -54.5t45 -16.5q31 0 57.5 19.5t35.5 53.5l68 -4q-7 -52 -33 -86t-61 -51t-71 -17z" />
    <glyph glyph-name="Gdotaccent" unicode="&#x120;" horiz-adv-x="706" 
d="M319 -11q-79 0 -137.5 30.5t-91 94t-32.5 164.5q0 89 26.5 168t76 139t119 94t155.5 34q55 0 110.5 -13.5t113.5 -39.5l-33 -171h-71l-4 118l19 -18q-34 15 -66 21.5t-60 6.5q-59 0 -107 -26.5t-82 -73t-52 -108t-18 -132.5q0 -69 18 -110.5t52 -60.5t82 -19q33 0 69.5 8
t76.5 22l-16 -29l28 196l17 -21l-90 17l10 65l259 5l-10 -66l-89 -22l15 22l-34 -235q-70 -31 -134.5 -45.5t-119.5 -14.5zM455 763q-30 0 -47 18t-17 48q0 36 22.5 59t57.5 23q29 0 46.5 -17.5t17.5 -48.5q0 -35 -22 -58.5t-58 -23.5z" />
    <glyph glyph-name="gdotaccent" unicode="&#x121;" horiz-adv-x="574" 
d="M185 -241q-47 0 -94.5 9.5t-90.5 23.5l24 85q42 -15 83 -22.5t74 -7.5q46 0 76.5 13.5t49.5 35.5t29 49.5t15 54.5l27 178l39 61q-19 -83 -59 -138.5t-89 -83.5t-94 -28q-39 0 -72 21t-52.5 64.5t-19.5 113.5q0 73 22.5 137.5t63.5 113.5t96 76.5t119 27.5
q41 0 84.5 -13.5t87.5 -43.5l-51 12l23 34h64l-83 -530q-11 -68 -36.5 -115t-62 -75t-81 -40.5t-92.5 -12.5zM222 85q23 0 48.5 14.5t48.5 44t41.5 72.5t27.5 101l23 139l19 -39q-26 19 -51 27.5t-50 8.5q-39 0 -71.5 -20.5t-56.5 -56t-37 -80.5t-13 -94q0 -61 20 -89
t51 -28zM343 623q-30 0 -47 18t-17 48q0 36 22.5 59t57.5 23q29 0 46.5 -17.5t17.5 -48.5q0 -35 -22 -58.5t-58 -23.5z" />
    <glyph glyph-name="uni0122" unicode="&#x122;" horiz-adv-x="706" 
d="M319 -11q-79 0 -137.5 30.5t-91 94t-32.5 164.5q0 89 26.5 168t76 139t119 94t155.5 34q55 0 110.5 -13.5t113.5 -39.5l-33 -171h-71l-4 118l19 -18q-34 15 -66 21.5t-60 6.5q-59 0 -107 -26.5t-82 -73t-52 -108t-18 -132.5q0 -69 18 -110.5t52 -60.5t82 -19q33 0 69.5 8
t76.5 22l-16 -29l28 196l17 -21l-90 17l10 65l259 5l-10 -66l-89 -22l15 22l-34 -235q-70 -31 -134.5 -45.5t-119.5 -14.5zM245 -307l-39 33q27 35 39 54.5t12 32.5q0 14 -7.5 26t-7.5 33q0 33 21 50t45 17q22 0 40 -14.5t18 -46.5q0 -21 -11.5 -48t-38 -61t-71.5 -76z" />
    <glyph glyph-name="uni0123" unicode="&#x123;" horiz-adv-x="574" 
d="M185 -241q-47 0 -94.5 9.5t-90.5 23.5l24 85q42 -15 83 -22.5t74 -7.5q46 0 76.5 13.5t49.5 35.5t29 49.5t15 54.5l27 178l39 61q-19 -83 -59 -138.5t-89 -83.5t-94 -28q-39 0 -72 21t-52.5 64.5t-19.5 113.5q0 73 22.5 137.5t63.5 113.5t96 76.5t119 27.5
q41 0 84.5 -13.5t87.5 -43.5l-51 12l23 34h64l-83 -530q-11 -68 -36.5 -115t-62 -75t-81 -40.5t-92.5 -12.5zM222 85q23 0 48.5 14.5t48.5 44t41.5 72.5t27.5 101l23 139l19 -39q-26 19 -51 27.5t-50 8.5q-39 0 -71.5 -20.5t-56.5 -56t-37 -80.5t-13 -94q0 -61 20 -89
t51 -28zM406 868l39 -33q-26 -35 -38 -54.5t-12 -33.5q0 -13 7 -25t7 -33q0 -33 -21 -50t-45 -17q-22 0 -40 14.5t-18 45.5q0 22 12 49t38.5 61t70.5 76z" />
    <glyph glyph-name="Hcircumflex" unicode="&#x124;" horiz-adv-x="766" 
d="M3 0l10 63l91 24l-18 -18l90 562l13 -20l-86 23l10 63l270 5l-10 -63l-93 -28l16 20l-39 -246l-14 18h326l-23 -18l39 246l13 -20l-86 23l10 63l270 5l-10 -63l-93 -28l16 20l-89 -562l-9 18l83 -24l-10 -63h-268l9 63l91 24l-17 -18l42 263l15 -19h-325l22 18l-42 -262
l-8 18l82 -24l-10 -63h-268zM327 748l-33 48l156 127l68 6l127 -133l-46 -48l-162 116l80 -2z" />
    <glyph glyph-name="hcircumflex" unicode="&#x125;" horiz-adv-x="597" 
d="M350 -4l56 339q6 35 1.5 60.5t-17.5 39.5t-37 14q-23 0 -48.5 -14t-49 -42t-41.5 -71t-27 -102l-35 -220h-118l112 705l15 -22l-88 21l10 65l191 7l-73 -419l-45 -63q23 89 64 143.5t90 80t94 25.5t75.5 -22t43.5 -62.5t4 -97.5l-47 -295l-50 37l124 -37l-11 -65zM65 791
l-33 48l156 127l68 6l127 -133l-46 -48l-162 116l80 -2z" />
    <glyph glyph-name="Hbar" unicode="&#x126;" horiz-adv-x="766" 
d="M3 0l10 63l91 24l-18 -18l90 562l13 -20l-86 23l10 63l270 5l-10 -63l-93 -28l16 20l-41 -257l-12 18h326l-26 -22l42 261l13 -20l-86 23l10 63l270 5l-10 -63l-93 -28l16 20l-89 -562l-9 18l83 -24l-10 -63h-268l9 63l91 24l-17 -18l42 263l15 -28h-325l22 27l-42 -262
l-8 18l82 -24l-10 -63h-268zM79 481l10 62h677l-9 -62h-678z" />
    <glyph glyph-name="hbar" unicode="&#x127;" horiz-adv-x="597" 
d="M351 -4l55 339q6 35 1.5 60.5t-17.5 39.5t-37 14q-23 0 -48.5 -14t-49 -42t-41.5 -71t-27 -102l-35 -220h-118l112 705l15 -22l-88 21l10 65l191 7l-73 -419l-45 -63q23 89 64 143.5t90 80t94 25.5t75.5 -22t43.5 -62.5t4 -97.5l-48 -297l-50 39l125 -37l-11 -65zM54 585
l11 67h359l-11 -67h-359z" />
    <glyph glyph-name="Itilde" unicode="&#x128;" horiz-adv-x="356" 
d="M373 639l-93 -28l16 19l-89 -561l-8 18l82 -24l-10 -63h-268l10 63l91 24l-18 -18l89 560l14 -18l-86 23l10 63l270 5zM135 775l-46 29q27 54 54.5 77.5t58.5 23.5q27 0 50 -11t43.5 -21.5t39.5 -10.5q32 0 65 46l47 -29q-27 -54 -57 -77.5t-62 -23.5q-25 0 -46.5 10.5
t-41.5 21t-42 10.5q-16 0 -30.5 -10.5t-32.5 -34.5z" />
    <glyph glyph-name="itilde" unicode="&#x129;" horiz-adv-x="300" 
d="M49 -4l80 507l43 -74l-122 37l10 63l192 7l-81 -509l-40 75l120 -38l-10 -63zM272 643q-26 0 -42.5 12.5t-31.5 24.5t-36 12q-18 0 -33 -11.5t-32 -36.5l-45 27q27 56 53.5 83.5t59.5 27.5q27 0 43.5 -12.5t32 -24.5t35.5 -12q18 0 32.5 12t32.5 36l45 -25
q-26 -57 -53 -85t-61 -28z" />
    <glyph glyph-name="Imacron" unicode="&#x12a;" horiz-adv-x="356" 
d="M373 639l-93 -28l16 19l-89 -561l-8 18l82 -24l-10 -63h-268l10 63l91 24l-18 -18l89 560l14 -18l-86 23l10 63l270 5zM412 872l-14 -86h-278l13 86h279z" />
    <glyph glyph-name="imacron" unicode="&#x12b;" horiz-adv-x="300" 
d="M348 750l-12 -86h-251l12 86h251zM49 -4l80 507l43 -74l-122 37l10 63l192 7l-81 -509l-40 75l120 -38l-10 -63z" />
    <glyph glyph-name="Ibreve" unicode="&#x12c;" horiz-adv-x="356" 
d="M373 639l-93 -28l16 19l-89 -561l-8 18l82 -24l-10 -63h-268l10 63l91 24l-18 -18l89 560l14 -18l-86 23l10 63l270 5zM262 764q-38 0 -70 17.5t-49 51t-11 81.5h69q-2 -40 19 -55.5t48 -15.5q30 0 58 19t36 54l67 -4q-7 -50 -33 -82.5t-62 -49t-72 -16.5z" />
    <glyph glyph-name="ibreve" unicode="&#x12d;" horiz-adv-x="300" 
d="M49 -4l80 507l43 -74l-122 37l10 63l192 7l-81 -509l-40 75l120 -38l-10 -63zM214 626q-38 0 -70 17.5t-48.5 52.5t-9.5 86h70q-2 -38 17 -54.5t45 -16.5q31 0 57.5 19.5t35.5 53.5l68 -4q-7 -52 -33 -86t-61 -51t-71 -17z" />
    <glyph glyph-name="Iogonek" unicode="&#x12e;" horiz-adv-x="356" 
d="M373 639l-93 -28l16 19l-89 -561l-8 18l82 -24l-10 -63h-268l10 63l91 24l-18 -18l89 560l14 -18l-86 23l10 63l270 5zM132 -223q-51 0 -80 22t-29 60q0 30 18.5 62.5t56 62t94.5 49.5l35 -33q-53 -17 -83 -46t-30 -55q0 -20 17 -31.5t47 -11.5q7 0 15.5 1t17.5 2l-3 -71
q-21 -5 -39.5 -8t-36.5 -3z" />
    <glyph glyph-name="iogonek" unicode="&#x12f;" horiz-adv-x="300" 
d="M49 -4l80 507l43 -74l-122 37l10 63l192 7l-81 -511l-42 77l122 -38l-10 -63zM97 -223q-52 0 -80.5 22.5t-28.5 61.5q0 30 17 62t51.5 61.5t87.5 49.5l41 -31q-50 -17 -78 -45.5t-28 -56.5q0 -23 17 -34t47 -11q7 0 15.5 1t17.5 2l-3 -71q-21 -5 -40 -8t-36 -3zM210 623
q-31 0 -48 18t-17 48q0 36 22.5 59t57.5 23q29 0 46.5 -17.5t17.5 -48.5q0 -35 -22 -58.5t-57 -23.5z" />
    <glyph glyph-name="Idotaccent" unicode="&#x130;" horiz-adv-x="356" 
d="M373 639l-93 -28l16 19l-89 -561l-8 18l82 -24l-10 -63h-268l10 63l91 24l-18 -18l89 560l14 -18l-86 23l10 63l270 5zM260 763q-30 0 -47 18t-17 48q0 36 22.5 59t57.5 23q29 0 46.5 -17.5t17.5 -48.5q0 -35 -22 -58.5t-58 -23.5z" />
    <glyph glyph-name="dotlessi" unicode="&#x131;" horiz-adv-x="300" 
d="M49 -4l80 507l43 -74l-122 37l10 63l192 7l-81 -509l-40 75l120 -38l-10 -63z" />
    <glyph glyph-name="IJ" unicode="&#x132;" horiz-adv-x="694" 
d="M373 639l-93 -28l16 19l-89 -561l-8 18l82 -24l-10 -63h-268l10 63l91 24l-18 -18l89 560l14 -18l-86 23l10 63l270 5zM458 697l273 5l-10 -63l-92 -28l16 20l-90 -566q-8 -48 -23.5 -89t-42 -71.5t-65.5 -47t-93 -16.5q-32 0 -66 6l20 89q8 -1 16.5 -2t17.5 -1
q35 0 56 11t32 27.5t16 35t7 32.5l94 592l14 -20l-90 23z" />
    <glyph glyph-name="ij" unicode="&#x133;" horiz-adv-x="592" 
d="M49 -4l80 507l43 -74l-122 37l10 63l192 7l-81 -509l-40 75l120 -38l-10 -63zM209 623q-30 0 -47 18t-17 48q0 36 22.5 59t57.5 23q29 0 46.5 -17.5t17.5 -48.5q0 -35 -22 -58.5t-58 -23.5zM185 -235l19 84q9 -1 17.5 -2t16.5 -1q53 0 77.5 27.5t33.5 83.5l79 503l10 -16
l-81 22l10 63l191 7l-87 -552q-13 -84 -44.5 -133.5t-77 -70.5t-101.5 -21q-18 0 -32.5 2t-30.5 4zM510 623q-30 0 -47 18t-17 48q0 36 22.5 59t57.5 23q29 0 46.5 -17.5t17.5 -48.5q0 -35 -22 -58.5t-58 -23.5z" />
    <glyph glyph-name="Jcircumflex" unicode="&#x134;" horiz-adv-x="338" 
d="M102 697l273 5l-10 -63l-92 -28l16 20l-90 -566q-8 -48 -23.5 -89t-42 -71.5t-65.5 -47t-93 -16.5q-32 0 -66 6l20 89q8 -1 16.5 -2t17.5 -1q35 0 56 11t32 27.5t16 35t7 32.5l94 592l14 -20l-90 23zM112 748l-33 48l156 127l68 6l127 -133l-46 -48l-162 116l80 -2z" />
    <glyph glyph-name="jcircumflex" unicode="&#x135;" horiz-adv-x="286" 
d="M89 621l-37 45l133 139l68 7l94 -152l-49 -39l-119 130l75 -4zM-121 -235l19 84q9 -1 17.5 -2t16.5 -1q53 0 77.5 27.5t33.5 83.5l79 503l10 -16l-81 22l10 63l191 7l-87 -552q-13 -84 -44.5 -133.5t-77 -70.5t-101.5 -21q-18 0 -32.5 2t-30.5 4z" />
    <glyph glyph-name="uni0136" unicode="&#x136;" horiz-adv-x="695" 
d="M589 62l-29 25l86 -24l-10 -63h-154l-160 338l28 -24h-122l22 26l-43 -271l-10 19l82 -25l-10 -63h-266l10 63l92 24l-19 -18l90 562l13 -20l-86 23l10 63l267 5l-10 -62l-92 -28l20 28l-41 -257l-14 21h129l-37 -20l189 251l11 -19l-80 18l9 63l252 5l-9 -63l-92 -26
l31 21l-220 -286l-1 34zM247 -307l-39 33q27 35 39 54.5t12 32.5q0 14 -7.5 26t-7.5 33q0 33 21 50t45 17q22 0 40 -14.5t18 -46.5q0 -21 -11.5 -48t-38 -61t-71.5 -76z" />
    <glyph glyph-name="uni0137" unicode="&#x137;" horiz-adv-x="560" 
d="M34 0l117 743l42 -73l-121 36l10 64l192 6l-73 -461l-17 18h126l-32 -14l114 147l7 -13l-68 12l10 63l228 8l-10 -63l-85 -18l35 19l-147 -187l6 33l91 -254l-16 17l76 -20l-10 -63h-148l-87 260l16 -9h-120l22 7l-41 -258h-117zM159 -307l-39 33q27 35 39 54.5t12 32.5
q0 14 -7.5 26t-7.5 33q0 33 21 50t45 17q22 0 40 -14.5t18 -46.5q0 -21 -11.5 -48t-38 -61t-71.5 -76z" />
    <glyph glyph-name="kgreenlandic" unicode="&#x138;" horiz-adv-x="576" 
d="M49 0l80 503l42 -73l-121 36l10 64l192 6l-36 -226l-16 18h125l-33 -13l116 151l7 -13l-68 12l10 63l228 8l-10 -63l-85 -18l35 19l-147 -189l5 32l92 -251l-16 17l76 -20l-10 -63h-148l-88 261l17 -15h-120l22 17l-41 -263h-118z" />
    <glyph glyph-name="Lacute" unicode="&#x139;" horiz-adv-x="541" 
d="M433 202h72l-32 -202h-470l10 63l91 24l-18 -18l90 561l13 -19l-86 23l10 63l276 5l-10 -63l-99 -28l16 20l-90 -568l-13 27h221l-22 -20zM160 752l-29 58l234 133l39 -93z" />
    <glyph glyph-name="lacute" unicode="&#x13a;" horiz-adv-x="285" 
d="M33 -4l119 747l41 -73l-121 34l10 65l193 7l-119 -748l-43 75l124 -37l-11 -65zM116 795l-29 58l234 133l39 -93z" />
    <glyph glyph-name="uni013B" unicode="&#x13b;" horiz-adv-x="541" 
d="M433 202h72l-32 -202h-470l10 63l91 24l-18 -18l90 561l13 -19l-86 23l10 63l276 5l-10 -63l-99 -28l16 20l-90 -568l-13 27h221l-22 -20zM183 -307l-39 33q27 35 39 54.5t12 32.5q0 14 -7.5 26t-7.5 33q0 33 21 50t45 17q22 0 40 -14.5t18 -46.5q0 -21 -11.5 -48
t-38 -61t-71.5 -76z" />
    <glyph glyph-name="uni013C" unicode="&#x13c;" horiz-adv-x="285" 
d="M33 -4l119 747l41 -73l-121 34l10 65l193 7l-119 -748l-43 75l124 -37l-11 -65zM21 -307l-39 33q27 35 39 54.5t12 32.5q0 14 -7.5 26t-7.5 33q0 33 21 50t45 17q22 0 40 -14.5t18 -46.5q0 -21 -11.5 -48t-38 -61t-71.5 -76z" />
    <glyph glyph-name="Lcaron" unicode="&#x13d;" horiz-adv-x="541" 
d="M433 202h72l-32 -202h-470l10 63l91 24l-18 -18l90 561l13 -19l-86 23l10 63l276 5l-10 -63l-99 -28l16 20l-90 -568l-13 27h221l-22 -20zM473 501l-71 11q19 51 31.5 101t18.5 102l104 -5q-12 -47 -33 -99.5t-50 -109.5z" />
    <glyph glyph-name="lcaron" unicode="&#x13e;" horiz-adv-x="285" 
d="M33 -4l119 747l41 -73l-121 34l10 65l193 7l-119 -748l-43 75l124 -37l-11 -65zM354 571l-71 11q19 51 31.5 101t18.5 102l104 -5q-12 -47 -33 -99.5t-50 -109.5z" />
    <glyph glyph-name="Ldot" unicode="&#x13f;" horiz-adv-x="549" 
d="M433 202h72l-32 -202h-470l10 63l91 24l-18 -18l90 561l13 -19l-86 23l10 63l276 5l-10 -63l-99 -28l16 20l-90 -568l-13 27h221l-22 -20zM465 328q-30 0 -47 17.5t-17 45.5q0 34 22.5 55.5t55.5 21.5q29 0 47 -17t18 -47q0 -35 -23 -55.5t-56 -20.5z" />
    <glyph glyph-name="ldot" unicode="&#x140;" horiz-adv-x="368" 
d="M33 -4l119 747l41 -73l-121 34l10 65l193 7l-119 -748l-43 75l124 -37l-11 -65zM325 300q-30 0 -47 18t-17 48q0 36 22.5 59t57.5 23q29 0 46.5 -17.5t17.5 -48.5q0 -35 -22 -58.5t-58 -23.5z" />
    <glyph glyph-name="Lslash" unicode="&#x141;" horiz-adv-x="567" 
d="M44 295l392 198l21 -63l-392 -197zM459 202h72l-34 -202h-472l9 63l94 24l-17 -18l89 561l13 -19l-88 23l10 63l278 5l-10 -63l-99 -28l16 20l-90 -568l-13 27h221l-22 -20z" />
    <glyph glyph-name="lslash" unicode="&#x142;" horiz-adv-x="333" 
d="M58 -4l119 747l42 -73l-121 34l10 65l192 7l-118 -748l-44 75l124 -37l-11 -65zM47 295l-21 70l291 136l20 -70z" />
    <glyph glyph-name="Nacute" unicode="&#x143;" horiz-adv-x="752" 
d="M542 697l245 5l-10 -63l-89 -28l16 20l-101 -631h-129l-223 570l14 1l-80 -502l-8 18l81 -24l-10 -63h-245l10 63l91 24l-18 -18l90 562l13 -20l-86 23l10 63l212 5l217 -559l-15 -1l78 489l13 -20l-86 23zM365 752l-29 58l234 133l39 -93z" />
    <glyph glyph-name="nacute" unicode="&#x144;" horiz-adv-x="613" 
d="M366 -4l55 339q6 35 2 60.5t-17.5 39.5t-37.5 14q-23 0 -48.5 -14t-49 -42t-41.5 -71t-27 -102l-35 -220h-118l80 503l42 -74l-121 37l10 63l186 7l-37 -179l-38 -63q23 88 64.5 143t90 80.5t92.5 25.5q46 0 77 -22t44 -62.5t3 -97.5l-47 -297l-51 39l125 -37l-10 -65z
M306 610l-44 61l204 155l59 -87z" />
    <glyph glyph-name="uni0145" unicode="&#x145;" horiz-adv-x="752" 
d="M542 697l245 5l-10 -63l-89 -28l16 20l-101 -631h-129l-223 570l14 1l-80 -502l-8 18l81 -24l-10 -63h-245l10 63l91 24l-18 -18l90 562l13 -20l-86 23l10 63l212 5l217 -559l-15 -1l78 489l13 -20l-86 23zM262 -307l-39 33q27 35 39 54.5t12 32.5q0 14 -7.5 26t-7.5 33
q0 33 21 50t45 17q22 0 40 -14.5t18 -46.5q0 -21 -11.5 -48t-38 -61t-71.5 -76z" />
    <glyph glyph-name="uni0146" unicode="&#x146;" horiz-adv-x="613" 
d="M366 -4l55 339q6 35 2 60.5t-17.5 39.5t-37.5 14q-23 0 -48.5 -14t-49 -42t-41.5 -71t-27 -102l-35 -220h-118l80 503l42 -74l-121 37l10 63l186 7l-37 -179l-38 -63q23 88 64.5 143t90 80.5t92.5 25.5q46 0 77 -22t44 -62.5t3 -97.5l-47 -297l-51 39l125 -37l-10 -65z
M182 -307l-39 33q27 35 39 54.5t12 32.5q0 14 -7.5 26t-7.5 33q0 33 21 50t45 17q22 0 40 -14.5t18 -46.5q0 -21 -11.5 -48t-38 -61t-71.5 -76z" />
    <glyph glyph-name="Ncaron" unicode="&#x147;" horiz-adv-x="752" 
d="M542 697l245 5l-10 -63l-89 -28l16 20l-101 -631h-129l-223 570l14 1l-80 -502l-8 18l81 -24l-10 -63h-245l10 63l91 24l-18 -18l90 562l13 -20l-86 23l10 63l212 5l217 -559l-15 -1l78 489l13 -20l-86 23zM625 939l32 -49l-156 -127l-68 -6l-127 133l47 49l161 -116
l-80 1z" />
    <glyph glyph-name="ncaron" unicode="&#x148;" horiz-adv-x="613" 
d="M366 -4l55 339q6 35 2 60.5t-17.5 39.5t-37.5 14q-23 0 -48.5 -14t-49 -42t-41.5 -71t-27 -102l-35 -220h-118l80 503l42 -74l-121 37l10 63l186 7l-37 -179l-38 -63q23 88 64.5 143t90 80.5t92.5 25.5q46 0 77 -22t44 -62.5t3 -97.5l-47 -297l-51 39l125 -37l-10 -65z
M518 812l34 -46l-154 -138l-68 -6l-121 144l46 46l156 -127l-80 1z" />
    <glyph glyph-name="napostrophe" unicode="&#x149;" horiz-adv-x="781" 
d="M128 719q0 31 18 48t42 17q21 0 37 -15t16 -44q0 -22 -13 -53.5t-40.5 -70.5t-71.5 -83l-36 31q33 47 47 73t14 40q0 13 -6.5 25.5t-6.5 31.5zM534 -4l55 339q6 35 2 60.5t-17.5 39.5t-37.5 14q-23 0 -48.5 -14t-49 -42t-41.5 -71t-27 -102l-35 -220h-118l80 503l42 -74
l-121 37l10 63l186 7l-37 -179l-38 -63q23 88 64.5 143t90 80.5t92.5 25.5q46 0 77 -22t44 -62.5t3 -97.5l-47 -297l-51 39l125 -37l-10 -65z" />
    <glyph glyph-name="Eng" unicode="&#x14a;" horiz-adv-x="750" 
d="M494 24l3 -56l-247 602l15 1l-80 -502l-8 18l81 -24l-10 -63h-245l10 63l91 24l-18 -18l90 562l13 -20l-86 23l10 63l211 5l226 -559l-23 -1l78 489l13 -20l-86 23l10 63l245 5l-10 -63l-89 -28l16 20l-103 -647q-18 -114 -72.5 -169.5t-147.5 -55.5q-16 0 -32.5 1.5
t-33.5 4.5l18 84q10 -1 18.5 -2t16.5 -1q50 0 78 26t37 87z" />
    <glyph glyph-name="eng" unicode="&#x14b;" horiz-adv-x="603" 
d="M259 -241q-19 0 -33 2t-30 4l18 84q10 -1 18.5 -2t16.5 -1q52 0 76.5 27t34.5 84l61 378q6 35 2 60.5t-17.5 39.5t-37.5 14q-23 0 -48.5 -14t-49 -42t-41.5 -71t-27 -102l-35 -220h-118l80 503l43 -74l-122 37l10 63l186 7l-37 -179l-38 -63q23 89 64.5 143.5t90 80
t94.5 25.5q45 0 75.5 -22t43.5 -62.5t3 -96.5l-60 -378q-14 -84 -45.5 -133.5t-76.5 -70.5t-101 -21z" />
    <glyph glyph-name="Omacron" unicode="&#x14c;" horiz-adv-x="720" 
d="M316 -11q-82 0 -139.5 32t-88 95t-30.5 155q0 62 14 125t43.5 120t74 101.5t105 70t136.5 25.5q83 0 141 -32t88 -94.5t30 -154.5q0 -60 -14 -123t-43 -120t-73.5 -102.5t-105 -71.5t-138.5 -26zM327 85q49 0 87 22.5t66 60t47 83.5t28 94t9 90q0 64 -18.5 104t-50.5 59
t-75 19q-48 0 -86 -22t-66 -59.5t-46.5 -83t-27.5 -93t-9 -90.5q0 -64 18 -104.5t50.5 -60t73.5 -19.5zM611 872l-14 -86h-278l13 86h279z" />
    <glyph glyph-name="omacron" unicode="&#x14d;" horiz-adv-x="559" 
d="M327 543q59 0 104 -22t70 -69.5t25 -126.5q0 -62 -18 -122t-54 -108.5t-91 -77t-130 -28.5q-59 0 -104 22t-70 70t-25 125q0 63 18 122.5t54 108t91 77.5t130 29zM311 456q-42 0 -72 -25t-48.5 -63t-27.5 -81.5t-9 -80.5q0 -61 23 -95.5t72 -34.5q41 0 71 25t49 63.5
t28 82t9 80.5q0 61 -23 95t-72 34zM500 750l-14 -86h-278l13 86h279z" />
    <glyph glyph-name="Obreve" unicode="&#x14e;" horiz-adv-x="720" 
d="M316 -11q-82 0 -139.5 32t-88 95t-30.5 155q0 62 14 125t43.5 120t74 101.5t105 70t136.5 25.5q83 0 141 -32t88 -94.5t30 -154.5q0 -60 -14 -123t-43 -120t-73.5 -102.5t-105 -71.5t-138.5 -26zM327 85q49 0 87 22.5t66 60t47 83.5t28 94t9 90q0 64 -18.5 104t-50.5 59
t-75 19q-48 0 -86 -22t-66 -59.5t-46.5 -83t-27.5 -93t-9 -90.5q0 -64 18 -104.5t50.5 -60t73.5 -19.5zM461 764q-38 0 -70 17.5t-49 51t-11 81.5h69q-2 -40 19 -55.5t48 -15.5q30 0 58 19t36 54l67 -4q-7 -50 -33 -82.5t-62 -49t-72 -16.5z" />
    <glyph glyph-name="obreve" unicode="&#x14f;" horiz-adv-x="559" 
d="M327 543q59 0 104 -22t70 -69.5t25 -126.5q0 -62 -18 -122t-54 -108.5t-91 -77t-130 -28.5q-59 0 -104 22t-70 70t-25 125q0 63 18 122.5t54 108t91 77.5t130 29zM311 456q-42 0 -72 -25t-48.5 -63t-27.5 -81.5t-9 -80.5q0 -61 23 -95.5t72 -34.5q41 0 71 25t49 63.5
t28 82t9 80.5q0 61 -23 95t-72 34zM349 626q-38 0 -70 17.5t-48.5 52.5t-9.5 86h70q-2 -38 17 -54.5t45 -16.5q31 0 57.5 19.5t35.5 53.5l68 -4q-7 -52 -33 -86t-61 -51t-71 -17z" />
    <glyph glyph-name="Ohungarumlaut" unicode="&#x150;" horiz-adv-x="720" 
d="M316 -11q-82 0 -139.5 32t-88 95t-30.5 155q0 62 14 125t43.5 120t74 101.5t105 70t136.5 25.5q83 0 141 -32t88 -94.5t30 -154.5q0 -60 -14 -123t-43 -120t-73.5 -102.5t-105 -71.5t-138.5 -26zM327 85q49 0 87 22.5t66 60t47 83.5t28 94t9 90q0 64 -18.5 104t-50.5 59
t-75 19q-48 0 -86 -22t-66 -59.5t-46.5 -83t-27.5 -93t-9 -90.5q0 -64 18 -104.5t50.5 -60t73.5 -19.5zM539 743l-61 28l86 190l82 -41zM384 743l-62 27l79 191l84 -37z" />
    <glyph glyph-name="ohungarumlaut" unicode="&#x151;" horiz-adv-x="559" 
d="M327 543q59 0 104 -22t70 -69.5t25 -126.5q0 -62 -18 -122t-54 -108.5t-91 -77t-130 -28.5q-59 0 -104 22t-70 70t-25 125q0 63 18 122.5t54 108t91 77.5t130 29zM311 456q-42 0 -72 -25t-48.5 -63t-27.5 -81.5t-9 -80.5q0 -61 23 -95.5t72 -34.5q41 0 71 25t49 63.5
t28 82t9 80.5q0 61 -23 95t-72 34zM430 610l-61 28l86 190l82 -41zM275 610l-62 27l79 191l84 -37z" />
    <glyph glyph-name="OE" unicode="&#x152;" horiz-adv-x="920" 
d="M324 -4q-83 0 -142.5 30.5t-91 94t-31.5 162.5q0 85 25 161.5t73.5 135.5t121.5 92.5t168 33.5q14 0 39.5 -0.5t53.5 -1.5t51 -1.5t33 -0.5h295l-27 -173h-71l-3 101l14 -18h-238l23 20l-39 -244l-15 19h236l-14 -87h-238l24 23l-44 -276l-14 23h255l-28 -20l37 111h71
l-29 -181h-342q-15 0 -44.5 -1t-60.5 -2t-48 -1zM406 64l92 574l26 -39q-13 4 -29.5 6.5t-33 4t-29.5 1.5q-58 0 -103.5 -26.5t-77 -72t-48.5 -105.5t-17 -127t19 -109t52.5 -61t78.5 -19q13 0 29.5 1t33.5 3t32 5z" />
    <glyph glyph-name="oe" unicode="&#x153;" horiz-adv-x="875" 
d="M229 -11q-57 0 -101.5 22t-69 71t-24.5 126q0 63 17 123t52 108t87.5 76t122.5 28q59 0 102.5 -22.5t68.5 -70.5t25 -126q0 -63 -17.5 -123t-52 -107.5t-87 -76t-123.5 -28.5zM248 76q42 0 71.5 24.5t48.5 63t28 82t9 81.5q0 64 -22.5 96.5t-70.5 32.5q-43 0 -73 -23.5
t-48.5 -61.5t-27.5 -80.5t-9 -81.5q0 -65 23 -99t71 -34zM598 -11q-86 0 -138 53.5t-52 165.5q0 64 18.5 124t54 107.5t88.5 75.5t123 28q81 0 126.5 -37t45.5 -97q0 -47 -28 -84t-74.5 -62.5t-104 -39t-117.5 -13.5q-13 0 -20.5 0.5t-17.5 0.5l7 73q9 -1 18 -1.5t18 -0.5
q34 0 69.5 8t65.5 23t48 36t18 48q0 26 -18.5 43.5t-52.5 17.5q-38 0 -67.5 -22.5t-50 -59t-31.5 -80.5t-11 -85q0 -70 30 -102t80 -32q31 0 69.5 12t80.5 35l33 -73q-55 -31 -108.5 -46.5t-101.5 -15.5z" />
    <glyph glyph-name="Racute" unicode="&#x154;" horiz-adv-x="645" 
d="M3 0l10 63l91 24l-18 -18l90 562l13 -20l-86 23l10 63l200 5h91q204 0 204 -163q0 -65 -29.5 -114.5t-82 -79.5t-121.5 -36l-2 20q53 -1 79 -30.5t41 -73.5l53 -157l-30 23l78 -28l-10 -63h-142l-57 199q-13 45 -25.5 64.5t-31 25t-49.5 4.5l-56 -1l24 20l-40 -243l-8 18
l93 -24l-10 -63h-279zM253 352l-14 28h72q54 0 92 20t58.5 53.5t20.5 73.5q0 32 -11.5 49.5t-28.5 25t-34.5 9t-29.5 1.5h-100l19 23zM287 752l-29 58l234 133l39 -93z" />
    <glyph glyph-name="racute" unicode="&#x155;" horiz-adv-x="426" 
d="M49 0l80 503l42 -74l-121 37l10 63l186 7l-37 -179l-37 -64q19 82 58.5 137.5t89 84t96.5 28.5q26 0 44 -7l-29 -168h-72v94l14 -12q-26 3 -53 -12.5t-50.5 -45.5t-41 -73.5t-26.5 -98.5l-35 -220h-118zM227 610l-44 61l204 155l59 -87z" />
    <glyph glyph-name="uni0156" unicode="&#x156;" horiz-adv-x="645" 
d="M3 0l10 63l91 24l-18 -18l90 562l13 -20l-86 23l10 63l200 5h91q204 0 204 -163q0 -65 -29.5 -114.5t-82 -79.5t-121.5 -36l-2 20q53 -1 79 -30.5t41 -73.5l53 -157l-30 23l78 -28l-10 -63h-142l-57 199q-13 45 -25.5 64.5t-31 25t-49.5 4.5l-56 -1l24 20l-40 -243l-8 18
l93 -24l-10 -63h-279zM253 352l-14 28h72q54 0 92 20t58.5 53.5t20.5 73.5q0 32 -11.5 49.5t-28.5 25t-34.5 9t-29.5 1.5h-100l19 23zM222 -307l-39 33q27 35 39 54.5t12 32.5q0 14 -7.5 26t-7.5 33q0 33 21 50t45 17q22 0 40 -14.5t18 -46.5q0 -21 -11.5 -48t-38 -61
t-71.5 -76z" />
    <glyph glyph-name="uni0157" unicode="&#x157;" horiz-adv-x="426" 
d="M49 0l80 503l42 -74l-121 37l10 63l186 7l-37 -179l-37 -64q19 82 58.5 137.5t89 84t96.5 28.5q26 0 44 -7l-29 -168h-72v94l14 -12q-26 3 -53 -12.5t-50.5 -45.5t-41 -73.5t-26.5 -98.5l-35 -220h-118zM36 -307l-39 33q27 35 39 54.5t12 32.5q0 14 -7.5 26t-7.5 33
q0 33 21 50t45 17q22 0 40 -14.5t18 -46.5q0 -21 -11.5 -48t-38 -61t-71.5 -76z" />
    <glyph glyph-name="Rcaron" unicode="&#x158;" horiz-adv-x="645" 
d="M3 0l10 63l91 24l-18 -18l90 562l13 -20l-86 23l10 63l200 5h91q204 0 204 -163q0 -65 -29.5 -114.5t-82 -79.5t-121.5 -36l-2 20q53 -1 79 -30.5t41 -73.5l53 -157l-30 23l78 -28l-10 -63h-142l-57 199q-13 45 -25.5 64.5t-31 25t-49.5 4.5l-56 -1l24 20l-40 -243l-8 18
l93 -24l-10 -63h-279zM253 352l-14 28h72q54 0 92 20t58.5 53.5t20.5 73.5q0 32 -11.5 49.5t-28.5 25t-34.5 9t-29.5 1.5h-100l19 23zM547 939l32 -49l-156 -127l-68 -6l-127 133l47 49l161 -116l-80 1z" />
    <glyph glyph-name="rcaron" unicode="&#x159;" horiz-adv-x="426" 
d="M49 0l80 503l42 -74l-121 37l10 63l186 7l-37 -179l-37 -64q19 82 58.5 137.5t89 84t96.5 28.5q26 0 44 -7l-29 -168h-72v94l14 -12q-26 3 -53 -12.5t-50.5 -45.5t-41 -73.5t-26.5 -98.5l-35 -220h-118zM439 812l34 -46l-154 -138l-68 -6l-121 144l46 46l156 -127l-80 1z
" />
    <glyph glyph-name="Sacute" unicode="&#x15a;" horiz-adv-x="585" 
d="M231 -11q-50 0 -102.5 10.5t-101.5 31.5l31 181h71l2 -123l-12 21q30 -14 62.5 -21t64.5 -7q42 0 77 12.5t57 38t22 61.5q0 37 -21.5 58t-55.5 36t-72 29t-72.5 35t-55.5 55t-21 89q0 72 36.5 119.5t97.5 72.5t133 25q49 0 100 -11t100 -33l-34 -167h-70l-1 111l15 -14
q-27 11 -56.5 17t-57.5 6q-38 0 -71 -11.5t-53 -34t-20 -55.5q0 -34 21.5 -54t55.5 -34t72.5 -28.5t72.5 -35.5t55.5 -56.5t21.5 -92.5q0 -77 -40 -128t-106 -77t-145 -26zM285 752l-29 58l234 133l39 -93z" />
    <glyph glyph-name="sacute" unicode="&#x15b;" horiz-adv-x="503" 
d="M174 -11q-40 0 -84 6.5t-85 17.5l25 155h74l-2 -101l-16 24q21 -8 44.5 -13t50.5 -5q35 0 62.5 8.5t44 25t16.5 40.5q1 25 -16.5 40.5t-44.5 26.5t-57.5 23t-57.5 29t-44 43.5t-16 68.5q1 52 30.5 89t80 56.5t114.5 19.5q39 0 82 -7.5t87 -21.5l-24 -135h-73l-4 83
l20 -18q-21 9 -43.5 13t-42.5 4q-31 0 -55 -8.5t-38 -23.5t-15 -36q0 -23 17 -38t44.5 -26.5t58 -24t58 -30t44.5 -44.5t16 -68q-1 -53 -33.5 -92t-89 -60t-128.5 -21zM247 610l-44 61l204 155l59 -87z" />
    <glyph glyph-name="Scircumflex" unicode="&#x15c;" horiz-adv-x="585" 
d="M231 -11q-50 0 -102.5 10.5t-101.5 31.5l31 181h71l2 -123l-12 21q30 -14 62.5 -21t64.5 -7q42 0 77 12.5t57 38t22 61.5q0 37 -21.5 58t-55.5 36t-72 29t-72.5 35t-55.5 55t-21 89q0 72 36.5 119.5t97.5 72.5t133 25q49 0 100 -11t100 -33l-34 -167h-70l-1 111l15 -14
q-27 11 -56.5 17t-57.5 6q-38 0 -71 -11.5t-53 -34t-20 -55.5q0 -34 21.5 -54t55.5 -34t72.5 -28.5t72.5 -35.5t55.5 -56.5t21.5 -92.5q0 -77 -40 -128t-106 -77t-145 -26zM245 748l-33 48l156 127l68 6l127 -133l-46 -48l-162 116l80 -2z" />
    <glyph glyph-name="scircumflex" unicode="&#x15d;" horiz-adv-x="503" 
d="M174 -11q-40 0 -84 6.5t-85 17.5l25 155h74l-2 -101l-16 24q21 -8 44.5 -13t50.5 -5q35 0 62.5 8.5t44 25t16.5 40.5q1 25 -16.5 40.5t-44.5 26.5t-57.5 23t-57.5 29t-44 43.5t-16 68.5q1 52 30.5 89t80 56.5t114.5 19.5q39 0 82 -7.5t87 -21.5l-24 -135h-73l-4 83
l20 -18q-21 9 -43.5 13t-42.5 4q-31 0 -55 -8.5t-38 -23.5t-15 -36q0 -23 17 -38t44.5 -26.5t58 -24t58 -30t44.5 -44.5t16 -68q-1 -53 -33.5 -92t-89 -60t-128.5 -21zM173 621l-33 46l153 138l68 7l121 -145l-46 -46l-155 127l80 -1z" />
    <glyph glyph-name="Scedilla" unicode="&#x15e;" horiz-adv-x="585" 
d="M231 -11q-50 0 -102.5 10.5t-101.5 31.5l31 181h71l2 -123l-12 21q30 -14 62.5 -21t64.5 -7q42 0 77 12.5t57 38t22 61.5q0 37 -21.5 58t-55.5 36t-72 29t-72.5 35t-55.5 55t-21 89q0 72 36.5 119.5t97.5 72.5t133 25q49 0 100 -11t100 -33l-34 -167h-70l-1 111l15 -14
q-27 11 -56.5 17t-57.5 6q-38 0 -71 -11.5t-53 -34t-20 -55.5q0 -34 21.5 -54t55.5 -34t72.5 -28.5t72.5 -35.5t55.5 -56.5t21.5 -92.5q0 -77 -40 -128t-106 -77t-145 -26zM232 -248q-24 0 -49.5 6t-49.5 18l30 59q36 -16 73 -16q23 0 39.5 9.5t16.5 27.5q0 21 -25.5 30
t-64.5 10l22 104h69l-8 -52q49 -5 71 -26t22 -55q0 -35 -20 -61t-53 -40t-73 -14z" />
    <glyph glyph-name="scedilla" unicode="&#x15f;" horiz-adv-x="503" 
d="M174 -11q-40 0 -84 6.5t-85 17.5l25 155h74l-2 -101l-16 24q21 -8 44.5 -13t50.5 -5q35 0 62.5 8.5t44 25t16.5 40.5q1 25 -16.5 40.5t-44.5 26.5t-57.5 23t-57.5 29t-44 43.5t-16 68.5q1 52 30.5 89t80 56.5t114.5 19.5q39 0 82 -7.5t87 -21.5l-24 -135h-73l-4 83
l20 -18q-21 9 -43.5 13t-42.5 4q-31 0 -55 -8.5t-38 -23.5t-15 -36q0 -23 17 -38t44.5 -26.5t58 -24t58 -30t44.5 -44.5t16 -68q-1 -53 -33.5 -92t-89 -60t-128.5 -21zM167 -248q-24 0 -49.5 6t-49.5 18l30 59q36 -16 73 -16q23 0 39.5 9.5t16.5 27.5q0 21 -25.5 30
t-64.5 10l22 104h69l-8 -52q49 -5 71 -26t22 -55q0 -35 -20 -61t-53 -40t-73 -14z" />
    <glyph glyph-name="Scaron" unicode="&#x160;" horiz-adv-x="585" 
d="M231 -11q-50 0 -102.5 10.5t-101.5 31.5l31 181h71l2 -123l-12 21q30 -14 62.5 -21t64.5 -7q42 0 77 12.5t57 38t22 61.5q0 37 -21.5 58t-55.5 36t-72 29t-72.5 35t-55.5 55t-21 89q0 72 36.5 119.5t97.5 72.5t133 25q49 0 100 -11t100 -33l-34 -167h-70l-1 111l15 -14
q-27 11 -56.5 17t-57.5 6q-38 0 -71 -11.5t-53 -34t-20 -55.5q0 -34 21.5 -54t55.5 -34t72.5 -28.5t72.5 -35.5t55.5 -56.5t21.5 -92.5q0 -77 -40 -128t-106 -77t-145 -26zM545 939l32 -49l-156 -127l-68 -6l-127 133l47 49l161 -116l-80 1z" />
    <glyph glyph-name="scaron" unicode="&#x161;" horiz-adv-x="503" 
d="M174 -11q-40 0 -84 6.5t-85 17.5l25 155h74l-2 -101l-16 24q21 -8 44.5 -13t50.5 -5q35 0 62.5 8.5t44 25t16.5 40.5q1 25 -16.5 40.5t-44.5 26.5t-57.5 23t-57.5 29t-44 43.5t-16 68.5q1 52 30.5 89t80 56.5t114.5 19.5q39 0 82 -7.5t87 -21.5l-24 -135h-73l-4 83
l20 -18q-21 9 -43.5 13t-42.5 4q-31 0 -55 -8.5t-38 -23.5t-15 -36q0 -23 17 -38t44.5 -26.5t58 -24t58 -30t44.5 -44.5t16 -68q-1 -53 -33.5 -92t-89 -60t-128.5 -21zM460 812l34 -46l-154 -138l-68 -6l-121 144l46 46l156 -127l-80 1z" />
    <glyph glyph-name="uni0162" unicode="&#x162;" horiz-adv-x="589" 
d="M108 0l9 63l104 24l-18 -18l90 563l20 -20h-165l30 24l-42 -126h-72l31 192h538l-31 -192h-71l-4 122l23 -20h-167l30 20l-89 -563l-8 18l94 -24l-10 -63h-292zM224 -248q-24 0 -49.5 6t-49.5 18l30 59q36 -16 73 -16q23 0 39.5 9.5t16.5 27.5q0 21 -25.5 30t-64.5 10
l22 104h69l-8 -52q49 -5 71 -26t22 -55q0 -35 -20 -61t-53 -40t-73 -14z" />
    <glyph glyph-name="uni0163" unicode="&#x163;" horiz-adv-x="381" 
d="M334 24q-39 -17 -75.5 -26t-67.5 -9q-54 0 -87.5 29t-33.5 91q0 10 0.5 19t2.5 20l50 319l12 -17h-94l10 66l102 21l-22 -22l22 135l120 20l-24 -155l-10 17h148l-13 -82h-150l17 17l-50 -313q-1 -4 -1.5 -10.5t-0.5 -13.5q0 -27 12 -38.5t33 -11.5q15 0 34 5.5t41 15.5z
M142 -248q-24 0 -49.5 6t-49.5 18l30 59q36 -16 73 -16q23 0 39.5 9.5t16.5 27.5q0 21 -25.5 30t-64.5 10l22 104h69l-8 -52q49 -5 71 -26t22 -55q0 -35 -20 -61t-53 -40t-73 -14z" />
    <glyph glyph-name="Tcaron" unicode="&#x164;" horiz-adv-x="589" 
d="M108 0l9 63l104 24l-18 -18l90 563l20 -20h-165l30 24l-42 -126h-72l31 192h538l-31 -192h-71l-4 122l23 -20h-167l30 20l-89 -563l-8 18l94 -24l-10 -63h-292zM536 939l32 -49l-156 -127l-68 -6l-127 133l47 49l161 -116l-80 1z" />
    <glyph glyph-name="tcaron" unicode="&#x165;" horiz-adv-x="381" 
d="M334 24q-39 -17 -75.5 -26t-67.5 -9q-54 0 -87.5 29t-33.5 91q0 10 0.5 19t2.5 20l50 319l12 -17h-94l10 66l102 21l-22 -22l22 135l120 20l-24 -155l-10 17h148l-13 -82h-150l17 17l-50 -313q-1 -4 -1.5 -10.5t-0.5 -13.5q0 -27 12 -38.5t33 -11.5q15 0 34 5.5t41 15.5z
M389 571l-71 11q19 51 31.5 101t18.5 102l104 -5q-12 -47 -33 -99.5t-50 -109.5z" />
    <glyph glyph-name="Tbar" unicode="&#x166;" horiz-adv-x="589" 
d="M115 303l11 83h374l-12 -83h-373zM108 0l9 63l104 24l-18 -18l90 563l20 -20h-165l30 24l-42 -126h-72l31 192h538l-31 -192h-71l-4 122l23 -20h-167l30 20l-89 -563l-8 18l94 -24l-10 -63h-292z" />
    <glyph glyph-name="tbar" unicode="&#x167;" horiz-adv-x="381" 
d="M6 254l12 70h330l-12 -70h-330zM334 24q-39 -17 -75.5 -26t-67.5 -9q-54 0 -87.5 29t-33.5 91q0 10 0.5 19t2.5 20l50 319l12 -17h-94l10 66l102 21l-22 -22l22 135l120 20l-24 -155l-10 17h148l-13 -82h-150l17 17l-50 -313q-1 -4 -1.5 -10.5t-0.5 -13.5q0 -27 12 -38.5
t33 -11.5q15 0 34 5.5t41 15.5z" />
    <glyph glyph-name="Utilde" unicode="&#x168;" horiz-adv-x="724" 
d="M498 697l270 5l-10 -63l-93 -28l16 20l-57 -363q-15 -96 -52 -157.5t-99.5 -91.5t-153.5 -30q-115 0 -171 49t-56 148q0 18 1.5 37t5.5 40l59 368l11 -19l-84 22l10 63l266 5l-10 -63l-89 -28l16 20l-60 -376q-3 -18 -4.5 -35t-1.5 -31q0 -54 26 -79t88 -25q59 0 94 21.5
t55 64.5t29 104l57 356l13 -20l-85 23zM318 775l-46 29q27 54 54.5 77.5t58.5 23.5q27 0 50 -11t43.5 -21.5t39.5 -10.5q32 0 65 46l47 -29q-27 -54 -57 -77.5t-62 -23.5q-25 0 -46.5 10.5t-41.5 21t-42 10.5q-16 0 -30.5 -10.5t-32.5 -34.5z" />
    <glyph glyph-name="utilde" unicode="&#x169;" horiz-adv-x="612" 
d="M193 -11q-44 -1 -75 21.5t-43.5 63t-4.5 96.5l47 297l10 -23l-82 22l10 63l191 7l-54 -339q-5 -35 -1.5 -60.5t17 -39.5t36.5 -14q24 0 49 13.5t48.5 42t42 71.5t27.5 102l34 220h118l-73 -466l-15 22l89 -25l-10 -62l-181 -5l32 181l36 62q-21 -88 -62.5 -143t-90 -81
t-95.5 -26zM427 643q-26 0 -46.5 12.5t-39 24.5t-40.5 12q-19 0 -36 -11.5t-34 -36.5l-46 27q27 56 58.5 83.5t65.5 27.5q27 0 47 -12.5t39 -24.5t40 -12q19 0 35.5 12t34.5 36l45 -25q-27 -57 -57.5 -85t-65.5 -28z" />
    <glyph glyph-name="Umacron" unicode="&#x16a;" horiz-adv-x="724" 
d="M498 697l270 5l-10 -63l-93 -28l16 20l-57 -363q-15 -96 -52 -157.5t-99.5 -91.5t-153.5 -30q-115 0 -171 49t-56 148q0 18 1.5 37t5.5 40l59 368l11 -19l-84 22l10 63l266 5l-10 -63l-89 -28l16 20l-60 -376q-3 -18 -4.5 -35t-1.5 -31q0 -54 26 -79t88 -25q59 0 94 21.5
t55 64.5t29 104l57 356l13 -20l-85 23zM595 872l-14 -86h-278l13 86h279z" />
    <glyph glyph-name="umacron" unicode="&#x16b;" horiz-adv-x="612" 
d="M193 -11q-44 -1 -75 21.5t-43.5 63t-4.5 96.5l47 297l10 -23l-82 22l10 63l191 7l-54 -339q-5 -35 -1.5 -60.5t17 -39.5t36.5 -14q24 0 49 13.5t48.5 42t42 71.5t27.5 102l34 220h118l-73 -466l-15 22l89 -25l-10 -62l-181 -5l32 181l36 62q-21 -88 -62.5 -143t-90 -81
t-95.5 -26zM514 750l-14 -86h-278l13 86h279z" />
    <glyph glyph-name="Ubreve" unicode="&#x16c;" horiz-adv-x="724" 
d="M498 697l270 5l-10 -63l-93 -28l16 20l-57 -363q-15 -96 -52 -157.5t-99.5 -91.5t-153.5 -30q-115 0 -171 49t-56 148q0 18 1.5 37t5.5 40l59 368l11 -19l-84 22l10 63l266 5l-10 -63l-89 -28l16 20l-60 -376q-3 -18 -4.5 -35t-1.5 -31q0 -54 26 -79t88 -25q59 0 94 21.5
t55 64.5t29 104l57 356l13 -20l-85 23zM445 764q-38 0 -70 17.5t-49 51t-11 81.5h69q-2 -40 19 -55.5t48 -15.5q30 0 58 19t36 54l67 -4q-7 -50 -33 -82.5t-62 -49t-72 -16.5z" />
    <glyph glyph-name="ubreve" unicode="&#x16d;" horiz-adv-x="612" 
d="M193 -11q-44 -1 -75 21.5t-43.5 63t-4.5 96.5l47 297l10 -23l-82 22l10 63l191 7l-54 -339q-5 -35 -1.5 -60.5t17 -39.5t36.5 -14q24 0 49 13.5t48.5 42t42 71.5t27.5 102l34 220h118l-73 -466l-15 22l89 -25l-10 -62l-181 -5l32 181l36 62q-21 -88 -62.5 -143t-90 -81
t-95.5 -26zM363 626q-38 0 -70 17.5t-48.5 52.5t-9.5 86h70q-2 -38 17 -54.5t45 -16.5q31 0 57.5 19.5t35.5 53.5l68 -4q-7 -52 -33 -86t-61 -51t-71 -17z" />
    <glyph glyph-name="Uring" unicode="&#x16e;" horiz-adv-x="724" 
d="M498 697l270 5l-10 -63l-93 -28l16 20l-57 -363q-15 -96 -52 -157.5t-99.5 -91.5t-153.5 -30q-115 0 -171 49t-56 148q0 18 1.5 37t5.5 40l59 368l11 -19l-84 22l10 63l266 5l-10 -63l-89 -28l16 20l-60 -376q-3 -18 -4.5 -35t-1.5 -31q0 -54 26 -79t88 -25q59 0 94 21.5
t55 64.5t29 104l57 356l13 -20l-85 23zM437 731q-52 0 -79 28t-27 70q0 36 17 66t48 47.5t73 17.5q51 0 78 -27.5t27 -71.5q0 -34 -17 -64t-47 -48t-73 -18zM442 789q30 0 45.5 22t15.5 48q0 20 -10 32t-31 12q-29 0 -45 -22t-16 -49q0 -20 10 -31.5t31 -11.5z" />
    <glyph glyph-name="uring" unicode="&#x16f;" horiz-adv-x="612" 
d="M193 -11q-44 -1 -75 21.5t-43.5 63t-4.5 96.5l47 297l10 -23l-82 22l10 63l191 7l-54 -339q-5 -35 -1.5 -60.5t17 -39.5t36.5 -14q24 0 49 13.5t48.5 42t42 71.5t27.5 102l34 220h118l-73 -466l-15 22l89 -25l-10 -62l-181 -5l32 181l36 62q-21 -88 -62.5 -143t-90 -81
t-95.5 -26zM356 609q-52 0 -79 28t-27 70q0 36 17 66t48 47.5t73 17.5q51 0 78 -27.5t27 -71.5q0 -34 -17 -64t-47 -48t-73 -18zM361 667q30 0 45.5 22t15.5 48q0 20 -10 32t-31 12q-29 0 -45 -22t-16 -49q0 -20 10 -31.5t31 -11.5z" />
    <glyph glyph-name="Uhungarumlaut" unicode="&#x170;" horiz-adv-x="724" 
d="M498 697l270 5l-10 -63l-93 -28l16 20l-57 -363q-15 -96 -52 -157.5t-99.5 -91.5t-153.5 -30q-115 0 -171 49t-56 148q0 18 1.5 37t5.5 40l59 368l11 -19l-84 22l10 63l266 5l-10 -63l-89 -28l16 20l-60 -376q-3 -18 -4.5 -35t-1.5 -31q0 -54 26 -79t88 -25q59 0 94 21.5
t55 64.5t29 104l57 356l13 -20l-85 23zM523 743l-61 28l86 190l82 -41zM368 743l-62 27l79 191l84 -37z" />
    <glyph glyph-name="uhungarumlaut" unicode="&#x171;" horiz-adv-x="612" 
d="M193 -11q-44 -1 -75 21.5t-43.5 63t-4.5 96.5l47 297l10 -23l-82 22l10 63l191 7l-54 -339q-5 -35 -1.5 -60.5t17 -39.5t36.5 -14q24 0 49 13.5t48.5 42t42 71.5t27.5 102l34 220h118l-73 -466l-15 22l89 -25l-10 -62l-181 -5l32 181l36 62q-21 -88 -62.5 -143t-90 -81
t-95.5 -26zM444 610l-61 28l86 190l82 -41zM289 610l-62 27l79 191l84 -37z" />
    <glyph glyph-name="Uogonek" unicode="&#x172;" horiz-adv-x="724" 
d="M498 697l270 5l-10 -63l-93 -28l16 20l-57 -363q-15 -96 -52 -157.5t-99.5 -91.5t-153.5 -30q-115 0 -171 49t-56 148q0 18 1.5 37t5.5 40l59 368l11 -19l-84 22l10 63l266 5l-10 -63l-89 -28l16 20l-60 -376q-3 -18 -4.5 -35t-1.5 -31q0 -54 26 -79t88 -25q59 0 94 21.5
t55 64.5t29 104l57 356l13 -20l-85 23zM323 -223q-51 0 -80 22t-29 60q0 30 18.5 62.5t56 62t94.5 49.5l35 -33q-53 -17 -83 -46t-30 -55q0 -20 17 -31.5t47 -11.5q7 0 15.5 1t17.5 2l-3 -71q-21 -5 -39.5 -8t-36.5 -3z" />
    <glyph glyph-name="uogonek" unicode="&#x173;" horiz-adv-x="612" 
d="M193 -11q-44 -1 -75 21.5t-43.5 63t-4.5 96.5l47 297l10 -23l-82 22l10 63l191 7l-54 -339q-5 -35 -1.5 -60.5t17 -39.5t36.5 -14q24 0 49 13.5t48.5 42t42 71.5t27.5 102l34 220h118l-73 -466l-15 22l89 -25l-10 -62l-181 -5l32 181l36 62q-21 -88 -62.5 -143t-90 -81
t-95.5 -26zM376 -223q-51 0 -80 22t-29 60q0 30 18.5 62.5t56 62t94.5 49.5l35 -33q-53 -17 -83 -46t-30 -55q0 -20 17 -31.5t47 -11.5q7 0 15.5 1t17.5 2l-3 -71q-21 -5 -39.5 -8t-36.5 -3z" />
    <glyph glyph-name="Wcircumflex" unicode="&#x174;" horiz-adv-x="989" 
d="M802 697l249 5l-10 -63l-93 -25l34 33l-276 -648h-114l-68 552l24 -1l-243 -551h-113l-63 638l9 -21l-72 18l9 63l261 5l-10 -63l-93 -26l19 24l35 -525l-24 1l250 585l110 4l64 -587l-25 -1l209 523l10 -23l-89 20zM443 748l-33 48l156 127l68 6l127 -133l-46 -48
l-162 116l80 -2z" />
    <glyph glyph-name="wcircumflex" unicode="&#x175;" horiz-adv-x="805" 
d="M132 -2l-53 465l12 -11l-61 13l10 63l147 8l31 -467h-16l188 460l123 7l36 -468h-13l163 396l7 -16l-67 17l10 63l196 8l-8 -63l-55 -17l17 14l-209 -472h-128l-46 445l33 -3l-190 -442h-127zM338 621l-33 46l153 138l68 7l121 -145l-46 -46l-155 127l80 -1z" />
    <glyph glyph-name="Ycircumflex" unicode="&#x176;" horiz-adv-x="632" 
d="M140 0l9 63l94 24l-17 -18l33 206l7 -44l-144 401l18 -18l-76 20l10 63l262 5l-10 -63l-95 -23l10 22l105 -322h-25l204 317l8 -22l-88 23l10 63l240 5l-9 -63l-79 -21l25 17l-270 -404l16 44l-32 -206l-8 18l85 -24l-10 -63h-273zM267 748l-33 48l156 127l68 6l127 -133
l-46 -48l-162 116l80 -2z" />
    <glyph glyph-name="ycircumflex" unicode="&#x177;" horiz-adv-x="530" 
d="M-55 -235l15 87q13 -1 24 -2t21 -1q45 0 76.5 19t58.5 58t56 99l-6 -42l-116 480l10 -11l-57 13l10 63l147 8l85 -459l-31 6l176 381l5 -12l-62 13l9 63l209 8l-9 -63l-61 -18l19 11l-229 -465q-13 -28 -30.5 -60.5t-41 -64.5t-54 -58.5t-71 -42.5t-91.5 -16q-30 0 -62 6
zM168 621l-33 46l153 138l68 7l121 -145l-46 -46l-155 127l80 -1z" />
    <glyph glyph-name="Ydieresis" unicode="&#x178;" horiz-adv-x="632" 
d="M140 0l9 63l94 24l-17 -18l33 206l7 -44l-144 401l18 -18l-76 20l10 63l262 5l-10 -63l-95 -23l10 22l105 -322h-25l204 317l8 -22l-88 23l10 63l240 5l-9 -63l-79 -21l25 17l-270 -404l16 44l-32 -206l-8 18l85 -24l-10 -63h-273zM308 763q-26 0 -40.5 17t-14.5 45
q0 32 18.5 52.5t47.5 20.5q26 0 41 -16.5t15 -45.5q0 -32 -19 -52.5t-48 -20.5zM512 763q-26 0 -41 17t-15 45q0 32 18.5 52.5t48.5 20.5q26 0 41 -16.5t15 -45.5q0 -32 -19 -52.5t-48 -20.5z" />
    <glyph glyph-name="Zacute" unicode="&#x179;" horiz-adv-x="600" 
d="M0 0l9 83l461 538l11 -11h-306l31 15l-38 -107h-72l29 184h486l-10 -87l-459 -543l-3 20h322l-30 -18l37 111h73l-31 -185h-510zM278 752l-29 58l234 133l39 -93z" />
    <glyph glyph-name="zacute" unicode="&#x17a;" horiz-adv-x="486" 
d="M430 166l-25 -166h-408l10 72l347 402l14 -26h-243l37 28l-27 -99h-73l24 155h393l-11 -72l-351 -410v34l237 1l-37 -36l41 117h72zM246 610l-44 61l204 155l59 -87z" />
    <glyph glyph-name="Zdotaccent" unicode="&#x17b;" horiz-adv-x="600" 
d="M0 0l9 83l461 538l11 -11h-306l31 15l-38 -107h-72l29 184h486l-10 -87l-459 -543l-3 20h322l-30 -18l37 111h73l-31 -185h-510zM378 763q-30 0 -47 18t-17 48q0 36 22.5 59t57.5 23q29 0 46.5 -17.5t17.5 -48.5q0 -35 -22 -58.5t-58 -23.5z" />
    <glyph glyph-name="zdotaccent" unicode="&#x17c;" horiz-adv-x="486" 
d="M430 166l-25 -166h-408l10 72l347 402l14 -26h-243l37 28l-27 -99h-73l24 155h393l-11 -72l-351 -410v34l237 1l-37 -36l41 117h72zM303 623q-30 0 -47 18t-17 48q0 36 22.5 59t57.5 23q29 0 46.5 -17.5t17.5 -48.5q0 -35 -22 -58.5t-58 -23.5z" />
    <glyph glyph-name="Zcaron" unicode="&#x17d;" horiz-adv-x="600" 
d="M0 0l9 83l461 538l11 -11h-306l31 15l-38 -107h-72l29 184h486l-10 -87l-459 -543l-3 20h322l-30 -18l37 111h73l-31 -185h-510zM538 939l32 -49l-156 -127l-68 -6l-127 133l47 49l161 -116l-80 1z" />
    <glyph glyph-name="zcaron" unicode="&#x17e;" horiz-adv-x="486" 
d="M430 166l-25 -166h-408l10 72l347 402l14 -26h-243l37 28l-27 -99h-73l24 155h393l-11 -72l-351 -410v34l237 1l-37 -36l41 117h72zM459 812l34 -46l-154 -138l-68 -6l-121 144l46 46l156 -127l-80 1z" />
    <glyph glyph-name="longs" unicode="&#x17f;" horiz-adv-x="391" 
d="M-119 -235l19 84q9 -1 17 -2t17 -1q46 0 73.5 23.5t37.5 86.5l100 633q12 72 44 115t77 61t95 18q40 0 79.5 -9t70.5 -21l-21 -124h-72l-2 73l11 -15q-13 4 -27 6.5t-28 2.5q-38 0 -68.5 -22t-39.5 -76l-97 -614q-11 -67 -33 -111t-51.5 -69t-64.5 -35.5t-71 -10.5
q-20 0 -36.5 2.5t-29.5 4.5z" />
    <glyph glyph-name="uni018F" unicode="&#x18f;" horiz-adv-x="672" 
d="M277 -11q-70 0 -121 28.5t-79 82t-28 128.5q0 37 6.5 78t14.5 72l489 -4l-13 -88h-384l18 11q-4 -22 -6 -41t-2 -35q0 -71 33 -104t85 -33q56 0 97.5 32t68.5 83.5t40 111.5t13 115q0 96 -38 142t-110 46q-45 0 -99 -18.5t-114 -55.5l-39 75q77 50 148.5 74t132.5 24
q72 0 127 -31t86 -93.5t31 -156.5q0 -83 -25 -162t-71.5 -142.5t-113 -101t-147.5 -37.5z" />
    <glyph glyph-name="florin" unicode="&#x192;" horiz-adv-x="494" 
d="M33 -204q-16 0 -33 1.5t-35 5.5l19 87q8 -1 18 -2.5t20 -1.5q34 0 55.5 12t33 29.5t16 37.5t7.5 38l62 389l23 -15h-104l10 66l110 14l-32 -21l23 145q7 43 22.5 80t40.5 64.5t62 43.5t87 16q22 0 45.5 -3.5t47.5 -9.5l-25 -82q-27 6 -53 6q-36 0 -58 -13t-33 -35.5
t-15 -48.5l-27 -163l-21 17h164l-12 -76h-163l25 12l-59 -371q-7 -46 -22.5 -86t-41 -70.5t-64.5 -48t-93 -17.5z" />
    <glyph glyph-name="Ohorn" unicode="&#x1a0;" horiz-adv-x="729" 
d="M316 -11q-82 0 -139.5 32t-88 95t-30.5 155q0 62 14 125t43.5 120t74 101.5t105.5 70t139 25.5q83 0 140.5 -32t86.5 -94t29 -153q0 -61 -14 -124t-43 -120.5t-73.5 -103t-105 -71.5t-138.5 -26zM327 85q49 0 87 22.5t66 60t47 83.5t28 94t9 90q0 64 -18.5 104t-50.5 59
t-75 19q-48 0 -86 -22t-66 -59.5t-46.5 -83t-27.5 -93t-9 -90.5q0 -64 18 -104.5t50.5 -60t73.5 -19.5zM564 632l-30 59q47 1 76 11.5t42.5 31t13.5 49.5q0 10 -1.5 22t-4.5 24l89 17q5 -18 8.5 -36t3.5 -34q0 -71 -54.5 -107.5t-142.5 -36.5z" />
    <glyph glyph-name="ohorn" unicode="&#x1a1;" horiz-adv-x="574" 
d="M410 470l-12 60q56 1 80 20.5t24 59.5q0 11 -2 24t-4 27l88 20q6 -18 8.5 -35t2.5 -33q0 -70 -48.5 -106.5t-136.5 -36.5zM324 543q60 0 105.5 -22.5t71 -71t25.5 -126.5q0 -63 -18 -122.5t-54 -107t-90.5 -76t-127.5 -28.5q-59 0 -104.5 22.5t-71 71t-25.5 127.5
q0 62 17.5 121.5t53.5 107.5t90.5 76t127.5 28zM311 456q-42 0 -72 -23.5t-48.5 -61.5t-27 -80.5t-8.5 -81.5q0 -65 22.5 -99t71.5 -34q42 0 71.5 24.5t48 63t27.5 82t9 80.5q0 65 -22.5 97.5t-71.5 32.5z" />
    <glyph glyph-name="Uhorn" unicode="&#x1af;" horiz-adv-x="736" 
d="M318 -11q-114 0 -170 49t-56 149q0 22 2 41.5t5 34.5l59 368l11 -19l-84 22l10 63l266 5l-10 -63l-89 -28l16 20l-60 -376q-1 -14 -3.5 -31.5t-2.5 -35.5q0 -53 26 -78t87 -25q48 0 80.5 15t52 42t30 61t16.5 72l57 356l13 -20l-85 23l9 63l132 3q20 1 38 7t29.5 23
t11.5 48q0 11 -1.5 24t-4.5 26l88 19q12 -41 12 -73q0 -66 -43 -101.5t-123 -37.5l47 13l-60 -380q-6 -36 -16.5 -74.5t-30.5 -75t-53.5 -66t-83.5 -46.5t-122 -17z" />
    <glyph glyph-name="uhorn" unicode="&#x1b0;" horiz-adv-x="612" 
d="M193 -11q-44 -1 -75 21.5t-43.5 63t-4.5 96.5l47 297l10 -23l-82 22l10 63l191 7l-54 -339q-5 -35 -1.5 -60.5t17 -39.5t36.5 -14q24 0 49 13.5t48.5 42t42 71.5t27.5 102l34 220h118l-73 -466l-15 22l89 -25l-10 -62l-181 -5l32 181l36 62q-21 -88 -62.5 -143t-90 -81
t-95.5 -26zM501 474v58q42 1 58.5 23t16.5 57q0 12 -1.5 24.5t-4.5 25.5l86 16q12 -40 12 -72q0 -64 -43.5 -99t-123.5 -33z" />
    <glyph glyph-name="uni01C4" unicode="&#x1c4;" horiz-adv-x="1279" 
d="M404 702q88 0 148.5 -29t91 -89t30.5 -154q0 -86 -25.5 -163.5t-75.5 -137.5t-122 -94.5t-166 -34.5h-282l10 63l91 24l-18 -18l90 562l13 -20l-86 23l10 63l207 5h84zM306 90q50 0 89.5 22.5t68 60t47 83.5t27.5 93.5t9 88.5q0 57 -17 95.5t-53 58.5t-92 20h-112l23 22
l-90 -568l-14 24h114zM678 0l9 83l461 538l11 -11h-306l31 15l-38 -107h-72l29 184h486l-10 -87l-459 -543l-3 20h322l-30 -18l37 111h73l-31 -185h-510zM1216 939l32 -49l-156 -127l-68 -6l-127 133l47 49l161 -116l-80 1z" />
    <glyph glyph-name="uni01C5" unicode="&#x1c5;" horiz-adv-x="1191" 
d="M404 702q88 0 148.5 -29t91 -89t30.5 -154q0 -86 -25.5 -163.5t-75.5 -137.5t-122 -94.5t-166 -34.5h-282l10 63l91 24l-18 -18l90 562l13 -20l-86 23l10 63l207 5h84zM306 90q50 0 89.5 22.5t68 60t47 83.5t27.5 93.5t9 88.5q0 57 -17 95.5t-53 58.5t-92 20h-112l23 22
l-90 -568l-14 24h114zM1135 166l-25 -166h-408l10 72l347 402l14 -26h-243l37 28l-27 -99h-73l24 155h393l-11 -72l-351 -410v34l237 1l-37 -36l41 117h72zM1164 812l34 -46l-154 -138l-68 -6l-121 144l46 46l156 -127l-80 1z" />
    <glyph glyph-name="uni01C6" unicode="&#x1c6;" horiz-adv-x="1075" 
d="M175 -11q-39 0 -72 21t-52.5 64.5t-19.5 113.5q0 74 22.5 138t63.5 113t96 77t119 28q41 0 84.5 -13.5t87.5 -44.5l-85 23l37 233l42 -72l-123 37l10 63l194 6l-119 -749l-41 76l122 -37l-10 -65l-180 -6l31 183l35 61q-19 -83 -59 -138.5t-89 -83.5t-94 -28zM222 85
q23 0 48 14.5t48.5 44t42 72.5t27.5 101l22 135l20 -35q-26 19 -51 27.5t-50 8.5q-39 0 -71.5 -20.5t-56.5 -56t-37 -80.5t-13 -94q0 -61 20 -89t51 -28zM1020 166l-25 -166h-408l10 72l347 402l14 -26h-243l37 28l-27 -99h-73l24 155h393l-11 -72l-351 -410v34l237 1
l-37 -36l41 117h72zM1048 812l34 -46l-154 -138l-68 -6l-121 144l46 46l156 -127l-80 1z" />
    <glyph glyph-name="uni01C7" unicode="&#x1c7;" horiz-adv-x="870" 
d="M433 202h72l-32 -202h-470l10 63l91 24l-18 -18l90 561l13 -19l-86 23l10 63l276 5l-10 -63l-99 -28l16 20l-90 -568l-13 27h221l-22 -20zM634 697l273 5l-10 -63l-92 -28l16 20l-90 -566q-8 -48 -23.5 -89t-42 -71.5t-65.5 -47t-93 -16.5q-32 0 -66 6l20 89
q8 -1 16.5 -2t17.5 -1q35 0 56 11t32 27.5t16 35t7 32.5l94 592l14 -20l-90 23z" />
    <glyph glyph-name="uni01C8" unicode="&#x1c8;" horiz-adv-x="827" 
d="M433 202h72l-32 -202h-470l10 63l91 24l-18 -18l90 561l13 -19l-86 23l10 63l276 5l-10 -63l-99 -28l16 20l-90 -568l-13 27h221l-22 -20zM420 -235l19 84q9 -1 17.5 -2t16.5 -1q53 0 77.5 27.5t33.5 83.5l79 503l10 -16l-81 22l10 63l191 7l-87 -552
q-13 -84 -44.5 -133.5t-77 -70.5t-101.5 -21q-18 0 -32.5 2t-30.5 4zM745 623q-30 0 -47 18t-17 48q0 36 22.5 59t57.5 23q29 0 46.5 -17.5t17.5 -48.5q0 -35 -22 -58.5t-58 -23.5z" />
    <glyph glyph-name="uni01C9" unicode="&#x1c9;" horiz-adv-x="577" 
d="M33 -4l119 747l41 -73l-121 34l10 65l193 7l-119 -748l-43 75l124 -37l-11 -65zM170 -235l19 84q9 -1 17.5 -2t16.5 -1q53 0 77.5 27.5t33.5 83.5l79 503l10 -16l-81 22l10 63l191 7l-87 -552q-13 -84 -44.5 -133.5t-77 -70.5t-101.5 -21q-18 0 -32.5 2t-30.5 4zM495 623
q-30 0 -47 18t-17 48q0 36 22.5 59t57.5 23q29 0 46.5 -17.5t17.5 -48.5q0 -35 -22 -58.5t-58 -23.5z" />
    <glyph glyph-name="uni01CA" unicode="&#x1ca;" horiz-adv-x="1090" 
d="M542 697l245 5l-10 -63l-89 -28l16 20l-101 -631h-129l-223 570l14 1l-80 -502l-8 18l81 -24l-10 -63h-245l10 63l91 24l-18 -18l90 562l13 -20l-86 23l10 63l212 5l217 -559l-15 -1l78 489l13 -20l-86 23zM854 697l273 5l-10 -63l-92 -28l16 20l-90 -566
q-8 -48 -23.5 -89t-42 -71.5t-65.5 -47t-93 -16.5q-32 0 -66 6l20 89q8 -1 16.5 -2t17.5 -1q35 0 56 11t32 27.5t16 35t7 32.5l94 592l14 -20l-90 23z" />
    <glyph glyph-name="uni01CB" unicode="&#x1cb;" horiz-adv-x="1038" 
d="M542 697l245 5l-10 -63l-89 -28l16 20l-101 -631h-129l-223 570l14 1l-80 -502l-8 18l81 -24l-10 -63h-245l10 63l91 24l-18 -18l90 562l13 -20l-86 23l10 63l212 5l217 -559l-15 -1l78 489l13 -20l-86 23zM631 -235l19 84q9 -1 17.5 -2t16.5 -1q53 0 77.5 27.5
t33.5 83.5l79 503l10 -16l-81 22l10 63l191 7l-87 -552q-13 -84 -44.5 -133.5t-77 -70.5t-101.5 -21q-18 0 -32.5 2t-30.5 4zM956 623q-30 0 -47 18t-17 48q0 36 22.5 59t57.5 23q29 0 46.5 -17.5t17.5 -48.5q0 -35 -22 -58.5t-58 -23.5z" />
    <glyph glyph-name="uni01CC" unicode="&#x1cc;" horiz-adv-x="899" 
d="M366 -4l55 339q6 35 2 60.5t-17.5 39.5t-37.5 14q-23 0 -48.5 -14t-49 -42t-41.5 -71t-27 -102l-35 -220h-118l80 503l42 -74l-121 37l10 63l186 7l-37 -179l-38 -63q23 88 64.5 143t90 80.5t92.5 25.5q46 0 77 -22t44 -62.5t3 -97.5l-47 -297l-51 39l125 -37l-10 -65z
M492 -235l19 84q9 -1 17.5 -2t16.5 -1q53 0 77.5 27.5t33.5 83.5l79 503l10 -16l-81 22l10 63l191 7l-87 -552q-13 -84 -44.5 -133.5t-77 -70.5t-101.5 -21q-18 0 -32.5 2t-30.5 4zM817 623q-30 0 -47 18t-17 48q0 36 22.5 59t57.5 23q29 0 46.5 -17.5t17.5 -48.5
q0 -35 -22 -58.5t-58 -23.5z" />
    <glyph glyph-name="uni01CD" unicode="&#x1cd;" horiz-adv-x="683" 
d="M594 60l-26 29l76 -26l-10 -63h-258l11 63l86 24l-7 -19l-21 140l9 -17h-265l19 16l-67 -138l-2 16l80 -22l-10 -63h-245l10 63l85 25l-34 -25l328 638l124 3zM232 260l-6 19h223l-10 -22l-55 377l29 -1zM590 939l32 -49l-156 -127l-68 -6l-127 133l47 49l161 -116l-80 1
z" />
    <glyph glyph-name="uni01CE" unicode="&#x1ce;" horiz-adv-x="589" 
d="M175 -11q-39 0 -72 21t-52.5 64.5t-19.5 113.5q0 74 22.5 138t63.5 113t96 77t119 28q41 0 84.5 -13.5t87.5 -44.5l-53 10l25 36h64l-80 -505l-41 76l122 -37l-10 -65l-180 -6l31 183l34 61q-18 -83 -58.5 -138.5t-89 -83.5t-93.5 -28zM222 85q23 0 48.5 14.5t48.5 44
t41.5 72.5t27.5 101l23 139l19 -39q-26 19 -51 27.5t-50 8.5q-39 0 -71.5 -20.5t-56.5 -56t-37 -80.5t-13 -94q0 -61 20 -89t51 -28zM501 812l34 -46l-154 -138l-68 -6l-121 144l46 46l156 -127l-80 1z" />
    <glyph glyph-name="uni01CF" unicode="&#x1cf;" horiz-adv-x="356" 
d="M373 639l-93 -28l16 19l-89 -561l-8 18l82 -24l-10 -63h-268l10 63l91 24l-18 -18l89 560l14 -18l-86 23l10 63l270 5zM419 939l32 -49l-156 -127l-68 -6l-127 133l47 49l161 -116l-80 1z" />
    <glyph glyph-name="uni01D0" unicode="&#x1d0;" horiz-adv-x="300" 
d="M49 -4l80 507l43 -74l-122 37l10 63l192 7l-81 -509l-40 75l120 -38l-10 -63zM331 812l37 -45l-133 -139l-68 -6l-93 152l48 38l120 -130l-75 4z" />
    <glyph glyph-name="uni01D1" unicode="&#x1d1;" horiz-adv-x="720" 
d="M316 -11q-82 0 -139.5 32t-88 95t-30.5 155q0 62 14 125t43.5 120t74 101.5t105 70t136.5 25.5q83 0 141 -32t88 -94.5t30 -154.5q0 -60 -14 -123t-43 -120t-73.5 -102.5t-105 -71.5t-138.5 -26zM327 85q49 0 87 22.5t66 60t47 83.5t28 94t9 90q0 64 -18.5 104t-50.5 59
t-75 19q-48 0 -86 -22t-66 -59.5t-46.5 -83t-27.5 -93t-9 -90.5q0 -64 18 -104.5t50.5 -60t73.5 -19.5zM618 939l32 -49l-156 -127l-68 -6l-127 133l47 49l161 -116l-80 1z" />
    <glyph glyph-name="uni01D2" unicode="&#x1d2;" horiz-adv-x="559" 
d="M327 543q59 0 104 -22t70 -69.5t25 -126.5q0 -62 -18 -122t-54 -108.5t-91 -77t-130 -28.5q-59 0 -104 22t-70 70t-25 125q0 63 18 122.5t54 108t91 77.5t130 29zM311 456q-42 0 -72 -25t-48.5 -63t-27.5 -81.5t-9 -80.5q0 -61 23 -95.5t72 -34.5q41 0 71 25t49 63.5
t28 82t9 80.5q0 61 -23 95t-72 34zM499 812l34 -46l-154 -138l-68 -6l-121 144l46 46l156 -127l-80 1z" />
    <glyph glyph-name="uni01D3" unicode="&#x1d3;" horiz-adv-x="724" 
d="M498 697l270 5l-10 -63l-93 -28l16 20l-57 -363q-15 -96 -52 -157.5t-99.5 -91.5t-153.5 -30q-115 0 -171 49t-56 148q0 18 1.5 37t5.5 40l59 368l11 -19l-84 22l10 63l266 5l-10 -63l-89 -28l16 20l-60 -376q-3 -18 -4.5 -35t-1.5 -31q0 -54 26 -79t88 -25q59 0 94 21.5
t55 64.5t29 104l57 356l13 -20l-85 23zM602 939l32 -49l-156 -127l-68 -6l-127 133l47 49l161 -116l-80 1z" />
    <glyph glyph-name="uni01D4" unicode="&#x1d4;" horiz-adv-x="612" 
d="M193 -11q-44 -1 -75 21.5t-43.5 63t-4.5 96.5l47 297l10 -23l-82 22l10 63l191 7l-54 -339q-5 -35 -1.5 -60.5t17 -39.5t36.5 -14q24 0 49 13.5t48.5 42t42 71.5t27.5 102l34 220h118l-73 -466l-15 22l89 -25l-10 -62l-181 -5l32 181l36 62q-21 -88 -62.5 -143t-90 -81
t-95.5 -26zM513 812l34 -46l-154 -138l-68 -6l-121 144l46 46l156 -127l-80 1z" />
    <glyph glyph-name="uni01D5" unicode="&#x1d5;" horiz-adv-x="724" 
d="M498 697l270 5l-10 -63l-93 -28l16 20l-57 -363q-15 -96 -52 -157.5t-99.5 -91.5t-153.5 -30q-115 0 -171 49t-56 148q0 18 1.5 37t5.5 40l59 368l11 -19l-84 22l10 63l266 5l-10 -63l-89 -28l16 20l-60 -376q-3 -18 -4.5 -35t-1.5 -31q0 -54 26 -79t88 -25q59 0 94 21.5
t55 64.5t29 104l57 356l13 -20l-85 23zM339 751q-26 0 -40.5 17t-14.5 45q0 32 18.5 52.5t47.5 20.5q26 0 41 -16.5t15 -45.5q0 -32 -19 -52.5t-48 -20.5zM543 751q-26 0 -41 17t-15 45q0 32 18.5 52.5t48.5 20.5q26 0 41 -16.5t15 -45.5q0 -32 -19 -52.5t-48 -20.5z
M616 1013l-14 -86h-278l13 86h279z" />
    <glyph glyph-name="uni01D6" unicode="&#x1d6;" horiz-adv-x="612" 
d="M193 -11q-44 -1 -75 21.5t-43.5 63t-4.5 96.5l47 297l10 -23l-82 22l10 63l191 7l-54 -339q-5 -35 -1.5 -60.5t17 -39.5t36.5 -14q24 0 49 13.5t48.5 42t42 71.5t27.5 102l34 220h118l-73 -466l-15 22l89 -25l-10 -62l-181 -5l32 181l36 62q-21 -88 -62.5 -143t-90 -81
t-95.5 -26zM531 863l-14 -86h-278l13 86h279zM251 598q-26 0 -40.5 17t-14.5 45q0 32 18.5 52.5t47.5 20.5q26 0 41 -16.5t15 -45.5q0 -32 -19 -52.5t-48 -20.5zM455 598q-26 0 -41 17t-15 45q0 32 18.5 52.5t48.5 20.5q26 0 41 -16.5t15 -45.5q0 -32 -19 -52.5t-48 -20.5z
" />
    <glyph glyph-name="uni01D7" unicode="&#x1d7;" horiz-adv-x="724" 
d="M498 697l270 5l-10 -63l-93 -28l16 20l-57 -363q-15 -96 -52 -157.5t-99.5 -91.5t-153.5 -30q-115 0 -171 49t-56 148q0 18 1.5 37t5.5 40l59 368l11 -19l-84 22l10 63l266 5l-10 -63l-89 -28l16 20l-60 -376q-3 -18 -4.5 -35t-1.5 -31q0 -54 26 -79t88 -25q59 0 94 21.5
t55 64.5t29 104l57 356l13 -20l-85 23zM557 744q-25 0 -39.5 16.5t-14.5 43.5q0 34 19 55t49 21q26 0 40 -16.5t14 -44.5q0 -34 -20 -54.5t-48 -20.5zM318 744q-25 0 -39 16t-14 44q0 33 18 54.5t49 21.5q26 0 40.5 -16t14.5 -44q0 -34 -20 -55t-49 -21zM436 839l-42 49
l152 145l55 -66z" />
    <glyph glyph-name="uni01D8" unicode="&#x1d8;" horiz-adv-x="612" 
d="M193 -11q-44 -1 -75 21.5t-43.5 63t-4.5 96.5l47 297l10 -23l-82 22l10 63l191 7l-54 -339q-5 -35 -1.5 -60.5t17 -39.5t36.5 -14q24 0 49 13.5t48.5 42t42 71.5t27.5 102l34 220h118l-73 -466l-15 22l89 -25l-10 -62l-181 -5l32 181l36 62q-21 -88 -62.5 -143t-90 -81
t-95.5 -26zM464 598q-27 0 -41 16t-14 43q0 36 19.5 56t46.5 20q26 0 41 -15t15 -43q0 -37 -19.5 -57t-47.5 -20zM248 598q-26 0 -40.5 15.5t-14.5 42.5q0 37 19 57t47 20q27 0 41.5 -15t14.5 -43q0 -37 -20 -57t-47 -20zM360 696l-41 49l151 145l55 -66z" />
    <glyph glyph-name="uni01D9" unicode="&#x1d9;" horiz-adv-x="724" 
d="M498 697l270 5l-10 -63l-93 -28l16 20l-57 -363q-15 -96 -52 -157.5t-99.5 -91.5t-153.5 -30q-115 0 -171 49t-56 148q0 18 1.5 37t5.5 40l59 368l11 -19l-84 22l10 63l266 5l-10 -63l-89 -28l16 20l-60 -376q-3 -18 -4.5 -35t-1.5 -31q0 -54 26 -79t88 -25q59 0 94 21.5
t55 64.5t29 104l57 356l13 -20l-85 23zM427 851l-131 135l43 46l164 -121l-80 1l192 120l30 -46l-161 -129zM312 745q-25 0 -39.5 16t-14.5 44q0 34 19 55t49 21q26 0 40.5 -16.5t14.5 -44.5q0 -33 -20.5 -54t-48.5 -21zM569 745q-25 0 -39 16t-14 44q0 34 19 55t48 21
q26 0 40.5 -16.5t14.5 -44.5q0 -33 -20 -54t-49 -21z" />
    <glyph glyph-name="uni01DA" unicode="&#x1da;" horiz-adv-x="612" 
d="M193 -11q-44 -1 -75 21.5t-43.5 63t-4.5 96.5l47 297l10 -23l-82 22l10 63l191 7l-54 -339q-5 -35 -1.5 -60.5t17 -39.5t36.5 -14q24 0 49 13.5t48.5 42t42 71.5t27.5 102l34 220h118l-73 -466l-15 22l89 -25l-10 -62l-181 -5l32 181l36 62q-21 -88 -62.5 -143t-90 -81
t-95.5 -26zM464 598q-25 0 -39 16t-14 44q0 32 19 53.5t48 21.5q26 0 40.5 -16t14.5 -44q0 -34 -20 -54.5t-49 -20.5zM218 598q-25 0 -39 16t-14 44q0 34 19 54.5t49 20.5q25 0 39.5 -16t14.5 -44q0 -34 -20 -54.5t-49 -20.5zM517 895l33 -49l-156 -127l-69 -6l-126 133
l46 49l162 -116l-80 1z" />
    <glyph glyph-name="uni01DB" unicode="&#x1db;" horiz-adv-x="724" 
d="M498 697l270 5l-10 -63l-93 -28l16 20l-57 -363q-15 -96 -52 -157.5t-99.5 -91.5t-153.5 -30q-115 0 -171 49t-56 148q0 18 1.5 37t5.5 40l59 368l11 -19l-84 22l10 63l266 5l-10 -63l-89 -28l16 20l-60 -376q-3 -18 -4.5 -35t-1.5 -31q0 -54 26 -79t88 -25q59 0 94 21.5
t55 64.5t29 104l57 356l13 -20l-85 23zM318 745q-25 0 -39 16t-14 44q0 34 19 55t48 21q26 0 40.5 -16.5t14.5 -44.5q0 -33 -20 -54t-49 -21zM556 745q-25 0 -39.5 16t-14.5 44q0 34 19 55t49 21q26 0 40.5 -16.5t14.5 -44.5q0 -33 -20.5 -54t-48.5 -21zM455 839l-127 127
l71 67l109 -146z" />
    <glyph glyph-name="uni01DC" unicode="&#x1dc;" horiz-adv-x="612" 
d="M193 -11q-44 -1 -75 21.5t-43.5 63t-4.5 96.5l47 297l10 -23l-82 22l10 63l191 7l-54 -339q-5 -35 -1.5 -60.5t17 -39.5t36.5 -14q24 0 49 13.5t48.5 42t42 71.5t27.5 102l34 220h118l-73 -466l-15 22l89 -25l-10 -62l-181 -5l32 181l36 62q-21 -88 -62.5 -143t-90 -81
t-95.5 -26zM369 696l-127 128l71 66l109 -145zM240 597q-25 0 -39.5 16t-14.5 44q0 34 19 55t49 21q26 0 40.5 -16t14.5 -44q0 -34 -20 -55t-49 -21zM460 597q-25 0 -39 16t-14 44q0 34 19 55t49 21q25 0 40 -16t15 -44q0 -34 -20.5 -55t-49.5 -21z" />
    <glyph glyph-name="Gcaron" unicode="&#x1e6;" horiz-adv-x="706" 
d="M319 -11q-79 0 -137.5 30.5t-91 94t-32.5 164.5q0 89 26.5 168t76 139t119 94t155.5 34q55 0 110.5 -13.5t113.5 -39.5l-33 -171h-71l-4 118l19 -18q-34 15 -66 21.5t-60 6.5q-59 0 -107 -26.5t-82 -73t-52 -108t-18 -132.5q0 -69 18 -110.5t52 -60.5t82 -19q33 0 69.5 8
t76.5 22l-16 -29l28 196l17 -21l-90 17l10 65l259 5l-10 -66l-89 -22l15 22l-34 -235q-70 -31 -134.5 -45.5t-119.5 -14.5zM614 939l32 -49l-156 -127l-68 -6l-127 133l47 49l161 -116l-80 1z" />
    <glyph glyph-name="gcaron" unicode="&#x1e7;" horiz-adv-x="574" 
d="M185 -241q-47 0 -94.5 9.5t-90.5 23.5l24 85q42 -15 83 -22.5t74 -7.5q46 0 76.5 13.5t49.5 35.5t29 49.5t15 54.5l27 178l39 61q-19 -83 -59 -138.5t-89 -83.5t-94 -28q-39 0 -72 21t-52.5 64.5t-19.5 113.5q0 73 22.5 137.5t63.5 113.5t96 76.5t119 27.5
q41 0 84.5 -13.5t87.5 -43.5l-51 12l23 34h64l-83 -530q-11 -68 -36.5 -115t-62 -75t-81 -40.5t-92.5 -12.5zM222 85q23 0 48.5 14.5t48.5 44t41.5 72.5t27.5 101l23 139l19 -39q-26 19 -51 27.5t-50 8.5q-39 0 -71.5 -20.5t-56.5 -56t-37 -80.5t-13 -94q0 -61 20 -89
t51 -28zM498 812l34 -46l-154 -138l-68 -6l-121 144l46 46l156 -127l-80 1z" />
    <glyph glyph-name="uni01EA" unicode="&#x1ea;" horiz-adv-x="720" 
d="M316 -11q-82 0 -139.5 32t-88 95t-30.5 155q0 62 14 125t43.5 120t74 101.5t105 70t136.5 25.5q83 0 141 -32t88 -94.5t30 -154.5q0 -60 -14 -123t-43 -120t-73.5 -102.5t-105 -71.5t-138.5 -26zM327 85q49 0 87 22.5t66 60t47 83.5t28 94t9 90q0 64 -18.5 104t-50.5 59
t-75 19q-48 0 -86 -22t-66 -59.5t-46.5 -83t-27.5 -93t-9 -90.5q0 -64 18 -104.5t50.5 -60t73.5 -19.5zM312 -223q-51 0 -80 22t-29 60q0 30 18.5 62.5t56 62t94.5 49.5l35 -33q-53 -17 -83 -46t-30 -55q0 -20 17 -31.5t47 -11.5q7 0 15.5 1t17.5 2l-3 -71q-21 -5 -39.5 -8
t-36.5 -3z" />
    <glyph glyph-name="uni01EB" unicode="&#x1eb;" horiz-adv-x="559" 
d="M327 543q59 0 104 -22t70 -69.5t25 -126.5q0 -62 -18 -122t-54 -108.5t-91 -77t-130 -28.5q-59 0 -104 22t-70 70t-25 125q0 63 18 122.5t54 108t91 77.5t130 29zM311 456q-42 0 -72 -25t-48.5 -63t-27.5 -81.5t-9 -80.5q0 -61 23 -95.5t72 -34.5q41 0 71 25t49 63.5
t28 82t9 80.5q0 61 -23 95t-72 34zM223 -222q-51 0 -80 22t-29 60q0 30 18.5 62.5t56 62t94.5 49.5l35 -33q-53 -17 -83 -46t-30 -55q0 -20 17 -31.5t47 -11.5q7 0 15.5 1t17.5 2l-3 -71q-21 -5 -39.5 -8t-36.5 -3z" />
    <glyph glyph-name="uni01F1" unicode="&#x1f1;" horiz-adv-x="1279" 
d="M404 702q88 0 148.5 -29t91 -89t30.5 -154q0 -86 -25.5 -163.5t-75.5 -137.5t-122 -94.5t-166 -34.5h-282l10 63l91 24l-18 -18l90 562l13 -20l-86 23l10 63l207 5h84zM306 90q50 0 89.5 22.5t68 60t47 83.5t27.5 93.5t9 88.5q0 57 -17 95.5t-53 58.5t-92 20h-112l23 22
l-90 -568l-14 24h114zM678 0l9 83l461 538l11 -11h-306l31 15l-38 -107h-72l29 184h486l-10 -87l-459 -543l-3 20h322l-30 -18l37 111h73l-31 -185h-510z" />
    <glyph glyph-name="uni01F2" unicode="&#x1f2;" horiz-adv-x="1191" 
d="M404 702q88 0 148.5 -29t91 -89t30.5 -154q0 -86 -25.5 -163.5t-75.5 -137.5t-122 -94.5t-166 -34.5h-282l10 63l91 24l-18 -18l90 562l13 -20l-86 23l10 63l207 5h84zM306 90q50 0 89.5 22.5t68 60t47 83.5t27.5 93.5t9 88.5q0 57 -17 95.5t-53 58.5t-92 20h-112l23 22
l-90 -568l-14 24h114zM1135 166l-25 -166h-408l10 72l347 402l14 -26h-243l37 28l-27 -99h-73l24 155h393l-11 -72l-351 -410v34l237 1l-37 -36l41 117h72z" />
    <glyph glyph-name="uni01F3" unicode="&#x1f3;" horiz-adv-x="1075" 
d="M175 -11q-39 0 -72 21t-52.5 64.5t-19.5 113.5q0 74 22.5 138t63.5 113t96 77t119 28q41 0 84.5 -13.5t87.5 -44.5l-85 23l37 233l42 -72l-123 37l10 63l194 6l-119 -749l-41 76l122 -37l-10 -65l-180 -6l31 183l35 61q-19 -83 -59 -138.5t-89 -83.5t-94 -28zM222 85
q23 0 48 14.5t48.5 44t42 72.5t27.5 101l22 135l20 -35q-26 19 -51 27.5t-50 8.5q-39 0 -71.5 -20.5t-56.5 -56t-37 -80.5t-13 -94q0 -61 20 -89t51 -28zM1020 166l-25 -166h-408l10 72l347 402l14 -26h-243l37 28l-27 -99h-73l24 155h393l-11 -72l-351 -410v34l237 1
l-37 -36l41 117h72z" />
    <glyph glyph-name="Aringacute" unicode="&#x1fa;" horiz-adv-x="683" 
d="M594 60l-26 29l76 -26l-10 -63h-258l11 63l86 24l-7 -19l-21 140l9 -17h-265l19 16l-67 -138l-2 16l80 -22l-10 -63h-245l10 63l85 25l-34 -25l328 638l124 3zM232 260l-6 19h223l-10 -22l-55 377l29 -1zM360 950l-28 58l236 128l39 -94zM426 728q-51 0 -78.5 27.5
t-27.5 69.5q0 37 17 66.5t48.5 47t72.5 17.5q52 0 78.5 -27.5t26.5 -71.5q0 -34 -16.5 -64t-47 -47.5t-73.5 -17.5zM432 785q30 0 45.5 22t15.5 48q0 20 -10 32t-31 12q-30 0 -45.5 -22t-15.5 -49q0 -20 10 -31.5t31 -11.5z" />
    <glyph glyph-name="aringacute" unicode="&#x1fb;" horiz-adv-x="589" 
d="M175 -11q-39 0 -72 21t-52.5 64.5t-19.5 113.5q0 74 22.5 138t63.5 113t96 77t119 28q41 0 84.5 -13.5t87.5 -44.5l-53 10l25 36h64l-80 -505l-41 76l122 -37l-10 -65l-180 -6l31 183l34 61q-18 -83 -58.5 -138.5t-89 -83.5t-93.5 -28zM222 85q23 0 48.5 14.5t48.5 44
t41.5 72.5t27.5 101l23 139l19 -39q-26 19 -51 27.5t-50 8.5q-39 0 -71.5 -20.5t-56.5 -56t-37 -80.5t-13 -94q0 -61 20 -89t51 -28zM271 799l-28 58l236 128l39 -94zM337 577q-51 0 -78.5 27.5t-27.5 69.5q0 37 17 66.5t48.5 47t72.5 17.5q52 0 78.5 -27.5t26.5 -71.5
q0 -34 -16.5 -64t-47 -47.5t-73.5 -17.5zM343 634q30 0 45.5 22t15.5 48q0 20 -10 32t-31 12q-30 0 -45.5 -22t-15.5 -49q0 -20 10 -31.5t31 -11.5z" />
    <glyph glyph-name="AEacute" unicode="&#x1fc;" horiz-adv-x="916" 
d="M-36 0l10 63l89 25l-37 -26l355 568l10 -20l-91 24l11 63l207 5h397l-27 -173h-71l-3 102l18 -19h-238l23 20l-39 -250l-15 20h231l-13 -88h-234l24 23l-44 -272l-14 25h244l-21 -22l37 113h72l-29 -181h-487l10 63l89 27l-21 -22l25 158l18 -20h-238l29 20l-102 -165
l-3 27l85 -25l-10 -63h-247zM269 276l-11 17h205l-22 -17l56 350l17 -14h-56l27 13zM525 752l-29 58l234 133l39 -93z" />
    <glyph glyph-name="aeacute" unicode="&#x1fd;" horiz-adv-x="803" 
d="M358 145q-6 -34 -27 -62.5t-50 -49.5t-62 -32.5t-64 -11.5q-59 0 -97 34.5t-38 102.5q0 48 22 79.5t60 49t87 24.5t103 7h56l-16 -13q6 35 11 67t5 50q0 34 -19.5 49.5t-56.5 15.5q-31 0 -67 -7.5t-74 -16.5l58 62l-32 -124h-70l10 137q53 15 109 26t103 11q54 0 88 -22
t34 -71q0 -7 -1 -13.5l-3 -19.5l-28 8q37 52 93.5 85t129.5 33q80 0 124.5 -37t44.5 -102q0 -43 -21 -75.5t-58 -54t-84 -34t-99.5 -18t-103.5 -4.5l20 27q0 -8 -0.5 -16.5t-0.5 -17.5q0 -70 30 -102t79 -32q32 0 70 12t80 35l33 -73q-52 -30 -106 -46t-103 -16
q-94 0 -148 56.5t-54 153.5q0 12 0.5 26t2.5 27l27 -34h-49q-30 0 -59.5 -2t-54.5 -9.5t-40 -23.5t-15 -43q0 -30 17 -47t48 -17q18 0 39 9.5t40 26.5t31.5 39.5t12.5 47.5zM446 252l-18 37q31 0 65 2t66 8t58.5 18t42 31t15.5 46q0 29 -18.5 46.5t-52.5 17.5q-33 0 -60 -18
t-47.5 -48.5t-32.5 -66.5t-18 -73zM395 610l-44 61l204 155l59 -87z" />
    <glyph glyph-name="Oslashacute" unicode="&#x1fe;" horiz-adv-x="730" 
d="M660 778l59 -39l-100 -131l-12 -11l-390 -511l-2 -7l-119 -156l-59 39l133 174l10 9l376 492l4 10zM321 -11q-82 0 -140 32.5t-88.5 94.5t-30.5 152q0 63 14.5 126.5t43.5 121t74 102t105.5 70t136.5 25.5q83 0 141 -32t88 -94t30 -152q0 -62 -14 -125.5t-43 -121
t-73.5 -102.5t-105 -71t-138.5 -26zM332 85q48 0 86 22.5t66.5 60t47 84t27.5 94.5t9 91q0 63 -18 102.5t-50.5 58.5t-73.5 19q-49 0 -87.5 -22.5t-66.5 -59.5t-46.5 -83.5t-27.5 -94t-9 -91.5q0 -62 18.5 -102t50.5 -59.5t74 -19.5zM363 752l-29 58l234 133l39 -93z" />
    <glyph glyph-name="oslashacute" unicode="&#x1ff;" horiz-adv-x="583" 
d="M524 623l46 -30l-140 -185l-7 -5l-244 -325l-5 -11l-119 -156l-46 30l137 181l10 9l241 321l5 10zM339 543q58 0 103 -22t70 -69.5t25 -125.5q0 -62 -18 -122.5t-54 -109t-91.5 -77t-129.5 -28.5q-58 0 -103 22t-70.5 70t-25.5 125q0 63 18 122.5t54.5 108t91.5 77.5
t130 29zM324 456q-43 0 -73.5 -25t-49 -63.5t-27 -82t-8.5 -80.5q0 -63 22.5 -96t69.5 -33q43 0 73 25t49 64t28 82t9 80q0 64 -23 96.5t-70 32.5zM294 610l-44 61l204 155l59 -87z" />
    <glyph glyph-name="uni0200" unicode="&#x200;" horiz-adv-x="683" 
d="M594 60l-26 29l76 -26l-10 -63h-258l11 63l86 24l-7 -19l-21 140l9 -17h-265l19 16l-67 -138l-2 16l80 -22l-10 -63h-245l10 63l85 25l-34 -25l328 638l124 3zM232 260l-6 19h223l-10 -22l-55 377l29 -1zM340 742l61 29l-85 190l-83 -41zM496 742l62 27l-80 192l-84 -38z
" />
    <glyph glyph-name="uni0201" unicode="&#x201;" horiz-adv-x="589" 
d="M175 -11q-39 0 -72 21t-52.5 64.5t-19.5 113.5q0 74 22.5 138t63.5 113t96 77t119 28q41 0 84.5 -13.5t87.5 -44.5l-53 10l25 36h64l-80 -505l-41 76l122 -37l-10 -65l-180 -6l31 183l34 61q-18 -83 -58.5 -138.5t-89 -83.5t-93.5 -28zM222 85q23 0 48.5 14.5t48.5 44
t41.5 72.5t27.5 101l23 139l19 -39q-26 19 -51 27.5t-50 8.5q-39 0 -71.5 -20.5t-56.5 -56t-37 -80.5t-13 -94q0 -61 20 -89t51 -28zM264 610l61 28l-85 190l-83 -41zM420 610l62 27l-80 191l-84 -37z" />
    <glyph glyph-name="uni0202" unicode="&#x202;" horiz-adv-x="683" 
d="M594 60l-26 29l76 -26l-10 -63h-258l11 63l86 24l-7 -19l-21 140l9 -17h-265l19 16l-67 -138l-2 16l80 -22l-10 -63h-245l10 63l85 25l-34 -25l328 638l124 3zM232 260l-6 19h223l-10 -22l-55 377l29 -1zM447 914q38 0 69.5 -17.5t48 -52.5t9.5 -86h-70q2 38 -17 54.5
t-45 16.5q-31 0 -57.5 -19.5t-35.5 -53.5l-68 4q8 52 33.5 86t61 51t71.5 17z" />
    <glyph glyph-name="uni0203" unicode="&#x203;" horiz-adv-x="589" 
d="M175 -11q-39 0 -72 21t-52.5 64.5t-19.5 113.5q0 74 22.5 138t63.5 113t96 77t119 28q41 0 84.5 -13.5t87.5 -44.5l-53 10l25 36h64l-80 -505l-41 76l122 -37l-10 -65l-180 -6l31 183l34 61q-18 -83 -58.5 -138.5t-89 -83.5t-93.5 -28zM222 85q23 0 48.5 14.5t48.5 44
t41.5 72.5t27.5 101l23 139l19 -39q-26 19 -51 27.5t-50 8.5q-39 0 -71.5 -20.5t-56.5 -56t-37 -80.5t-13 -94q0 -61 20 -89t51 -28zM365 780q38 0 69.5 -17.5t48 -52.5t9.5 -86h-70q2 38 -17 54.5t-45 16.5q-31 0 -57.5 -19.5t-35.5 -53.5l-68 4q8 52 33.5 86t61 51
t71.5 17z" />
    <glyph glyph-name="uni0204" unicode="&#x204;" horiz-adv-x="599" 
d="M455 181h72l-29 -181h-495l10 63l91 24l-18 -18l89 562l14 -20l-86 23l10 63l192 5h293l-27 -173h-71l-4 101l20 -18h-243l23 19l-40 -250l-14 21h235l-14 -88h-237l23 24l-43 -272l-14 24h255l-28 -20zM298 742l61 29l-85 190l-83 -41zM454 742l62 27l-80 192l-84 -38z
" />
    <glyph glyph-name="uni0205" unicode="&#x205;" horiz-adv-x="510" 
d="M233 -11q-56 0 -101.5 22.5t-72 70.5t-26.5 125q0 64 20 124t58 108t92.5 76t123.5 28q81 0 126.5 -37t45.5 -97q0 -46 -27.5 -81.5t-74.5 -60t-105 -36.5t-120 -12h-19t-17 1l7 79q11 -1 22.5 -2t23.5 -1q35 0 69.5 6.5t62.5 19t45 31.5t17 44q0 27 -19 44t-53 17
q-38 0 -68.5 -22.5t-51 -59.5t-31.5 -80.5t-11 -86.5q0 -70 29.5 -102t80.5 -32q34 0 72.5 12t78.5 34l30 -69q-51 -31 -104 -47t-103 -16zM254 610l61 28l-85 190l-83 -41zM410 610l62 27l-80 191l-84 -37z" />
    <glyph glyph-name="uni0206" unicode="&#x206;" horiz-adv-x="599" 
d="M455 181h72l-29 -181h-495l10 63l91 24l-18 -18l89 562l14 -20l-86 23l10 63l192 5h293l-27 -173h-71l-4 101l20 -18h-243l23 19l-40 -250l-14 21h235l-14 -88h-237l23 24l-43 -272l-14 24h255l-28 -20zM406 914q38 0 69.5 -17.5t48 -52.5t9.5 -86h-70q2 38 -17 54.5
t-45 16.5q-31 0 -57.5 -19.5t-35.5 -53.5l-68 4q8 52 33.5 86t61 51t71.5 17z" />
    <glyph glyph-name="uni0207" unicode="&#x207;" horiz-adv-x="510" 
d="M233 -11q-56 0 -101.5 22.5t-72 70.5t-26.5 125q0 64 20 124t58 108t92.5 76t123.5 28q81 0 126.5 -37t45.5 -97q0 -46 -27.5 -81.5t-74.5 -60t-105 -36.5t-120 -12h-19t-17 1l7 79q11 -1 22.5 -2t23.5 -1q35 0 69.5 6.5t62.5 19t45 31.5t17 44q0 27 -19 44t-53 17
q-38 0 -68.5 -22.5t-51 -59.5t-31.5 -80.5t-11 -86.5q0 -70 29.5 -102t80.5 -32q34 0 72.5 12t78.5 34l30 -69q-51 -31 -104 -47t-103 -16zM355 780q38 0 69.5 -17.5t48 -52.5t9.5 -86h-70q2 38 -17 54.5t-45 16.5q-31 0 -57.5 -19.5t-35.5 -53.5l-68 4q8 52 33.5 86t61 51
t71.5 17z" />
    <glyph glyph-name="uni0208" unicode="&#x208;" horiz-adv-x="356" 
d="M373 639l-93 -28l16 19l-89 -561l-8 18l82 -24l-10 -63h-268l10 63l91 24l-18 -18l89 560l14 -18l-86 23l10 63l270 5zM169 742l61 29l-85 190l-83 -41zM325 742l62 27l-80 192l-84 -38z" />
    <glyph glyph-name="uni0209" unicode="&#x209;" horiz-adv-x="300" 
d="M49 -4l80 507l43 -74l-122 37l10 63l192 7l-81 -509l-40 75l120 -38l-10 -63zM128 610l61 28l-85 190l-83 -41zM284 610l62 27l-80 191l-84 -37z" />
    <glyph glyph-name="uni020A" unicode="&#x20a;" horiz-adv-x="356" 
d="M373 639l-93 -28l16 19l-89 -561l-8 18l82 -24l-10 -63h-268l10 63l91 24l-18 -18l89 560l14 -18l-86 23l10 63l270 5zM277 914q38 0 69.5 -17.5t48 -52.5t9.5 -86h-70q2 38 -17 54.5t-45 16.5q-31 0 -57.5 -19.5t-35.5 -53.5l-68 4q8 52 33.5 86t61 51t71.5 17z" />
    <glyph glyph-name="uni020B" unicode="&#x20b;" horiz-adv-x="300" 
d="M49 -4l80 507l43 -74l-122 37l10 63l192 7l-81 -509l-40 75l120 -38l-10 -63zM229 780q38 0 69.5 -17.5t48 -52.5t9.5 -86h-70q2 38 -17 54.5t-45 16.5q-31 0 -57.5 -19.5t-35.5 -53.5l-68 4q8 52 33.5 86t61 51t71.5 17z" />
    <glyph glyph-name="uni020C" unicode="&#x20c;" horiz-adv-x="720" 
d="M316 -11q-82 0 -139.5 32t-88 95t-30.5 155q0 62 14 125t43.5 120t74 101.5t105 70t136.5 25.5q83 0 141 -32t88 -94.5t30 -154.5q0 -60 -14 -123t-43 -120t-73.5 -102.5t-105 -71.5t-138.5 -26zM327 85q49 0 87 22.5t66 60t47 83.5t28 94t9 90q0 64 -18.5 104t-50.5 59
t-75 19q-48 0 -86 -22t-66 -59.5t-46.5 -83t-27.5 -93t-9 -90.5q0 -64 18 -104.5t50.5 -60t73.5 -19.5zM369 742l61 29l-85 190l-83 -41zM525 742l62 27l-80 192l-84 -38z" />
    <glyph glyph-name="uni020D" unicode="&#x20d;" horiz-adv-x="559" 
d="M327 543q59 0 104 -22t70 -69.5t25 -126.5q0 -62 -18 -122t-54 -108.5t-91 -77t-130 -28.5q-59 0 -104 22t-70 70t-25 125q0 63 18 122.5t54 108t91 77.5t130 29zM311 456q-42 0 -72 -25t-48.5 -63t-27.5 -81.5t-9 -80.5q0 -61 23 -95.5t72 -34.5q41 0 71 25t49 63.5
t28 82t9 80.5q0 61 -23 95t-72 34zM263 610l61 28l-85 190l-83 -41zM419 610l62 27l-80 191l-84 -37z" />
    <glyph glyph-name="uni020E" unicode="&#x20e;" horiz-adv-x="720" 
d="M316 -11q-82 0 -139.5 32t-88 95t-30.5 155q0 62 14 125t43.5 120t74 101.5t105 70t136.5 25.5q83 0 141 -32t88 -94.5t30 -154.5q0 -60 -14 -123t-43 -120t-73.5 -102.5t-105 -71.5t-138.5 -26zM327 85q49 0 87 22.5t66 60t47 83.5t28 94t9 90q0 64 -18.5 104t-50.5 59
t-75 19q-48 0 -86 -22t-66 -59.5t-46.5 -83t-27.5 -93t-9 -90.5q0 -64 18 -104.5t50.5 -60t73.5 -19.5zM476 914q38 0 69.5 -17.5t48 -52.5t9.5 -86h-70q2 38 -17 54.5t-45 16.5q-31 0 -57.5 -19.5t-35.5 -53.5l-68 4q8 52 33.5 86t61 51t71.5 17z" />
    <glyph glyph-name="uni020F" unicode="&#x20f;" horiz-adv-x="559" 
d="M327 543q59 0 104 -22t70 -69.5t25 -126.5q0 -62 -18 -122t-54 -108.5t-91 -77t-130 -28.5q-59 0 -104 22t-70 70t-25 125q0 63 18 122.5t54 108t91 77.5t130 29zM311 456q-42 0 -72 -25t-48.5 -63t-27.5 -81.5t-9 -80.5q0 -61 23 -95.5t72 -34.5q41 0 71 25t49 63.5
t28 82t9 80.5q0 61 -23 95t-72 34zM364 780q38 0 69.5 -17.5t48 -52.5t9.5 -86h-70q2 38 -17 54.5t-45 16.5q-31 0 -57.5 -19.5t-35.5 -53.5l-68 4q8 52 33.5 86t61 51t71.5 17z" />
    <glyph glyph-name="uni0210" unicode="&#x210;" horiz-adv-x="645" 
d="M3 0l10 63l91 24l-18 -18l90 562l13 -20l-86 23l10 63l200 5h91q204 0 204 -163q0 -65 -29.5 -114.5t-82 -79.5t-121.5 -36l-2 20q53 -1 79 -30.5t41 -73.5l53 -157l-30 23l78 -28l-10 -63h-142l-57 199q-13 45 -25.5 64.5t-31 25t-49.5 4.5l-56 -1l24 20l-40 -243l-8 18
l93 -24l-10 -63h-279zM253 352l-14 28h72q54 0 92 20t58.5 53.5t20.5 73.5q0 32 -11.5 49.5t-28.5 25t-34.5 9t-29.5 1.5h-100l19 23zM298 742l61 29l-85 190l-83 -41zM454 742l62 27l-80 192l-84 -38z" />
    <glyph glyph-name="uni0211" unicode="&#x211;" horiz-adv-x="426" 
d="M49 0l80 503l42 -74l-121 37l10 63l186 7l-37 -179l-37 -64q19 82 58.5 137.5t89 84t96.5 28.5q26 0 44 -7l-29 -168h-72v94l14 -12q-26 3 -53 -12.5t-50.5 -45.5t-41 -73.5t-26.5 -98.5l-35 -220h-118zM203 610l61 28l-85 190l-83 -41zM359 610l62 27l-80 191l-84 -37z
" />
    <glyph glyph-name="uni0212" unicode="&#x212;" horiz-adv-x="645" 
d="M3 0l10 63l91 24l-18 -18l90 562l13 -20l-86 23l10 63l200 5h91q204 0 204 -163q0 -65 -29.5 -114.5t-82 -79.5t-121.5 -36l-2 20q53 -1 79 -30.5t41 -73.5l53 -157l-30 23l78 -28l-10 -63h-142l-57 199q-13 45 -25.5 64.5t-31 25t-49.5 4.5l-56 -1l24 20l-40 -243l-8 18
l93 -24l-10 -63h-279zM253 352l-14 28h72q54 0 92 20t58.5 53.5t20.5 73.5q0 32 -11.5 49.5t-28.5 25t-34.5 9t-29.5 1.5h-100l19 23zM405 914q38 0 69.5 -17.5t48 -52.5t9.5 -86h-70q2 38 -17 54.5t-45 16.5q-31 0 -57.5 -19.5t-35.5 -53.5l-68 4q8 52 33.5 86t61 51
t71.5 17z" />
    <glyph glyph-name="uni0213" unicode="&#x213;" horiz-adv-x="426" 
d="M49 0l80 503l42 -74l-121 37l10 63l186 7l-37 -179l-37 -64q19 82 58.5 137.5t89 84t96.5 28.5q26 0 44 -7l-29 -168h-72v94l14 -12q-26 3 -53 -12.5t-50.5 -45.5t-41 -73.5t-26.5 -98.5l-35 -220h-118zM304 780q38 0 69.5 -17.5t48 -52.5t9.5 -86h-70q2 38 -17 54.5
t-45 16.5q-31 0 -57.5 -19.5t-35.5 -53.5l-68 4q8 52 33.5 86t61 51t71.5 17z" />
    <glyph glyph-name="uni0214" unicode="&#x214;" horiz-adv-x="724" 
d="M498 697l270 5l-10 -63l-93 -28l16 20l-57 -363q-15 -96 -52 -157.5t-99.5 -91.5t-153.5 -30q-115 0 -171 49t-56 148q0 18 1.5 37t5.5 40l59 368l11 -19l-84 22l10 63l266 5l-10 -63l-89 -28l16 20l-60 -376q-3 -18 -4.5 -35t-1.5 -31q0 -54 26 -79t88 -25q59 0 94 21.5
t55 64.5t29 104l57 356l13 -20l-85 23zM352 742l61 29l-85 190l-83 -41zM508 742l62 27l-80 192l-84 -38z" />
    <glyph glyph-name="uni0215" unicode="&#x215;" horiz-adv-x="612" 
d="M193 -11q-44 -1 -75 21.5t-43.5 63t-4.5 96.5l47 297l10 -23l-82 22l10 63l191 7l-54 -339q-5 -35 -1.5 -60.5t17 -39.5t36.5 -14q24 0 49 13.5t48.5 42t42 71.5t27.5 102l34 220h118l-73 -466l-15 22l89 -25l-10 -62l-181 -5l32 181l36 62q-21 -88 -62.5 -143t-90 -81
t-95.5 -26zM277 610l61 28l-85 190l-83 -41zM433 610l62 27l-80 191l-84 -37z" />
    <glyph glyph-name="uni0216" unicode="&#x216;" horiz-adv-x="724" 
d="M498 697l270 5l-10 -63l-93 -28l16 20l-57 -363q-15 -96 -52 -157.5t-99.5 -91.5t-153.5 -30q-115 0 -171 49t-56 148q0 18 1.5 37t5.5 40l59 368l11 -19l-84 22l10 63l266 5l-10 -63l-89 -28l16 20l-60 -376q-3 -18 -4.5 -35t-1.5 -31q0 -54 26 -79t88 -25q59 0 94 21.5
t55 64.5t29 104l57 356l13 -20l-85 23zM460 914q38 0 69.5 -17.5t48 -52.5t9.5 -86h-70q2 38 -17 54.5t-45 16.5q-31 0 -57.5 -19.5t-35.5 -53.5l-68 4q8 52 33.5 86t61 51t71.5 17z" />
    <glyph glyph-name="uni0217" unicode="&#x217;" horiz-adv-x="612" 
d="M193 -11q-44 -1 -75 21.5t-43.5 63t-4.5 96.5l47 297l10 -23l-82 22l10 63l191 7l-54 -339q-5 -35 -1.5 -60.5t17 -39.5t36.5 -14q24 0 49 13.5t48.5 42t42 71.5t27.5 102l34 220h118l-73 -466l-15 22l89 -25l-10 -62l-181 -5l32 181l36 62q-21 -88 -62.5 -143t-90 -81
t-95.5 -26zM378 780q38 0 69.5 -17.5t48 -52.5t9.5 -86h-70q2 38 -17 54.5t-45 16.5q-31 0 -57.5 -19.5t-35.5 -53.5l-68 4q8 52 33.5 86t61 51t71.5 17z" />
    <glyph glyph-name="uni0218" unicode="&#x218;" horiz-adv-x="585" 
d="M231 -11q-50 0 -102.5 10.5t-101.5 31.5l31 181h71l2 -123l-12 21q30 -14 62.5 -21t64.5 -7q42 0 77 12.5t57 38t22 61.5q0 37 -21.5 58t-55.5 36t-72 29t-72.5 35t-55.5 55t-21 89q0 72 36.5 119.5t97.5 72.5t133 25q49 0 100 -11t100 -33l-34 -167h-70l-1 111l15 -14
q-27 11 -56.5 17t-57.5 6q-38 0 -71 -11.5t-53 -34t-20 -55.5q0 -34 21.5 -54t55.5 -34t72.5 -28.5t72.5 -35.5t55.5 -56.5t21.5 -92.5q0 -77 -40 -128t-106 -77t-145 -26zM182 -307l-39 33q27 35 39 54.5t12 32.5q0 14 -7.5 26t-7.5 33q0 33 21 50t45 17q22 0 40 -14.5
t18 -46.5q0 -21 -11.5 -48t-38 -61t-71.5 -76z" />
    <glyph glyph-name="uni0219" unicode="&#x219;" horiz-adv-x="503" 
d="M174 -11q-40 0 -84 6.5t-85 17.5l25 155h74l-2 -101l-16 24q21 -8 44.5 -13t50.5 -5q35 0 62.5 8.5t44 25t16.5 40.5q1 25 -16.5 40.5t-44.5 26.5t-57.5 23t-57.5 29t-44 43.5t-16 68.5q1 52 30.5 89t80 56.5t114.5 19.5q39 0 82 -7.5t87 -21.5l-24 -135h-73l-4 83
l20 -18q-21 9 -43.5 13t-42.5 4q-31 0 -55 -8.5t-38 -23.5t-15 -36q0 -23 17 -38t44.5 -26.5t58 -24t58 -30t44.5 -44.5t16 -68q-1 -53 -33.5 -92t-89 -60t-128.5 -21zM116 -307l-39 33q27 35 39 54.5t12 32.5q0 14 -7.5 26t-7.5 33q0 33 21 50t45 17q22 0 40 -14.5
t18 -46.5q0 -21 -11.5 -48t-38 -61t-71.5 -76z" />
    <glyph glyph-name="uni021A" unicode="&#x21a;" horiz-adv-x="589" 
d="M108 0l9 63l104 24l-18 -18l90 563l20 -20h-165l30 24l-42 -126h-72l31 192h538l-31 -192h-71l-4 122l23 -20h-167l30 20l-89 -563l-8 18l94 -24l-10 -63h-292zM174 -307l-39 33q27 35 39 54.5t12 32.5q0 14 -7.5 26t-7.5 33q0 33 21 50t45 17q22 0 40 -14.5t18 -46.5
q0 -21 -11.5 -48t-38 -61t-71.5 -76z" />
    <glyph glyph-name="uni021B" unicode="&#x21b;" horiz-adv-x="381" 
d="M334 24q-39 -17 -75.5 -26t-67.5 -9q-54 0 -87.5 29t-33.5 91q0 10 0.5 19t2.5 20l50 319l12 -17h-94l10 66l102 21l-22 -22l22 135l120 20l-24 -155l-10 17h148l-13 -82h-150l17 17l-50 -313q-1 -4 -1.5 -10.5t-0.5 -13.5q0 -27 12 -38.5t33 -11.5q15 0 34 5.5t41 15.5z
M91 -307l-39 33q27 35 39 54.5t12 32.5q0 14 -7.5 26t-7.5 33q0 33 21 50t45 17q22 0 40 -14.5t18 -46.5q0 -21 -11.5 -48t-38 -61t-71.5 -76z" />
    <glyph glyph-name="uni022A" unicode="&#x22a;" horiz-adv-x="720" 
d="M316 -11q-82 0 -139.5 32t-88 95t-30.5 155q0 62 14 125t43.5 120t74 101.5t105 70t136.5 25.5q83 0 141 -32t88 -94.5t30 -154.5q0 -60 -14 -123t-43 -120t-73.5 -102.5t-105 -71.5t-138.5 -26zM327 85q49 0 87 22.5t66 60t47 83.5t28 94t9 90q0 64 -18.5 104t-50.5 59
t-75 19q-48 0 -86 -22t-66 -59.5t-46.5 -83t-27.5 -93t-9 -90.5q0 -64 18 -104.5t50.5 -60t73.5 -19.5zM356 751q-26 0 -40.5 17t-14.5 45q0 32 18.5 52.5t47.5 20.5q26 0 41 -16.5t15 -45.5q0 -32 -19 -52.5t-48 -20.5zM560 751q-26 0 -41 17t-15 45q0 32 18.5 52.5
t48.5 20.5q26 0 41 -16.5t15 -45.5q0 -32 -19 -52.5t-48 -20.5zM632 1013l-14 -86h-278l13 86h279z" />
    <glyph glyph-name="uni022B" unicode="&#x22b;" horiz-adv-x="559" 
d="M327 543q59 0 104 -22t70 -69.5t25 -126.5q0 -62 -18 -122t-54 -108.5t-91 -77t-130 -28.5q-59 0 -104 22t-70 70t-25 125q0 63 18 122.5t54 108t91 77.5t130 29zM311 456q-42 0 -72 -25t-48.5 -63t-27.5 -81.5t-9 -80.5q0 -61 23 -95.5t72 -34.5q41 0 71 25t49 63.5
t28 82t9 80.5q0 61 -23 95t-72 34zM518 863l-14 -86h-278l13 86h279zM237 598q-26 0 -40.5 17t-14.5 45q0 32 18.5 52.5t47.5 20.5q26 0 41 -16.5t15 -45.5q0 -32 -19 -52.5t-48 -20.5zM441 598q-26 0 -41 17t-15 45q0 32 18.5 52.5t48.5 20.5q26 0 41 -16.5t15 -45.5
q0 -32 -19 -52.5t-48 -20.5z" />
    <glyph glyph-name="uni022C" unicode="&#x22c;" horiz-adv-x="720" 
d="M316 -11q-82 0 -139.5 32t-88 95t-30.5 155q0 62 14 125t43.5 120t74 101.5t105 70t136.5 25.5q83 0 141 -32t88 -94.5t30 -154.5q0 -60 -14 -123t-43 -120t-73.5 -102.5t-105 -71.5t-138.5 -26zM327 85q49 0 87 22.5t66 60t47 83.5t28 94t9 90q0 64 -18.5 104t-50.5 59
t-75 19q-48 0 -86 -22t-66 -59.5t-46.5 -83t-27.5 -93t-9 -90.5q0 -64 18 -104.5t50.5 -60t73.5 -19.5zM631 997l-14 -86h-278l13 86h279zM329 740l-46 29q27 54 54.5 77.5t58.5 23.5q27 0 50 -11t43.5 -21.5t39.5 -10.5q32 0 65 46l47 -29q-27 -54 -57 -77.5t-62 -23.5
q-25 0 -46.5 10.5t-41.5 21t-42 10.5q-16 0 -30.5 -10.5t-32.5 -34.5z" />
    <glyph glyph-name="uni022D" unicode="&#x22d;" horiz-adv-x="559" 
d="M327 543q59 0 104 -22t70 -69.5t25 -126.5q0 -62 -18 -122t-54 -108.5t-91 -77t-130 -28.5q-59 0 -104 22t-70 70t-25 125q0 63 18 122.5t54 108t91 77.5t130 29zM311 456q-42 0 -72 -25t-48.5 -63t-27.5 -81.5t-9 -80.5q0 -61 23 -95.5t72 -34.5q41 0 71 25t49 63.5
t28 82t9 80.5q0 61 -23 95t-72 34zM213 594l-46 29q27 54 54.5 77.5t58.5 23.5q27 0 50 -11t43.5 -21.5t39.5 -10.5q32 0 65 46l47 -29q-27 -54 -57 -77.5t-62 -23.5q-25 0 -46.5 10.5t-41.5 21t-42 10.5q-16 0 -30.5 -10.5t-32.5 -34.5zM517 861l-14 -86h-278l13 86h279z
" />
    <glyph glyph-name="uni0230" unicode="&#x230;" horiz-adv-x="720" 
d="M316 -11q-82 0 -139.5 32t-88 95t-30.5 155q0 62 14 125t43.5 120t74 101.5t105 70t136.5 25.5q83 0 141 -32t88 -94.5t30 -154.5q0 -60 -14 -123t-43 -120t-73.5 -102.5t-105 -71.5t-138.5 -26zM327 85q49 0 87 22.5t66 60t47 83.5t28 94t9 90q0 64 -18.5 104t-50.5 59
t-75 19q-48 0 -86 -22t-66 -59.5t-46.5 -83t-27.5 -93t-9 -90.5q0 -64 18 -104.5t50.5 -60t73.5 -19.5zM458 745q-30 0 -47 18t-17 48q0 36 22.5 59t57.5 23q29 0 46.5 -17.5t17.5 -48.5q0 -35 -22 -58.5t-58 -23.5zM634 1013l-14 -86h-278l13 86h279z" />
    <glyph glyph-name="uni0231" unicode="&#x231;" horiz-adv-x="559" 
d="M327 543q59 0 104 -22t70 -69.5t25 -126.5q0 -62 -18 -122t-54 -108.5t-91 -77t-130 -28.5q-59 0 -104 22t-70 70t-25 125q0 63 18 122.5t54 108t91 77.5t130 29zM311 456q-42 0 -72 -25t-48.5 -63t-27.5 -81.5t-9 -80.5q0 -61 23 -95.5t72 -34.5q41 0 71 25t49 63.5
t28 82t9 80.5q0 61 -23 95t-72 34zM522 870l-14 -86h-278l13 86h279zM340 595q-30 0 -47 18t-17 48q0 36 22.5 59t57.5 23q29 0 46.5 -17.5t17.5 -48.5q0 -35 -22 -58.5t-58 -23.5z" />
    <glyph glyph-name="uni0232" unicode="&#x232;" horiz-adv-x="632" 
d="M140 0l9 63l94 24l-17 -18l33 206l7 -44l-144 401l18 -18l-76 20l10 63l262 5l-10 -63l-95 -23l10 22l105 -322h-25l204 317l8 -22l-88 23l10 63l240 5l-9 -63l-79 -21l25 17l-270 -404l16 44l-32 -206l-8 18l85 -24l-10 -63h-273zM560 872l-14 -86h-278l13 86h279z" />
    <glyph glyph-name="uni0233" unicode="&#x233;" horiz-adv-x="530" 
d="M-55 -235l15 87q13 -1 24 -2t21 -1q45 0 76.5 19t58.5 58t56 99l-6 -42l-116 480l10 -11l-57 13l10 63l147 8l85 -459l-31 6l176 381l5 -12l-62 13l9 63l209 8l-9 -63l-61 -18l19 11l-229 -465q-13 -28 -30.5 -60.5t-41 -64.5t-54 -58.5t-71 -42.5t-91.5 -16q-30 0 -62 6
zM456 750l-14 -86h-278l13 86h279z" />
    <glyph glyph-name="uni0237" unicode="&#x237;" horiz-adv-x="286" 
d="M-121 -235l19 84q9 -1 17.5 -2t16.5 -1q53 0 77.5 27.5t33.5 83.5l79 503l10 -16l-81 22l10 63l191 7l-87 -552q-13 -84 -44.5 -133.5t-77 -70.5t-101.5 -21q-18 0 -32.5 2t-30.5 4z" />
    <glyph glyph-name="uni0259" unicode="&#x259;" horiz-adv-x="510" 
d="M277 543q58 0 103.5 -23.5t71.5 -72t26 -123.5q0 -64 -20 -124t-58 -107.5t-93 -75.5t-124 -28q-81 0 -126.5 37t-45.5 97q0 47 27.5 83.5t74 61t104 37.5t116.5 13q14 0 23.5 -0.5t16.5 -1.5l-8 -72q-8 2 -18.5 2h-20.5q-34 0 -69 -7.5t-64 -22t-47 -35t-18 -46.5
t19 -43.5t53 -17.5q37 0 67 23t50.5 59.5t31 80t10.5 84.5q0 70 -30 102t-79 32q-31 0 -69.5 -12t-80.5 -35l-33 73q54 31 108 46.5t102 15.5z" />
    <glyph glyph-name="uni02BB" unicode="&#x2bb;" horiz-adv-x="173" 
d="M224 681q0 -32 -20 -51t-46 -19q-23 0 -41 16t-18 48q0 24 14 58t44.5 76t78.5 89l39 -33q-36 -50 -50.5 -78t-14.5 -44q0 -14 7 -27t7 -35z" />
    <glyph glyph-name="uni02BC" unicode="&#x2bc;" horiz-adv-x="205" 
d="M120 717q0 33 20 52t46 19q22 0 40.5 -16t18.5 -49q0 -24 -14.5 -58t-44.5 -75.5t-78 -89.5l-39 34q36 50 50.5 78t14.5 43q0 14 -7 27.5t-7 34.5z" />
    <glyph glyph-name="uni02BE" unicode="&#x2be;" horiz-adv-x="243" 
d="M117 607l7 57q30 0 45.5 22t15.5 48q0 21 -10 32.5t-32 11.5l8 58q51 0 78 -27.5t27 -71.5q0 -35 -17 -65t-47.5 -47.5t-74.5 -17.5z" />
    <glyph glyph-name="uni02BF" unicode="&#x2bf;" horiz-adv-x="244" 
d="M239 607q-53 0 -80 27.5t-27 70.5q0 36 17.5 65.5t48.5 47.5t74 18l-8 -58q-30 0 -45.5 -22t-15.5 -49q0 -20 10.5 -31.5t32.5 -11.5z" />
    <glyph glyph-name="circumflex" unicode="&#x2c6;" horiz-adv-x="468" 
d="M160 622l-33 46l153 138l68 7l121 -145l-46 -46l-155 127l80 -1z" />
    <glyph glyph-name="caron" unicode="&#x2c7;" horiz-adv-x="468" 
d="M450 812l34 -46l-154 -138l-68 -6l-121 144l46 46l156 -127l-80 1z" />
    <glyph glyph-name="uni02C8" unicode="&#x2c8;" horiz-adv-x="223" 
d="M121 610l39 248h91l-39 -248h-91z" />
    <glyph glyph-name="uni02C9" unicode="&#x2c9;" horiz-adv-x="399" 
d="M416 750l-14 -86h-278l13 86h279z" />
    <glyph glyph-name="uni02CA" unicode="&#x2ca;" horiz-adv-x="337" 
d="M156 610l-44 61l204 155l59 -87z" />
    <glyph glyph-name="uni02CB" unicode="&#x2cb;" horiz-adv-x="351" 
d="M169 829l194 -160l-43 -60l-212 132z" />
    <glyph glyph-name="uni02CC" unicode="&#x2cc;" horiz-adv-x="225" 
d="M-22 -303l39 248h91l-39 -248h-91z" />
    <glyph glyph-name="breve" unicode="&#x2d8;" horiz-adv-x="414" 
d="M271 626q-38 0 -70 17.5t-48.5 52.5t-9.5 86h70q-2 -38 17 -54.5t45 -16.5q31 0 57.5 19.5t35.5 53.5l68 -4q-7 -52 -33 -86t-61 -51t-71 -17z" />
    <glyph glyph-name="dotaccent" unicode="&#x2d9;" horiz-adv-x="203" 
d="M161 623q-30 0 -47 18t-17 48q0 36 22.5 59t57.5 23q29 0 46.5 -17.5t17.5 -48.5q0 -35 -22 -58.5t-58 -23.5z" />
    <glyph glyph-name="ring" unicode="&#x2da;" horiz-adv-x="362" 
d="M238 609q-52 0 -79 28t-27 70q0 36 17 66t48 47.5t73 17.5q51 0 78 -27.5t27 -71.5q0 -34 -17 -64t-47 -48t-73 -18zM243 667q30 0 45.5 22t15.5 48q0 20 -10 32t-31 12q-29 0 -45 -22t-16 -49q0 -20 10 -31.5t31 -11.5z" />
    <glyph glyph-name="ogonek" unicode="&#x2db;" horiz-adv-x="292" 
d="M92 -223q-53 0 -80.5 24.5t-27.5 59.5q0 33 24.5 70t73 68t123.5 45l14 -44q-45 -8 -77.5 -24.5t-49 -36.5t-16.5 -40t17 -31.5t47 -11.5q10 0 21.5 1.5t23.5 4.5l-4 -70q-25 -7 -47.5 -11t-41.5 -4z" />
    <glyph glyph-name="tilde" unicode="&#x2dc;" horiz-adv-x="475" 
d="M366 643q-26 0 -46.5 12.5t-39 24.5t-40.5 12q-19 0 -36 -11.5t-34 -36.5l-46 27q27 56 58.5 83.5t65.5 27.5q27 0 47 -12.5t39 -24.5t40 -12q19 0 35.5 12t34.5 36l45 -25q-27 -57 -57.5 -85t-65.5 -28z" />
    <glyph glyph-name="hungarumlaut" unicode="&#x2dd;" horiz-adv-x="423" 
d="M335 610l-61 28l86 190l82 -41zM180 610l-62 27l79 191l84 -37z" />
    <glyph glyph-name="gravecomb" unicode="&#x300;" 
d="M190 829l194 -160l-43 -60l-212 132z" />
    <glyph glyph-name="acutecomb" unicode="&#x301;" 
d="M136 610l-44 61l204 155l59 -87z" />
    <glyph glyph-name="uni0302" unicode="&#x302;" 
d="M160 621l-33 46l153 138l68 7l121 -145l-46 -46l-155 127l80 -1z" />
    <glyph glyph-name="tildecomb" unicode="&#x303;" 
d="M366 643q-26 0 -46.5 12.5t-39 24.5t-40.5 12q-19 0 -36 -11.5t-34 -36.5l-46 27q27 56 58.5 83.5t65.5 27.5q27 0 47 -12.5t39 -24.5t40 -12q19 0 35.5 12t34.5 36l45 -25q-27 -57 -57.5 -85t-65.5 -28z" />
    <glyph glyph-name="uni0304" unicode="&#x304;" 
d="M416 750l-14 -86h-278l13 86h279z" />
    <glyph glyph-name="uni0306" unicode="&#x306;" 
d="M271 626q-38 0 -70 17.5t-48.5 52.5t-9.5 86h70q-2 -38 17 -54.5t45 -16.5q31 0 57.5 19.5t35.5 53.5l68 -4q-7 -52 -33 -86t-61 -51t-71 -17z" />
    <glyph glyph-name="uni0307" unicode="&#x307;" 
d="M161 623q-30 0 -47 18t-17 48q0 36 22.5 59t57.5 23q29 0 46.5 -17.5t17.5 -48.5q0 -35 -22 -58.5t-58 -23.5z" />
    <glyph glyph-name="uni0308" unicode="&#x308;" 
d="M184 630q-26 0 -40.5 17t-14.5 45q0 32 18.5 52.5t47.5 20.5q26 0 41 -16.5t15 -45.5q0 -32 -19 -52.5t-48 -20.5zM388 630q-26 0 -41 17t-15 45q0 32 18.5 52.5t48.5 20.5q26 0 41 -16.5t15 -45.5q0 -32 -19 -52.5t-48 -20.5z" />
    <glyph glyph-name="hookabovecomb" unicode="&#x309;" 
d="M160 601l13 82q39 3 59.5 15.5t20.5 32.5q0 16 -11.5 22t-30.5 6q-26 0 -52 -8l-13 56q24 8 47.5 12.5t43.5 4.5q45 0 74 -20t29 -63q0 -36 -24 -61.5t-73 -33.5l-7 -45h-76z" />
    <glyph glyph-name="uni030A" unicode="&#x30a;" 
d="M238 609q-52 0 -79 28t-27 70q0 36 17 66t48 47.5t73 17.5q51 0 78 -27.5t27 -71.5q0 -34 -17 -64t-47 -48t-73 -18zM243 667q30 0 45.5 22t15.5 48q0 20 -10 32t-31 12q-29 0 -45 -22t-16 -49q0 -20 10 -31.5t31 -11.5z" />
    <glyph glyph-name="uni030B" unicode="&#x30b;" 
d="M326 610l-61 28l86 190l82 -41zM171 610l-62 27l79 191l84 -37z" />
    <glyph glyph-name="uni030C" unicode="&#x30c;" 
d="M450 812l34 -46l-154 -138l-68 -6l-121 144l46 46l156 -127l-80 1z" />
    <glyph glyph-name="uni030F" unicode="&#x30f;" 
d="M243 610l61 28l-85 190l-83 -41zM399 610l62 27l-80 191l-84 -37z" />
    <glyph glyph-name="uni0311" unicode="&#x311;" 
d="M274 780q38 0 69.5 -17.5t48 -52.5t9.5 -86h-70q2 38 -17 54.5t-45 16.5q-31 0 -57.5 -19.5t-35.5 -53.5l-68 4q8 52 33.5 86t61 51t71.5 17z" />
    <glyph glyph-name="uni0312" unicode="&#x312;" 
d="M246 868l39 -33q-26 -35 -38 -54.5t-12 -33.5q0 -13 7 -25t7 -33q0 -33 -21 -50t-45 -17q-22 0 -40 14.5t-18 45.5q0 22 12 49t38.5 61t70.5 76z" />
    <glyph glyph-name="uni031B" unicode="&#x31b;" 
d="M55 474v58q42 1 58.5 23t16.5 57q0 12 -1.5 24.5t-4.5 25.5l86 16q12 -40 12 -72q0 -64 -43.5 -99t-123.5 -33z" />
    <glyph glyph-name="dotbelowcomb" unicode="&#x323;" 
d="M61 -208q-30 0 -47 18t-17 48q0 36 22.5 59t57.5 23q29 0 46.5 -17.5t17.5 -48.5q0 -35 -22 -58.5t-58 -23.5z" />
    <glyph glyph-name="uni0324" unicode="&#x324;" 
d="M58 -196q-26 0 -40.5 17t-14.5 45q0 32 18.5 52.5t47.5 20.5q26 0 41 -16.5t15 -45.5q0 -32 -19 -52.5t-48 -20.5zM262 -196q-26 0 -41 17t-15 45q0 32 18.5 52.5t48.5 20.5q26 0 41 -16.5t15 -45.5q0 -32 -19 -52.5t-48 -20.5z" />
    <glyph glyph-name="uni0326" unicode="&#x326;" 
d="M13 -307l-39 33q27 35 39 54.5t12 32.5q0 14 -7.5 26t-7.5 33q0 33 21 50t45 17q22 0 40 -14.5t18 -46.5q0 -21 -11.5 -48t-38 -61t-71.5 -76z" />
    <glyph glyph-name="uni0327" unicode="&#x327;" 
d="M82 -248q-24 0 -49.5 6t-49.5 18l30 59q36 -16 73 -16q23 0 39.5 9.5t16.5 27.5q0 21 -25.5 30t-64.5 10l22 104h69l-8 -52q49 -5 71 -26t22 -55q0 -35 -20 -61t-53 -40t-73 -14z" />
    <glyph glyph-name="uni0328" unicode="&#x328;" 
d="M92 -223q-53 0 -80.5 24.5t-27.5 59.5q0 33 24.5 70t73 68t123.5 45l14 -44q-45 -8 -77.5 -24.5t-49 -36.5t-16.5 -40t17 -31.5t47 -11.5q10 0 21.5 1.5t23.5 4.5l-4 -70q-25 -7 -47.5 -11t-41.5 -4z" />
    <glyph glyph-name="uni032E" unicode="&#x32e;" 
d="M136 -228q-38 0 -70 17.5t-48.5 52.5t-9.5 86h70q-2 -38 17 -54.5t45 -16.5q31 0 57.5 19.5t35.5 53.5l68 -4q-7 -52 -33 -86t-61 -51t-71 -17z" />
    <glyph glyph-name="uni0331" unicode="&#x331;" 
d="M283 -91l-14 -86h-278l13 86h279z" />
    <glyph glyph-name="uni0335" unicode="&#x335;" 
d="M50 263l11 71h361l-11 -71h-361z" />
    <glyph glyph-name="Gamma" unicode="&#x393;" horiz-adv-x="549" 
d="M3 0l10 63l89 23l-16 -17l90 561l14 -19l-87 23l10 63l192 5h286l-31 -196h-70l-3 120l22 -14h-236l23 19l-89 -562l-14 18l103 -24l-9 -63h-284z" />
    <glyph glyph-name="uni0394" unicode="&#x394;" horiz-adv-x="656" 
d="M439 704l141 -624l-12 -80h-587l12 81l341 623h105zM519 88l-48 -49l-130 589h50l-316 -589l-29 49h473z" />
    <glyph glyph-name="Pi" unicode="&#x3a0;" horiz-adv-x="768" 
d="M606 -11q-64 0 -93 41.5t-16 123.5l76 479l16 -21l-318 -1l24 20l-89 -562l-8 18l82 -24l-9 -63h-269l10 63l92 24l-18 -18l89 560l15 -19l-88 24l10 63l193 5h475l-10 -63l-93 -27l16 18l-72 -457q-8 -47 -0.5 -69.5t38.5 -22.5q17 0 40 7l5 -81q-27 -9 -52 -13.5
t-46 -4.5z" />
    <glyph glyph-name="uni03A9" unicode="&#x3a9;" horiz-adv-x="763" 
d="M20 0l14 88h187l-20 -17q-67 40 -98 104t-31 137q0 71 26.5 142t76.5 130t118 94t151 35q87 0 144.5 -38t86.5 -100.5t29 -135.5q0 -54 -15 -108.5t-45 -104.5t-74 -91t-102 -67l-7 20h190l-14 -88h-266l9 71q43 24 79 66t62 93.5t40.5 107t14.5 105.5q0 48 -15 87.5
t-46.5 63t-81.5 23.5q-55 0 -99 -29.5t-74.5 -78t-47 -107t-16.5 -117.5q0 -46 10.5 -87.5t32.5 -76t56 -56.5l-8 -65h-267z" />
    <glyph glyph-name="uni03BC" unicode="&#x3bc;" horiz-adv-x="682" 
d="M163 -234l-117 4l110 692l11 -18l-82 22l10 63l191 7l-54 -339q-6 -35 -2 -60.5t17.5 -39.5t36.5 -14t48.5 13.5t49 42t41.5 71.5t27 102l35 220h118l-74 -467l-15 23l90 -25l-10 -63l-181 -5l31 182l37 62q-21 -88 -59.5 -143t-83 -81t-85.5 -26q-44 -1 -72.5 26.5
t-35.5 82.5l21 -37q2 -34 5.5 -76.5t3 -96.5t-11.5 -122z" />
    <glyph glyph-name="pi" unicode="&#x3c0;" horiz-adv-x="621" 
d="M49 0l73 481l24 -46l-92 31l10 63l181 3h367l-10 -63l-96 -30l29 44l-47 -310q-8 -47 0.5 -69.5t40.5 -22.5q8 0 17.5 2t19.5 5l5 -81q-26 -8 -50.5 -13t-45.5 -5q-61 0 -90.5 42t-16.5 127l49 316l26 -32h-241l37 32l-73 -474h-117z" />
    <glyph glyph-name="uni0400" unicode="&#x400;" horiz-adv-x="599" 
d="M455 181h72l-29 -181h-495l10 63l91 24l-18 -18l89 562l14 -20l-86 23l10 63l192 5h293l-27 -173h-71l-4 101l20 -18h-243l23 19l-40 -250l-14 21h235l-14 -88h-237l23 24l-43 -272l-14 24h255l-28 -20zM478 752l-237 98l48 91l222 -129z" />
    <glyph glyph-name="uni0401" unicode="&#x401;" horiz-adv-x="599" 
d="M455 181h72l-29 -181h-495l10 63l91 24l-18 -18l89 562l14 -20l-86 23l10 63l192 5h293l-27 -173h-71l-4 101l20 -18h-243l23 19l-40 -250l-14 21h235l-14 -88h-237l23 24l-43 -272l-14 24h255l-28 -20zM289 763q-26 0 -40.5 17t-14.5 45q0 32 18.5 52.5t47.5 20.5
q26 0 41 -16.5t15 -45.5q0 -32 -19 -52.5t-48 -20.5zM493 763q-26 0 -41 17t-15 45q0 32 18.5 52.5t48.5 20.5q26 0 41 -16.5t15 -45.5q0 -32 -19 -52.5t-48 -20.5z" />
    <glyph glyph-name="uni0402" unicode="&#x402;" horiz-adv-x="748" 
d="M466 -10q-13 0 -25 1.5t-30 3.5l20 85q7 0 13 -0.5t13 -0.5q32 0 55 12.5t38 34t22 48.5t7 55q0 56 -25 77t-69 21q-34 0 -72.5 -9t-72.5 -23l23 26l-50 -321h-202l10 63l108 26l-26 -32l89 575l22 -20h-165l30 24l-43 -129h-72l31 195h547l-31 -195h-71l-4 125l27 -20
h-179l28 20l-41 -262l-21 14q45 16 91 25t87 9q51 0 90 -16.5t61 -54t22 -102.5q0 -50 -14.5 -96t-43.5 -81.5t-73 -56.5t-104 -21z" />
    <glyph glyph-name="uni0403" unicode="&#x403;" horiz-adv-x="549" 
d="M3 0l10 63l89 23l-16 -17l90 561l14 -19l-87 23l10 63l192 5h286l-31 -196h-70l-3 120l22 -14h-236l23 19l-89 -562l-14 18l103 -24l-9 -63h-284zM291 752l-29 58l234 133l39 -93z" />
    <glyph glyph-name="uni0404" unicode="&#x404;" horiz-adv-x="635" 
d="M181 317l13 85h284l-13 -85h-284zM307 -11q-71 0 -126.5 31t-87.5 95t-32 161q0 86 25.5 165t74.5 140t117.5 96.5t154.5 35.5q51 0 103 -13t106 -39l-34 -170h-71l-3 117l21 -19q-32 14 -64.5 21t-60.5 7q-59 0 -104.5 -29.5t-76 -78.5t-46 -108.5t-15.5 -118.5
q0 -100 40 -146.5t107 -46.5q44 0 92 19t99 55l40 -76q-66 -50 -131.5 -74t-127.5 -24z" />
    <glyph glyph-name="uni0405" unicode="&#x405;" horiz-adv-x="585" 
d="M231 -11q-50 0 -102.5 10.5t-101.5 31.5l31 181h71l2 -123l-12 21q30 -14 62.5 -21t64.5 -7q42 0 77 12.5t57 38t22 61.5q0 37 -21.5 58t-55.5 36t-72 29t-72.5 35t-55.5 55t-21 89q0 72 36.5 119.5t97.5 72.5t133 25q49 0 100 -11t100 -33l-34 -167h-70l-1 111l15 -14
q-27 11 -56.5 17t-57.5 6q-38 0 -71 -11.5t-53 -34t-20 -55.5q0 -34 21.5 -54t55.5 -34t72.5 -28.5t72.5 -35.5t55.5 -56.5t21.5 -92.5q0 -77 -40 -128t-106 -77t-145 -26z" />
    <glyph glyph-name="uni0406" unicode="&#x406;" horiz-adv-x="356" 
d="M373 639l-93 -28l16 19l-89 -561l-8 18l82 -24l-10 -63h-268l10 63l91 24l-18 -18l89 560l14 -18l-86 23l10 63l270 5z" />
    <glyph glyph-name="uni0407" unicode="&#x407;" horiz-adv-x="356" 
d="M373 639l-93 -28l16 19l-89 -561l-8 18l82 -24l-10 -63h-268l10 63l91 24l-18 -18l89 560l14 -18l-86 23l10 63l270 5zM160 763q-26 0 -40.5 17t-14.5 45q0 32 18.5 52.5t47.5 20.5q26 0 41 -16.5t15 -45.5q0 -32 -19 -52.5t-48 -20.5zM364 763q-26 0 -41 17t-15 45
q0 32 18.5 52.5t48.5 20.5q26 0 41 -16.5t15 -45.5q0 -32 -19 -52.5t-48 -20.5z" />
    <glyph glyph-name="uni0408" unicode="&#x408;" horiz-adv-x="338" 
d="M102 697l273 5l-10 -63l-92 -28l16 20l-90 -566q-8 -48 -23.5 -89t-42 -71.5t-65.5 -47t-93 -16.5q-32 0 -66 6l20 89q8 -1 16.5 -2t17.5 -1q35 0 56 11t32 27.5t16 35t7 32.5l94 592l14 -20l-90 23z" />
    <glyph glyph-name="uni0409" unicode="&#x409;" horiz-adv-x="953" 
d="M47 -12q-35 0 -77 13l31 113q9 -2 18 -3.5t18 -1.5q37 0 65.5 24.5t50.5 66.5t38.5 96t29 113t23 117.5t19.5 108.5l16 -25l-89 24l10 63l164 5h368l-10 -63l-97 -29l21 27l-38 -235l-18 22h118q206 0 206 -168q0 -84 -36 -141t-102 -86t-158 -29h-266l10 63l90 24
l-17 -18l90 563l19 -20l-213 -1l27 20q-15 -74 -29.5 -151t-31.5 -149t-39 -134t-51.5 -109t-68.5 -73.5t-91 -26.5zM555 66l-22 24h100q76 0 116 42t40 112q0 49 -26.5 72.5t-81.5 23.5h-104l24 20z" />
    <glyph glyph-name="uni040A" unicode="&#x40a;" horiz-adv-x="996" 
d="M1 0l10 63l92 24l-18 -18l90 562l13 -20l-86 23l10 63l269 5l-10 -63l-92 -28l16 20l-38 -240l-15 21h310l-22 -22l38 241l13 -20l-86 23l10 63l270 5l-9 -63l-94 -28l18 26l-39 -245l-19 20h120q102 0 154 -40t52 -120q0 -83 -36 -139t-102 -84.5t-158 -28.5h-267l10 63
l91 24l-17 -18l42 266l15 -11h-310l21 12l-42 -267l-7 18l82 -24l-10 -63h-269zM599 66l-22 24h100q76 0 116 41t40 106q0 46 -27.5 66.5t-80.5 20.5h-106l25 25z" />
    <glyph glyph-name="uni040B" unicode="&#x40b;" horiz-adv-x="797" 
d="M109 0l10 63l112 26l-26 -22l89 565l21 -20h-166l29 24l-42 -126h-72l31 192h541l-31 -192h-71l-4 122l24 -20h-169l29 20l-41 -263l-20 16q53 16 100 24.5t83 8.5q95 0 137 -52t27 -143l-24 -157l-19 26l90 -29l-9 -63h-265l9 63l94 29l-21 -27l23 144q6 34 1.5 60.5
t-24 41.5t-61.5 15q-29 0 -67 -7.5t-84 -20.5l21 24l-39 -255l-17 22l95 -26l-10 -63h-284z" />
    <glyph glyph-name="uni040C" unicode="&#x40c;" horiz-adv-x="695" 
d="M589 62l-29 25l86 -24l-10 -63h-154l-160 338l28 -24h-122l22 26l-43 -271l-10 19l82 -25l-10 -63h-266l10 63l92 24l-19 -18l90 562l13 -20l-86 23l10 63l267 5l-10 -62l-92 -28l20 28l-41 -257l-14 21h129l-37 -20l189 251l11 -19l-80 18l9 63l252 5l-9 -63l-92 -26
l31 21l-220 -286l-1 34zM332 752l-29 58l234 133l39 -93z" />
    <glyph glyph-name="uni040D" unicode="&#x40d;" horiz-adv-x="770" 
d="M0 0l10 63l94 24l-18 -24l90 568l13 -20l-87 23l10 63l271 5l-10 -63l-93 -28l16 20l-83 -523l-20 36l419 555l185 3l-10 -63l-92 -28l17 26l-91 -568l-8 18l83 -24l-10 -63h-269l10 63l92 24l-18 -18l79 506l42 2l-434 -577h-188zM567 752l-237 98l48 91l222 -129z" />
    <glyph glyph-name="uni040E" unicode="&#x40e;" horiz-adv-x="668" 
d="M64 3l35 97q23 -9 41 -13t34 -4q38 0 67.5 25.5t58.5 72.5l-20 -51l-154 503l24 -22l-82 23l10 63l273 5l-9 -63l-103 -26l19 31l98 -389l-17 -7l212 389l6 -25l-88 22l10 63l250 5l-10 -63l-90 -25l32 22l-261 -462q-32 -56 -67.5 -99.5t-76 -68t-90.5 -24.5
q-23 0 -48.5 5.5t-53.5 15.5zM424 764q-49 0 -86.5 17t-57.5 51t-17 86l103 -2q-3 -47 16 -67t54 -20q38 0 61.5 21.5t29.5 67.5l89 -2q-7 -52 -35 -86t-68.5 -50t-88.5 -16z" />
    <glyph glyph-name="uni040F" unicode="&#x40f;" horiz-adv-x="750" 
d="M268 -187l12 201l14 -14h-293l10 63l96 25l-21 -25l89 573l17 -26l-90 24l9 63l270 5l-10 -63l-98 -29l22 27l-89 -577l-12 30h315l-29 -30l89 576l16 -26l-89 24l10 63l270 5l-10 -63l-97 -29l21 27l-90 -580l-11 31l85 -25l-10 -63h-293l19 15l-51 -202h-71z" />
    <glyph glyph-name="uni0410" unicode="&#x410;" horiz-adv-x="683" 
d="M594 60l-26 29l76 -26l-10 -63h-258l11 63l86 24l-7 -19l-21 140l9 -17h-265l19 16l-67 -138l-2 16l80 -22l-10 -63h-245l10 63l85 25l-34 -25l328 638l124 3zM232 260l-6 19h223l-10 -22l-55 377l29 -1z" />
    <glyph glyph-name="uni0411" unicode="&#x411;" horiz-adv-x="617" 
d="M2 0l10 63l91 24l-18 -18l90 561l13 -19l-85 23l10 63l189 5h283l-30 -191h-71l-3 115l22 -14h-233l25 21l-37 -235l-19 22h116q105 0 157 -43.5t52 -125.5q0 -80 -37 -136t-103.5 -85.5t-155.5 -29.5h-266zM205 66l-21 24h101q74 0 114 41.5t40 111.5q0 50 -28.5 71
t-80.5 21h-104l25 21z" />
    <glyph glyph-name="uni0412" unicode="&#x412;" horiz-adv-x="635" 
d="M374 348l5 17q98 0 146.5 -35t48.5 -111q0 -67 -35 -116.5t-99 -76t-151 -26.5h-286l10 63l91 24l-18 -18l89 562l14 -20l-86 23l10 63l189 5h101q26 0 53.5 -3.5t53.5 -12.5t46.5 -25.5t32 -43.5t11.5 -64q0 -61 -28.5 -105t-80 -69.5t-117.5 -30.5zM371 614h-99l24 20
l-40 -255l-15 22h73q30 0 59 6.5t52.5 21t38 39t14.5 59.5q0 34 -13 52.5t-36.5 26.5t-57.5 8zM287 89q78 0 119.5 36.5t41.5 96.5q0 35 -13.5 54.5t-37 28.5t-52.5 9h-119l24 27l-44 -275l-23 23h104z" />
    <glyph glyph-name="uni0413" unicode="&#x413;" horiz-adv-x="549" 
d="M3 0l10 63l89 23l-16 -17l90 561l14 -19l-87 23l10 63l192 5h286l-31 -196h-70l-3 120l22 -14h-236l23 19l-89 -562l-14 18l103 -24l-9 -63h-284z" />
    <glyph glyph-name="uni0414" unicode="&#x414;" horiz-adv-x="693" 
d="M107 58q34 23 60.5 56.5t48 81t40 110.5t34.5 144.5t33 185.5l-21 -25l204 1l-14 29l-90 -582l28 31h-317zM30 72l37 18l-88 -5l-43 -272h71l72 198l-14 -11h451l-12 11l11 -198h71l40 272l-119 5l14 -31l90 578l-21 -27l97 29l9 63h-366l-166 -5l-10 -63l94 -24l-18 21
q-18 -108 -33.5 -187t-32.5 -136.5t-36.5 -99t-43 -74t-54.5 -62.5z" />
    <glyph glyph-name="uni0415" unicode="&#x415;" horiz-adv-x="599" 
d="M455 181h72l-29 -181h-495l10 63l91 24l-18 -18l89 562l14 -20l-86 23l10 63l192 5h293l-27 -173h-71l-4 101l20 -18h-243l23 19l-40 -250l-14 21h235l-14 -88h-237l23 24l-43 -272l-14 24h255l-28 -20z" />
    <glyph glyph-name="uni0416" unicode="&#x416;" horiz-adv-x="1002" 
d="M-25 0l10 63l91 25l-35 -26l261 320l-6 -33l-121 286l24 -22l-84 24l9 63h245l-10 -63l-88 -20l14 19l100 -252l-29 20h134l-22 -20l37 253l10 -23l-80 20l9 64l251 5l-9 -62l-88 -28l19 27l-38 -256l-16 20h127l-37 -20l180 252l8 -19l-81 17l10 64l246 5l-10 -64
l-94 -26l31 22l-211 -286l3 33l165 -320l-29 26l82 -25l-10 -63h-148l-157 338l30 -19h-121l23 20l-42 -276l-12 27l77 -27l-10 -63h-247l9 63l89 24l-17 -24l41 277l16 -21h-126l35 19l-256 -338h-152z" />
    <glyph glyph-name="uni0417" unicode="&#x417;" horiz-adv-x="574" 
d="M214 -12q-56 0 -109.5 13t-101.5 37l41 87q40 -18 84 -28t81 -10q55 0 94.5 19.5t61.5 52t22 72.5q0 32 -15 52t-43 29t-67 9h-77l14 89h69q73 0 112.5 37t39.5 91q0 47 -27.5 65.5t-73.5 18.5q-29 0 -62.5 -6t-68.5 -17l18 18l-30 -115h-72l17 172q57 19 113 29t106 10
q59 0 105 -15.5t72.5 -49.5t26.5 -91q0 -54 -24.5 -96t-68 -67t-101.5 -29l-5 11q87 -6 124.5 -44t37.5 -104q0 -71 -37.5 -125t-103 -84.5t-152.5 -30.5z" />
    <glyph glyph-name="uni0418" unicode="&#x418;" horiz-adv-x="770" 
d="M0 0l10 63l94 24l-18 -24l90 568l13 -20l-87 23l10 63l271 5l-10 -63l-93 -28l16 20l-83 -523l-20 36l419 555l185 3l-10 -63l-92 -28l17 26l-91 -568l-8 18l83 -24l-10 -63h-269l10 63l92 24l-18 -18l79 506l42 2l-434 -577h-188z" />
    <glyph glyph-name="uni0419" unicode="&#x419;" horiz-adv-x="770" 
d="M0 0l10 63l94 24l-18 -24l90 568l13 -20l-87 23l10 63l271 5l-10 -63l-93 -28l16 20l-83 -523l-20 36l419 555l185 3l-10 -63l-92 -28l17 26l-91 -568l-8 18l83 -24l-10 -63h-269l10 63l92 24l-18 -18l79 506l42 2l-434 -577h-188zM479 764q-49 0 -86.5 17t-57.5 51
t-17 86l103 -2q-3 -47 16 -67t54 -20q38 0 61.5 21.5t29.5 67.5l89 -2q-7 -52 -35 -86t-68.5 -50t-88.5 -16z" />
    <glyph glyph-name="uni041A" unicode="&#x41a;" horiz-adv-x="695" 
d="M589 62l-29 25l86 -24l-10 -63h-154l-160 338l28 -24h-122l22 26l-43 -271l-10 19l82 -25l-10 -63h-266l10 63l92 24l-19 -18l90 562l13 -20l-86 23l10 63l267 5l-10 -62l-92 -28l20 28l-41 -257l-14 21h129l-37 -20l189 251l11 -19l-80 18l9 63l252 5l-9 -63l-92 -26
l31 21l-220 -286l-1 34z" />
    <glyph glyph-name="uni041B" unicode="&#x41b;" horiz-adv-x="707" 
d="M47 -12q-35 0 -77 13l31 113q9 -2 18 -3.5t18 -1.5q37 0 65.5 24.5t50.5 66.5t38.5 96t29 113t23 117.5t19.5 108.5l16 -25l-89 24l10 63l164 5h368l-10 -63l-93 -28l16 19l-89 -561l-8 18l83 -24l-10 -63h-275l10 63l98 24l-17 -18l90 572l19 -29l-215 -1l27 20
q-15 -74 -29.5 -151t-31.5 -149t-39 -134t-51.5 -109t-68.5 -73.5t-91 -26.5z" />
    <glyph glyph-name="uni041C" unicode="&#x41c;" horiz-adv-x="853" 
d="M870 639l-94 -28l17 23l-89 -565l-8 18l82 -24l-9 -63h-259l9 63l98 26l-25 -26l81 506l19 -2l-249 -384l-76 -5l-125 391l22 1l-80 -501l-8 18l83 -24l-10 -63h-246l10 63l95 25l-22 -19l90 562l14 -20l-87 23l10 63l213 5l119 -400h-19l244 395l210 5z" />
    <glyph glyph-name="uni041D" unicode="&#x41d;" horiz-adv-x="766" 
d="M3 0l10 63l91 24l-18 -18l90 562l13 -20l-86 23l10 63l270 5l-10 -63l-93 -28l16 20l-39 -246l-14 18h326l-23 -18l39 246l13 -20l-86 23l10 63l270 5l-10 -63l-93 -28l16 20l-89 -562l-9 18l83 -24l-10 -63h-268l9 63l91 24l-17 -18l42 263l15 -19h-325l22 18l-42 -262
l-8 18l82 -24l-10 -63h-268z" />
    <glyph glyph-name="uni041E" unicode="&#x41e;" horiz-adv-x="720" 
d="M316 -11q-82 0 -139.5 32t-88 95t-30.5 155q0 62 14 125t43.5 120t74 101.5t105 70t136.5 25.5q83 0 141 -32t88 -94.5t30 -154.5q0 -60 -14 -123t-43 -120t-73.5 -102.5t-105 -71.5t-138.5 -26zM327 85q49 0 87 22.5t66 60t47 83.5t28 94t9 90q0 64 -18.5 104t-50.5 59
t-75 19q-48 0 -86 -22t-66 -59.5t-46.5 -83t-27.5 -93t-9 -90.5q0 -64 18 -104.5t50.5 -60t73.5 -19.5z" />
    <glyph glyph-name="uni041F" unicode="&#x41f;" horiz-adv-x="753" 
d="M2 0l10 63l92 24l-18 -18l89 560l15 -19l-88 24l10 63l193 5h475l-10 -63l-93 -27l16 18l-89 -561l-8 18l82 -24l-10 -63h-268l10 63l91 24l-17 -18l89 564l16 -21l-318 -1l24 20l-89 -562l-8 18l82 -24l-9 -63h-269z" />
    <glyph glyph-name="uni0420" unicode="&#x420;" horiz-adv-x="592" 
d="M296 254h-85l29 23l-33 -208l-8 18l101 -24l-10 -63h-287l10 63l91 24l-18 -18l90 562l13 -20l-86 23l10 63l197 5h89q106 0 153 -46.5t47 -130.5q0 -79 -37 -140t-105 -96t-161 -35zM365 612h-87l19 22l-50 -311l-16 22h69q57 0 95.5 22.5t58.5 61t20 84.5
q0 48 -25 73.5t-84 25.5z" />
    <glyph glyph-name="uni0421" unicode="&#x421;" horiz-adv-x="617" 
d="M307 -11q-68 0 -124.5 31.5t-90.5 97t-34 164.5q0 83 25.5 160.5t72.5 138.5t114 96.5t150 35.5q49 0 101 -13t106 -39l-33 -170h-72l-3 117l21 -19q-32 14 -64 21t-59 7q-56 0 -99 -29.5t-73 -78t-45 -107t-15 -115.5q0 -70 20 -113t54.5 -63.5t76.5 -20.5
q41 0 86.5 18.5t88.5 54.5l40 -76q-58 -49 -121.5 -73.5t-122.5 -24.5z" />
    <glyph glyph-name="uni0422" unicode="&#x422;" horiz-adv-x="589" 
d="M108 0l9 63l104 24l-18 -18l90 563l20 -20h-165l30 24l-42 -126h-72l31 192h538l-31 -192h-71l-4 122l23 -20h-167l30 20l-89 -563l-8 18l94 -24l-10 -63h-292z" />
    <glyph glyph-name="uni0423" unicode="&#x423;" horiz-adv-x="668" 
d="M64 3l35 97q23 -9 41 -13t34 -4q38 0 67.5 25.5t58.5 72.5l-20 -51l-154 503l24 -22l-82 23l10 63l273 5l-9 -63l-103 -26l19 31l98 -389l-17 -7l212 389l6 -25l-88 22l10 63l250 5l-10 -63l-90 -25l32 22l-261 -462q-32 -56 -67.5 -99.5t-76 -68t-90.5 -24.5
q-23 0 -48.5 5.5t-53.5 15.5z" />
    <glyph glyph-name="uni0424" unicode="&#x424;" horiz-adv-x="771" 
d="M577 682l-92 -24l16 13l-99 -622l-10 14l83 -23l-10 -60h-248l9 60l91 22l-15 -13l98 622l14 -14l-87 20l10 61l249 5zM344 107q-97 0 -163 21.5t-99 69.5t-33 126q0 99 50.5 163.5t140.5 95.5t209 31q100 0 168 -22t102.5 -70t34.5 -125q0 -96 -52 -161t-144.5 -97
t-213.5 -32zM351 178q91 0 153.5 25.5t95 75.5t32.5 121q0 55 -21 86.5t-61 44t-100 12.5q-91 0 -153.5 -25t-94 -74t-31.5 -122q0 -54 20 -86t60 -45t100 -13z" />
    <glyph glyph-name="uni0425" unicode="&#x425;" horiz-adv-x="688" 
d="M590 61l-33 26l78 -24l-9 -63h-269l10 63l86 24l-2 -21l-126 241h31l-207 -246l-2 28l84 -26l-10 -63h-241l10 63l86 25l-40 -28l268 310l-2 -24l-159 290l23 -19l-75 17l10 63l266 5l-9 -63l-84 -25l7 19l114 -219l-24 4l179 215l5 -21l-81 22l9 63l239 5l-10 -63
l-85 -28l37 25l-250 -289l3 31z" />
    <glyph glyph-name="uni0426" unicode="&#x426;" horiz-adv-x="764" 
d="M589 -187l-12 198l10 -11h-585l10 63l92 24l-18 -19l89 561l14 -18l-87 23l10 63l270 5l-10 -63l-93 -28l16 19l-89 -564l-13 24h315l-29 -30l90 569l13 -18l-85 23l10 63l270 5l-10 -63l-94 -28l16 19l-90 -573l-12 33l115 -5l-42 -272h-71z" />
    <glyph glyph-name="uni0427" unicode="&#x427;" horiz-adv-x="690" 
d="M470 309q-48 -23 -95.5 -34t-88.5 -11q-61 0 -101 23.5t-56.5 68t-7.5 105.5l27 172l18 -24l-92 25l9 63l269 5l-9 -63l-96 -29l22 25l-24 -154q-10 -61 12.5 -93t78.5 -32q29 0 67.5 9t79.5 27l-16 -22l41 265l15 -25l-90 24l10 63l273 5l-10 -63l-96 -29l18 24
l-90 -571l-9 25l87 -25l-10 -63h-293l9 63l117 25l-21 -27l39 253z" />
    <glyph glyph-name="uni0428" unicode="&#x428;" horiz-adv-x="1021" 
d="M2 0l10 63l91 24l-17 -18l89 560l14 -18l-87 23l10 63l267 5l-10 -63l-90 -28l16 19l-89 -564l-11 24h252l-29 -24l90 563l13 -18l-86 23l10 63l268 5l-10 -63l-91 -28l16 19l-89 -564l-11 24h251l-28 -24l90 564l13 -19l-86 23l10 63l271 5l-10 -63l-94 -28l16 19
l-89 -561l-8 18l83 -24l-10 -63h-935z" />
    <glyph glyph-name="uni0429" unicode="&#x429;" horiz-adv-x="1036" 
d="M861 -187l-13 198l19 -11h-865l10 63l91 24l-17 -18l89 560l14 -18l-87 23l10 63l267 5l-10 -63l-90 -28l16 19l-89 -564l-11 24h252l-29 -24l90 563l13 -18l-86 23l10 63l268 5l-10 -63l-91 -28l16 19l-89 -564l-11 24h251l-28 -24l90 564l13 -19l-86 23l10 63l271 5
l-10 -63l-94 -28l16 19l-90 -566l-14 26l116 -5l-41 -272h-71z" />
    <glyph glyph-name="uni042A" unicode="&#x42a;" horiz-adv-x="723" 
d="M109 0l10 63l103 24l-17 -18l89 563l20 -20h-166l30 24l-43 -129h-71l31 195h407l-10 -63l-99 -29l22 27l-37 -232l-18 23h118q104 0 155 -44t51 -128q0 -85 -36 -142t-102.5 -85.5t-157.5 -28.5h-279zM324 66l-21 24h99q76 0 116.5 41.5t40.5 111.5q0 53 -26.5 76.5
t-81.5 23.5h-104l25 20z" />
    <glyph glyph-name="uni042B" unicode="&#x42b;" horiz-adv-x="901" 
d="M2 0l10 63l91 24l-18 -18l90 562l13 -21l-85 24l10 63l266 5l-10 -63l-98 -29l23 18l-35 -223l-18 23h110q104 0 155 -43.5t51 -128.5q0 -84 -36 -141t-102 -86t-158 -29h-259zM205 66l-21 24h92q76 0 116 42t40 112q0 53 -26.5 76t-81.5 23h-96l24 20zM918 639l-92 -28
l16 20l-90 -562l-8 18l83 -24l-10 -63h-269l10 63l91 24l-17 -18l89 562l14 -20l-86 23l10 63l269 5z" />
    <glyph glyph-name="uni042C" unicode="&#x42c;" horiz-adv-x="604" 
d="M2 0l10 63l91 24l-18 -18l90 562l13 -21l-85 24l10 63l266 5l-10 -63l-98 -29l23 18l-35 -223l-18 23h117q104 0 155 -43.5t51 -128.5q0 -84 -35.5 -141t-102 -86t-158.5 -29h-266zM205 66l-21 24h99q76 0 116 42t40 112q0 53 -26.5 76t-81.5 23h-103l24 20z" />
    <glyph glyph-name="uni042D" unicode="&#x42d;" horiz-adv-x="639" 
d="M11 80l55 78q40 -36 81.5 -52.5t81.5 -16.5q51 0 96.5 24.5t80.5 70t55.5 109t20.5 141.5q0 97 -37 140t-112 43q-33 0 -69.5 -8t-78.5 -21l24 20l-38 -115h-71l15 167q70 27 131 40t112 13q116 0 182 -67t66 -211q0 -98 -30 -179.5t-81.5 -141.5t-118.5 -92.5
t-140 -32.5q-57 0 -114.5 22t-110.5 69zM191 317l13 85h284l-14 -85h-283z" />
    <glyph glyph-name="uni042E" unicode="&#x42e;" horiz-adv-x="1023" 
d="M2 0l10 63l91 24l-17 -18l90 567l13 -25l-87 23l10 63l269 5l-9 -63l-93 -28l16 20l-39 -245l-14 17h197l-14 -90h-199l22 18l-42 -262l-8 18l83 -24l-10 -63h-269zM617 -11q-82 0 -140 32t-88.5 95t-30.5 155q0 62 14.5 125t43.5 120t73.5 101.5t105 70t137.5 25.5
q82 0 140 -32t88.5 -94.5t30.5 -154.5q0 -60 -14 -123t-43 -120t-73.5 -102.5t-105 -71.5t-138.5 -26zM628 85q48 0 86 22.5t66.5 60t47 83.5t27.5 94t9 90q0 64 -18.5 104t-50.5 59t-74 19q-48 0 -86.5 -22t-66.5 -59.5t-46.5 -83t-27.5 -93t-9 -90.5q0 -64 18.5 -104.5
t50.5 -60t74 -19.5z" />
    <glyph glyph-name="uni042F" unicode="&#x42f;" horiz-adv-x="632" 
d="M548 0h-279l10 63l105 25l-21 -19l36 228l18 -18h-59q-27 1 -48 -3.5t-39.5 -23.5t-41.5 -63l-98 -189h-150l10 63l79 28l-24 -23l76 144q16 29 35.5 51.5t52 35.5t86.5 12l9 -19q-105 5 -149 49t-44 123q0 111 71.5 174.5t196.5 63.5h279l-10 -63l-92 -25l16 21
l-90 -572l-7 25l82 -25zM406 337l46 295l17 -20h-92q-47 0 -79.5 -21t-49 -55.5t-16.5 -73.5q0 -38 13.5 -58.5t33.5 -30t41.5 -11t36.5 -1.5h74z" />
    <glyph glyph-name="uni0430" unicode="&#x430;" horiz-adv-x="589" 
d="M175 -11q-39 0 -72 21t-52.5 64.5t-19.5 113.5q0 74 22.5 138t63.5 113t96 77t119 28q41 0 84.5 -13.5t87.5 -44.5l-53 10l25 36h64l-80 -505l-41 76l122 -37l-10 -65l-180 -6l31 183l34 61q-18 -83 -58.5 -138.5t-89 -83.5t-93.5 -28zM222 85q23 0 48.5 14.5t48.5 44
t41.5 72.5t27.5 101l23 139l19 -39q-26 19 -51 27.5t-50 8.5q-39 0 -71.5 -20.5t-56.5 -56t-37 -80.5t-13 -94q0 -61 20 -89t51 -28z" />
    <glyph glyph-name="uni0431" unicode="&#x431;" horiz-adv-x="592" 
d="M258 -11q-38 0 -75 11t-66 38.5t-46.5 76.5t-17.5 125q0 81 20.5 158.5t58.5 143t92 114t121 72.5q30 11 71 21t86.5 21t87.5 24l24 -110q-56 -19 -105.5 -28.5t-90 -17.5t-73.5 -24q-52 -24 -85 -67.5t-51 -98t-25 -110.5t-7 -105q0 -42 6.5 -70.5t19.5 -45t30 -23
t38 -6.5q45 0 76 23t50.5 58.5t28.5 74t9 68.5q0 60 -27 87t-71 27q-40 0 -82 -20.5t-83 -53.5l6 80q54 40 108.5 62.5t105.5 22.5q46 0 84 -19.5t61 -61.5t23 -108q0 -58 -18.5 -117t-56 -109.5t-94 -81.5t-133.5 -31z" />
    <glyph glyph-name="uni0432" unicode="&#x432;" horiz-adv-x="545" 
d="M248 -11q-65 0 -112.5 22t-73 69t-25.5 122q0 72 23.5 134.5t65.5 108.5t96.5 72t116.5 26q75 0 118 -37t43 -96q0 -63 -50 -107.5t-144 -67t-225 -22.5l10 76q93 0 159.5 10t101.5 34t35 64q0 27 -16 46t-49 19q-30 0 -59.5 -18t-54.5 -51t-40 -79t-15 -103
q0 -74 27.5 -106.5t78.5 -32.5q37 0 62 13t38 34.5t13 44.5q0 30 -22 53.5t-66 25.5l18 53q55 -4 96.5 -20t64.5 -45.5t22 -72.5q0 -49 -31 -87.5t-84.5 -60t-121.5 -21.5z" />
    <glyph glyph-name="uni0433" unicode="&#x433;" horiz-adv-x="482" 
d="M134 476l9 -33l-78 23l10 63l186 3h245l-35 -199h-72l4 126l12 -17h-176l9 15l-66 -432l-42 73l133 -35l-9 -63h-271l10 63l83 22l-16 -19z" />
    <glyph glyph-name="uni0434" unicode="&#x434;" horiz-adv-x="593" 
d="M240 -11q-56 0 -104 22t-75.5 71t-27.5 129q0 84 31.5 153.5t88.5 110.5t132 41q45 0 93 -17t91 -56l-22 -79q-30 32 -64 48t-69 16q-48 0 -84 -27.5t-56.5 -75.5t-20.5 -110q0 -73 28 -105.5t75 -32.5q41 0 72 23.5t52.5 62.5t35 88t19 102t5.5 101q0 78 -17 130.5
t-55.5 78.5t-104.5 26q-19 0 -40 -3t-46 -9l-8 88q34 9 66.5 13t61.5 4q128 0 197 -82t69 -246q0 -83 -18.5 -165.5t-57.5 -150t-100 -108.5t-147 -41z" />
    <glyph glyph-name="uni0435" unicode="&#x435;" horiz-adv-x="510" 
d="M233 -11q-56 0 -101.5 22.5t-72 70.5t-26.5 125q0 64 20 124t58 108t92.5 76t123.5 28q81 0 126.5 -37t45.5 -97q0 -46 -27.5 -81.5t-74.5 -60t-105 -36.5t-120 -12h-19t-17 1l7 79q11 -1 22.5 -2t23.5 -1q35 0 69.5 6.5t62.5 19t45 31.5t17 44q0 27 -19 44t-53 17
q-38 0 -68.5 -22.5t-51 -59.5t-31.5 -80.5t-11 -86.5q0 -70 29.5 -102t80.5 -32q34 0 72.5 12t78.5 34l30 -69q-51 -31 -104 -47t-103 -16z" />
    <glyph glyph-name="uni0436" unicode="&#x436;" horiz-adv-x="928" 
d="M721 -11q-62 0 -100 50t-38 146q0 67 17 131t49 115t77.5 81.5t102.5 30.5q25 0 53.5 -6.5t58.5 -22.5l-25 -139h-66l1 86l9 -16q-12 6 -24 8t-19 2q-32 0 -56 -23.5t-41 -61.5t-25.5 -83t-8.5 -88q0 -53 16 -87t50 -34q35 0 83 38l36 -65q-41 -32 -79 -47t-71 -15z
M100 -11q-25 0 -53 7t-59 23l26 138h65v-85l-10 15q12 -6 24 -8t20 -2q31 0 55.5 23.5t41 61.5t25 83t8.5 88q0 54 -16 87.5t-49 33.5q-16 0 -37 -10t-46 -28l-36 65q40 33 78.5 47.5t70.5 14.5q63 0 100.5 -50t37.5 -146q0 -67 -17 -131t-48.5 -115t-77.5 -81.5t-103 -30.5
zM372 0l85 532h104l-84 -532h-105zM296 229l7 88h319l-7 -88h-319z" />
    <glyph glyph-name="uni0437" unicode="&#x437;" horiz-adv-x="483" 
d="M173 -11q-47 0 -92.5 11t-84.5 33l32 73q30 -16 65 -24.5t69 -8.5q38 0 69.5 11t51 33t19.5 55q0 24 -10.5 38t-27.5 20t-34 7t-29 1h-67l12 73h63q58 0 90.5 25t32.5 65q0 36 -23 49t-59 13q-23 0 -50.5 -4.5t-56.5 -11.5l25 25l-27 -88h-73l13 130q50 14 99.5 21.5
t92.5 7.5q51 0 91 -12.5t63 -40t23 -72.5q0 -43 -22 -73.5t-60.5 -48.5t-88.5 -23l-12 12q80 -6 117.5 -35.5t37.5 -83.5q0 -42 -20 -75t-55 -55.5t-79.5 -34.5t-94.5 -12z" />
    <glyph glyph-name="uni0438" unicode="&#x438;" horiz-adv-x="612" 
d="M193 -11q-44 -1 -75 21.5t-43.5 63t-4.5 96.5l47 297l10 -23l-82 22l10 63l191 7l-54 -339q-5 -35 -1.5 -60.5t17 -39.5t36.5 -14q24 0 49 13.5t48.5 42t42 71.5t27.5 102l34 220h118l-73 -466l-15 22l89 -25l-10 -62l-181 -5l32 181l36 62q-21 -88 -62.5 -143t-90 -81
t-95.5 -26z" />
    <glyph glyph-name="uni0439" unicode="&#x439;" horiz-adv-x="612" 
d="M193 -11q-44 -1 -75 21.5t-43.5 63t-4.5 96.5l47 297l10 -23l-82 22l10 63l191 7l-54 -339q-5 -35 -1.5 -60.5t17 -39.5t36.5 -14q24 0 49 13.5t48.5 42t42 71.5t27.5 102l34 220h118l-73 -466l-15 22l89 -25l-10 -62l-181 -5l32 181l36 62q-21 -88 -62.5 -143t-90 -81
t-95.5 -26zM360 636q-44 0 -79.5 15.5t-54 48t-13.5 85.5l110 5q-6 -47 13.5 -68.5t49.5 -21.5t54 22t28 64l83 4q-7 -53 -35 -87.5t-69 -50.5t-87 -16z" />
    <glyph glyph-name="uni043A" unicode="&#x43a;" horiz-adv-x="576" 
d="M49 0l80 503l41 -73l-121 36l10 64l193 6l-37 -232l-16 18h125l-33 -14l116 158l7 -13l-67 12l10 63l227 8l-10 -63l-84 -18l35 19l-149 -196l6 32l93 -244l-16 16l76 -19l-10 -63h-148l-89 254l16 -14h-119l22 17l-40 -257h-118z" />
    <glyph glyph-name="uni043B" unicode="&#x43b;" horiz-adv-x="571" 
d="M-42 1l23 97q6 -1 12.5 -1.5t12.5 -0.5q40 0 67 28t45.5 79.5t33 122t30.5 155.5l24 -41l-104 29l10 63h410l-70 -459l-8 12l77 -22l-9 -63l-189 -3l73 480l13 -35h-178l41 29q-27 -152 -56.5 -260t-73 -165t-112.5 -57q-16 0 -34.5 3t-37.5 9z" />
    <glyph glyph-name="uni043C" unicode="&#x43c;" horiz-adv-x="757" 
d="M-39 1l23 98q12 -3 25 -3q40 0 65.5 28t42.5 79.5t30.5 122t28.5 155.5l14 -36l-94 24l10 62l206 5l93 -369h-52l226 364l131 5l-76 -475l-10 26l85 -23l-10 -63l-179 -5l68 439h19l-219 -353l-57 -3l-92 347l27 45q-27 -153 -55 -261t-69 -164.5t-109 -56.5q-16 0 -34 3
t-38 9z" />
    <glyph glyph-name="uni043D" unicode="&#x43d;" horiz-adv-x="627" 
d="M49 0l75 476l7 -32l-81 22l10 63l191 7l-40 -249l-25 34h274l-39 -38l40 249h117l-74 -468l-15 24l90 -24l-9 -64l-195 -4l43 270l26 -33h-274l38 38l-42 -271h-117z" />
    </font>
</defs>
</svg>
